<svg xmlns="http://www.w3.org/2000/svg" xmlns:xlink="http://www.w3.org/1999/xlink" viewBox="0 0 1698.47 1347.2"><defs><style>.a,.f,.g{fill:none;}.b{clip-path:url(#a);}.c{fill:#5cb5ae;}.d{fill:#5bb4a3;}.e,.h{fill:#51977b;}.f,.g{stroke:#51977b;}.f{stroke-width:4px;}.g{stroke-width:6px;}.h,.k,.m{fill-rule:evenodd;}.i,.k{fill:#406a55;}.j,.m{fill:#4a7f61;}.l{fill:#1b231c;}</style><clipPath id="a" transform="translate(211.16 97.75)"><rect class="a" width="1400" height="980"/></clipPath></defs><title>SilhouetteSunsetVector</title><g class="b"><rect class="c" x="102.8" width="1593.58" height="1115.51"/><rect class="d" x="211.16" y="97.75" width="1400" height="47"/><rect class="d" x="211.16" y="148" width="1400" height="43.83"/><rect class="d" x="211.16" y="198.25" width="1400" height="40.67"/><rect class="d" x="211.16" y="248.5" width="1400" height="37.5"/><rect class="d" x="211.16" y="298.75" width="1400" height="34.33"/><rect class="d" x="211.16" y="349" width="1400" height="31.17"/><rect class="d" x="211.16" y="399.25" width="1400" height="28"/><rect class="d" x="211.16" y="449.5" width="1400" height="24.83"/><rect class="d" x="211.16" y="499.75" width="1400" height="21.67"/><rect class="d" x="211.16" y="550" width="1400" height="18.5"/><rect class="d" x="211.16" y="600.25" width="1400" height="15.33"/><rect class="d" x="211.16" y="650.5" width="1400" height="12.17"/><rect class="d" x="211.16" y="700.75" width="1400" height="9"/><rect class="e" x="127.72" y="1012.65" width="1501.85" height="99.91"/><rect class="e" x="308.79" y="817.28" width="143.73" height="221.85"/><rect class="e" x="438.64" y="959.77" width="235.76" height="79.56"/><rect class="e" x="308.79" y="697.69" width="143.73" height="78.76"/><rect class="e" x="308.79" y="615.19" width="143.73" height="39.38"/><path class="e" d="M382.78,918.09c0,11-12.69,19.9-28.34,19.9H338.69c-15.66,0-28.35-8.91-28.35-19.9V469.41c0-11,12.69-19.9,28.35-19.9h15.75c15.65,0,28.34,8.91,28.34,19.9Z" transform="translate(211.16 97.75)"/><rect class="e" x="363.4" y="769.56" width="11.5" height="63.24"/><rect class="e" x="343.14" y="639.63" width="11.5" height="63.24"/><rect class="e" x="325.46" y="769.56" width="11.5" height="63.24"/><rect class="e" x="399.62" y="769.56" width="11.5" height="63.24"/><rect class="e" x="386.69" y="643.22" width="11.5" height="63.24"/><rect class="e" x="437.57" y="527.52" width="52.89" height="508.22" rx="20.7"/><rect class="e" x="309.36" y="793.7" width="131.08" height="2.3"/><rect class="e" x="309.36" y="793.7" width="1.94" height="25.4"/><rect class="e" x="316.19" y="793.7" width="0.97" height="25.4"/><rect class="e" x="322.37" y="793.7" width="0.97" height="25.4"/><rect class="e" x="329.05" y="793.7" width="0.97" height="25.4"/><rect class="e" x="336.46" y="793.7" width="0.97" height="25.4"/><rect class="e" x="342.64" y="793.7" width="0.97" height="25.4"/><rect class="e" x="349.32" y="793.7" width="0.97" height="25.4"/><rect class="e" x="355.5" y="793.7" width="0.97" height="25.4"/><rect class="e" x="361.68" y="793.7" width="0.97" height="25.4"/><rect class="e" x="368.36" y="793.7" width="0.97" height="25.4"/><rect class="e" x="375.77" y="793.7" width="0.97" height="25.4"/><rect class="e" x="381.94" y="793.7" width="0.97" height="25.4"/><rect class="e" x="388.63" y="793.7" width="0.97" height="25.4"/><rect class="e" x="395.04" y="793.7" width="0.97" height="25.4"/><rect class="e" x="401.22" y="793.7" width="0.97" height="25.4"/><rect class="e" x="407.9" y="793.7" width="0.97" height="25.4"/><rect class="e" x="415.31" y="793.7" width="0.97" height="25.4"/><rect class="e" x="421.49" y="793.7" width="0.97" height="25.4"/><rect class="e" x="428.17" y="793.7" width="0.97" height="25.4"/><rect class="e" x="434.35" y="793.7" width="0.97" height="25.4"/><rect class="e" x="309.36" y="674.12" width="131.08" height="2.3"/><rect class="e" x="309.36" y="674.12" width="1.94" height="25.4"/><rect class="e" x="316.19" y="674.12" width="0.97" height="25.4"/><rect class="e" x="322.37" y="674.12" width="0.97" height="25.4"/><rect class="e" x="329.05" y="674.12" width="0.97" height="25.4"/><rect class="e" x="336.46" y="674.12" width="0.97" height="25.4"/><rect class="e" x="342.64" y="674.12" width="0.97" height="25.4"/><rect class="e" x="349.32" y="674.12" width="0.97" height="25.4"/><rect class="e" x="355.5" y="674.12" width="0.97" height="25.4"/><rect class="e" x="361.68" y="674.12" width="0.97" height="25.4"/><rect class="e" x="368.36" y="674.12" width="0.97" height="25.4"/><rect class="e" x="375.77" y="674.12" width="0.97" height="25.4"/><rect class="e" x="381.94" y="674.12" width="0.97" height="25.4"/><rect class="e" x="388.63" y="674.12" width="0.97" height="25.4"/><rect class="e" x="395.04" y="674.12" width="0.97" height="25.4"/><rect class="e" x="401.22" y="674.12" width="0.97" height="25.4"/><rect class="e" x="407.9" y="674.12" width="0.97" height="25.4"/><rect class="e" x="415.31" y="674.12" width="0.97" height="25.4"/><rect class="e" x="421.49" y="674.12" width="0.97" height="25.4"/><rect class="e" x="428.17" y="674.12" width="0.97" height="25.4"/><rect class="e" x="434.35" y="674.12" width="0.97" height="25.4"/><rect class="e" x="309.36" y="591.91" width="131.08" height="2.3"/><rect class="e" x="309.36" y="591.91" width="1.94" height="25.41"/><rect class="e" x="316.19" y="591.91" width="0.97" height="25.41"/><rect class="e" x="322.37" y="591.91" width="0.97" height="25.41"/><rect class="e" x="329.05" y="591.91" width="0.97" height="25.41"/><rect class="e" x="336.46" y="591.91" width="0.97" height="25.41"/><rect class="e" x="342.64" y="591.91" width="0.97" height="25.41"/><rect class="e" x="349.32" y="591.91" width="0.97" height="25.41"/><rect class="e" x="355.5" y="591.91" width="0.97" height="25.41"/><rect class="e" x="361.68" y="591.91" width="0.97" height="25.41"/><rect class="e" x="368.36" y="591.91" width="0.97" height="25.41"/><rect class="e" x="375.77" y="591.91" width="0.97" height="25.41"/><rect class="e" x="381.94" y="591.91" width="0.97" height="25.41"/><rect class="e" x="388.63" y="591.91" width="0.97" height="25.41"/><rect class="e" x="395.04" y="591.91" width="0.97" height="25.41"/><rect class="e" x="401.22" y="591.91" width="0.97" height="25.41"/><rect class="e" x="407.9" y="591.91" width="0.97" height="25.41"/><rect class="e" x="415.31" y="591.91" width="0.97" height="25.41"/><rect class="e" x="421.49" y="591.91" width="0.97" height="25.41"/><rect class="e" x="428.17" y="591.91" width="0.97" height="25.41"/><rect class="e" x="434.35" y="591.91" width="0.97" height="25.41"/><path class="f" d="M345.14,458.81V434.94s-.3-21.27,18.67-21.27h37.73s20.34-3.45,20.34,21.27V739.07s1.72,11.21-11.21,11.21H359.79" transform="translate(211.16 97.75)"/><path class="f" d="M371.86,568.32h51.89s19.4-1.87,19.4,20.7v80.05s.21,14.45-21.27,14.45H372" transform="translate(211.16 97.75)"/><path class="f" d="M258.6,433.79V417.12s-4.38-13.23-15.3-13.23h-47s-16.82-1.07-16.82,18.55V462.1s-.43,16.39,22.64,15.1h32.12" transform="translate(211.16 97.75)"/><rect class="e" x="1310.59" y="912.13" width="15.7" height="86.32"/><rect class="e" x="1299.04" y="860.65" width="111.97" height="1.96"/><rect class="e" x="1299.04" y="860.65" width="1.66" height="21.7"/><rect class="e" x="1304.87" y="860.65" width="0.83" height="21.7"/><rect class="e" x="1310.15" y="860.65" width="0.83" height="21.7"/><rect class="e" x="1315.86" y="860.65" width="0.83" height="21.7"/><rect class="e" x="1322.18" y="860.65" width="0.83" height="21.7"/><rect class="e" x="1327.46" y="860.65" width="0.83" height="21.7"/><rect class="e" x="1333.17" y="860.65" width="0.83" height="21.7"/><rect class="e" x="1338.45" y="860.65" width="0.83" height="21.7"/><rect class="e" x="1343.73" y="860.65" width="0.83" height="21.7"/><rect class="e" x="1349.44" y="860.65" width="0.83" height="21.7"/><rect class="e" x="1355.76" y="860.65" width="0.83" height="21.7"/><rect class="e" x="1361.04" y="860.65" width="0.83" height="21.7"/><rect class="e" x="1366.75" y="860.65" width="0.83" height="21.7"/><rect class="e" x="1372.23" y="860.65" width="0.83" height="21.7"/><rect class="e" x="1377.5" y="860.65" width="0.83" height="21.7"/><rect class="e" x="1383.21" y="860.65" width="0.83" height="21.7"/><rect class="e" x="1389.54" y="860.65" width="0.83" height="21.7"/><rect class="e" x="1394.81" y="860.65" width="0.83" height="21.7"/><rect class="e" x="1400.52" y="860.65" width="0.83" height="21.7"/><rect class="e" x="1405.8" y="860.65" width="0.83" height="21.7"/><rect class="e" x="1277.59" y="967.79" width="111.97" height="1.97"/><rect class="e" x="1277.59" y="967.79" width="1.66" height="21.7"/><rect class="e" x="1283.42" y="967.79" width="0.83" height="21.7"/><rect class="e" x="1288.7" y="967.79" width="0.83" height="21.7"/><rect class="e" x="1294.41" y="967.79" width="0.83" height="21.7"/><rect class="e" x="1300.73" y="967.79" width="0.83" height="21.7"/><rect class="e" x="1306.01" y="967.79" width="0.83" height="21.7"/><rect class="e" x="1311.72" y="967.79" width="0.83" height="21.7"/><rect class="e" x="1317" y="967.79" width="0.83" height="21.7"/><rect class="e" x="1322.28" y="967.79" width="0.83" height="21.7"/><rect class="e" x="1327.99" y="967.79" width="0.83" height="21.7"/><rect class="e" x="1334.31" y="967.79" width="0.83" height="21.7"/><rect class="e" x="1339.59" y="967.79" width="0.83" height="21.7"/><rect class="e" x="1345.3" y="967.79" width="0.83" height="21.7"/><rect class="e" x="1350.78" y="967.79" width="0.83" height="21.7"/><rect class="e" x="1356.06" y="967.79" width="0.83" height="21.7"/><rect class="e" x="1361.76" y="967.79" width="0.83" height="21.7"/><rect class="e" x="1368.09" y="967.79" width="0.83" height="21.7"/><rect class="e" x="1373.37" y="967.79" width="0.83" height="21.7"/><rect class="e" x="1379.07" y="967.79" width="0.83" height="21.7"/><rect class="e" x="1384.35" y="967.79" width="0.83" height="21.7"/><path class="g" d="M1239.59,562.23V507.56s.41-25.78-25.48-25.78h-51.5s-27.76-.72-27.76,28.27V687.72s-3.76,31.09,15.3,32.5c17.61,1.3,69.45,0,69.45,0" transform="translate(211.16 97.75)"/><path class="g" d="M1361.19,551V528.24s6-18.05,20.89-18.05h64.16s23-1.47,23,25.31v54.14s.59,22.37-30.9,20.6h-43.84" transform="translate(211.16 97.75)"/><path class="e" d="M1409.45,909.28a14.91,14.91,0,0,0,14.91,14.91h0a14.91,14.91,0,0,0,14.91-14.91V702.21a14.92,14.92,0,0,0-14.91-14.91h0a14.92,14.92,0,0,0-14.91,14.91Z" transform="translate(211.16 97.75)"/><rect class="e" x="1545.24" y="641.76" width="63.78" height="354.5" rx="14.91"/><rect class="e" x="1474.02" y="751.93" width="43.05" height="279.05" rx="14.91"/><rect class="e" x="1410.34" y="651.7" width="68.63" height="382.22" rx="14.91"/><polygon class="e" points="1698.47 912.61 1644.63 912.61 1639.66 848.01 1590.79 848.01 1566.77 795.82 1507.96 795.82 1495.55 880.31 1299.38 880.31 1299.38 921.72 1378.32 921.72 1378.32 987.99 1277.68 987.99 1277.68 1038.51 1698.26 1040.79 1698.47 912.61"/><path class="h" d="M831.05,890.92a23.45,23.45,0,1,1-27-19.27A23.45,23.45,0,0,1,831.05,890.92Z" transform="translate(211.16 97.75)"/><path class="h" d="M943.7,889a23.45,23.45,0,1,1-27-19.28A23.46,23.46,0,0,1,943.7,889Z" transform="translate(211.16 97.75)"/><path class="h" d="M959.07,823.44l-6.8.21a7.47,7.47,0,0,0-7.9-6.25c.19-1.58,2.82-1.85,2.82-1.85l-.61-3.67c-6.25,1-7.28,5.7-7.28,5.7s-9.39-.28-15.08.1-6.67,6.55-6.67,6.55l-30.45.4c-.22-1.29-4.85-20.74-4.85-20.74l1.29-.22V801l-2.86.22a8,8,0,0,0-3.46-2.62c-2-.62-6.27-.33-6.27-.33s0,.57-.34-2.3-1.31-2.75-1.31-2.75-.34-.25-2.67.14-1.44,4.94-1.44,4.94l-5.83.24a1.31,1.31,0,0,0-1.6-1.15l-10.23.18a1.15,1.15,0,0,0-1.14,1.35l-3.89.25-.22-1.29a43,43,0,0,0-5-7.05s-16.15-12.89-20.15-16.28a17.72,17.72,0,0,0-8.81-3.85l-12-.75a1.7,1.7,0,0,0-1.53-1.64s-38.88-8.13-40.88-8.51a2.31,2.31,0,0,0-2.68,1l-31-6.51c-2.8-4.22-5.2-5.43-5.87-5.32s-1.54,1.32-1.54,1.32c-6.06,7.31-5.47,29.8-5.43,33s1.34,3.66,1.34,3.66,2.53,30.54,2.74,32.82,1.33,2.05,1.33,2.05l.63,5.72a2.25,2.25,0,0,0-3,.8c-1.18,2.49,1.68,3.29,1.68,3.29l2.7,9s-3,3.42-4.21,5.14a1.89,1.89,0,0,0,.08,2.74c3.59,3.19,2.77,8,4.63,14.14s5.14,7.81,5.14,7.81c.51,3.07,8.59,8.71,16.11,11.59s13.17-2.74,13.17-2.74L756,870.4l8.93-14s1.72-1.81-.75-1.84-4.77,5.32-4.77,5.32c-5.64,7.19-18,3.94-20.66,2.46s-3.93-1.08-4.64-.09-1.41.24-1.83-.06-1.69-8.63.32-10.49,1.85-5.14,1.85-5.14l-5.61-74s64.89,18.06,72.14,20,13.63,7.77,13.63,7.77,6,11,8.47,14.53a10.84,10.84,0,0,1,1.95,7,2.72,2.72,0,0,0-1.65,2.3s7,35.32,7.18,36.65,2.22,1.59,2.22,1.59l3-.5,23-.21-.06,3.63-14.15,0-1.3-.93-25.62.43-.9,1.26-13.48.17.26,6.9,15.88,4.44L826.72,888l6-5.51,11.44-.06.12,6,21.6-.2.21,4.39-2.43,0,.13,3.89,22.78-.69-.05-3.83-2.16.36,0-4.72,6.95.09-.17-6,3.44-.57,6.58,5.77,19.68-2.84,26-1.42a14.54,14.54,0,0,0,.61,7L943,888.26l-.55,4.16,7.38,3.08,1.63,4.8,9.78-.54c-7.93-8.63-8.1-20.56-8.1-20.56s1.43-1,1.57-1.68a6.41,6.41,0,0,0-.93-3.54c-1.5-1.49-7.26.07-7.26.07l.19,4.35-24.29,1,.41-9.6-.16-5.8-8.74.4a2,2,0,0,0-2.21-1.28s-10.89.24-13,.27-2.21,1.21-2.21,1.21l-5.62.1-.19-3.64s64.41.12,69.75-1.5,5.5-6.2,5.5-6.2l-.5-22.73C964.23,823.87,959.07,823.44,959.07,823.44Zm-244.19-1.8a1.26,1.26,0,0,0,1.26-1.31l-2.25-27.65L722,830.91l-6.41-2.81Zm8.38,20.8a4.18,4.18,0,0,1-3-.58L718,833.93l5.68,2.16,1.17,4.82S725.05,842.14,723.26,842.44Zm1.87-78.19-3.55-6.79.13-.17,29,6.19c.28,1.68,1.24,1.86,1.24,1.86l7.15,1.52ZM883.42,892.54l-16.07.17-.12-4.49,15.94-.51Zm-1.95-58.45-23.23,1.06-13-30.69,31.24-.4Z" transform="translate(211.16 97.75)"/><polygon class="i" points="214.26 1033.96 214.26 900.94 192.61 900.94 192.61 864.85 363.78 864.85 363.78 900.94 345.22 900.94 349.34 1022.61 386.46 1022.61 386.46 932.91 467.92 932.91 467.92 889.6 567.94 889.6 567.94 929.81 590.63 929.81 590.63 1057.67 214.26 1057.67 214.26 1033.96"/><polygon class="j" points="255 847.3 299.68 880.97 301.07 879.48 256.39 845.8 255 847.3"/><polygon class="j" points="253.94 829.88 298.61 863.55 300 862.06 255.33 828.38 253.94 829.88"/><polygon class="j" points="254.22 819.04 298.68 846.57 299.9 844.96 255.45 817.43 254.22 819.04"/><polygon class="j" points="254.22 808.52 298.68 836.05 299.9 834.44 255.45 806.91 254.22 808.52"/><polygon class="j" points="254.22 794.83 298.68 822.36 299.9 820.76 255.45 793.23 254.22 794.83"/><polygon class="j" points="254.22 782.04 298.68 809.57 299.9 807.96 255.45 780.43 254.22 782.04"/><polygon class="j" points="254.22 768.87 298.68 796.4 299.9 794.79 255.45 767.26 254.22 768.87"/><polygon class="j" points="254.22 757.15 298.68 784.68 299.9 783.08 255.45 755.55 254.22 757.15"/><polygon class="j" points="254.51 744.57 298.97 772.1 300.2 770.5 255.74 742.97 254.51 744.57"/><polygon class="j" points="254.51 734.05 298.97 761.58 300.2 759.98 255.74 732.45 254.51 734.05"/><polygon class="j" points="254.51 720.36 298.97 747.9 300.2 746.29 255.74 718.76 254.51 720.36"/><polygon class="j" points="254.51 707.57 298.97 735.1 300.2 733.5 255.74 705.97 254.51 707.57"/><polygon class="j" points="254.51 694.4 298.97 721.93 300.2 720.33 255.74 692.8 254.51 694.4"/><polygon class="j" points="254.51 682.69 298.97 710.23 300.2 708.62 255.74 681.09 254.51 682.69"/><polygon class="j" points="254.1 666.88 298.57 694.41 299.79 692.8 255.34 665.27 254.1 666.88"/><polygon class="j" points="253.88 696.39 298.35 668.86 299.57 670.46 255.11 697.99 253.88 696.39"/><polygon class="j" points="253.88 709.18 298.35 681.65 299.57 683.25 255.11 710.79 253.88 709.18"/><polygon class="j" points="253.88 722.35 298.35 694.82 299.57 696.42 255.11 723.95 253.88 722.35"/><polygon class="j" points="253.88 734.06 298.35 706.53 299.57 708.14 255.11 735.67 253.88 734.06"/><polygon class="j" points="254.18 746.65 298.64 719.12 299.87 720.72 255.41 748.25 254.18 746.65"/><polygon class="j" points="254.18 757.17 298.64 729.63 299.87 731.24 255.41 758.77 254.18 757.17"/><polygon class="j" points="254.18 770.85 298.64 743.32 299.87 744.93 255.41 772.46 254.18 770.85"/><polygon class="j" points="254.18 783.65 298.64 756.11 299.87 757.72 255.41 785.25 254.18 783.65"/><polygon class="j" points="254.18 796.81 298.64 769.28 299.87 770.89 255.41 798.42 254.18 796.81"/><polygon class="j" points="254.18 808.52 298.64 780.99 299.87 782.6 255.41 810.13 254.18 808.52"/><polygon class="j" points="253.78 824.34 298.24 796.81 299.46 798.41 255 825.94 253.78 824.34"/><polygon class="j" points="254.1 653.71 298.57 681.24 299.79 679.64 255.34 652.11 254.1 653.71"/><polygon class="j" points="254.1 642 298.57 669.53 299.79 667.92 255.34 640.39 254.1 642"/><polygon class="j" points="254.41 629.41 298.87 656.95 300.09 655.34 255.64 627.81 254.41 629.41"/><polygon class="j" points="254.41 618.89 298.87 646.43 300.09 644.82 255.64 617.29 254.41 618.89"/><polygon class="j" points="254.41 605.21 298.87 632.74 300.09 631.13 255.64 603.6 254.41 605.21"/><polygon class="j" points="254.41 592.42 298.87 619.95 300.09 618.34 255.64 590.81 254.41 592.42"/><polygon class="j" points="254.41 579.25 298.87 606.78 300.09 605.17 255.64 577.64 254.41 579.25"/><polygon class="j" points="254.41 567.53 298.87 595.06 300.09 593.46 255.64 565.93 254.41 567.53"/><polygon class="j" points="255.04 606.24 299.5 578.71 300.73 580.31 256.26 607.84 255.04 606.24"/><polygon class="j" points="255.34 618.82 299.79 591.29 301.02 592.89 256.57 620.43 255.34 618.82"/><polygon class="j" points="255.34 629.34 299.79 601.81 301.02 603.41 256.57 630.95 255.34 629.34"/><polygon class="j" points="255.34 643.03 299.79 615.49 301.02 617.1 256.57 644.63 255.34 643.03"/><polygon class="j" points="255.34 655.82 299.79 628.29 301.02 629.89 256.57 657.42 255.34 655.82"/><polygon class="j" points="255.34 668.99 299.79 641.46 301.02 643.06 256.57 670.59 255.34 668.99"/><polygon class="j" points="255.34 680.7 299.79 653.17 301.02 654.77 256.57 682.31 255.34 680.7"/><polygon class="j" points="255.42 553.4 299.88 580.93 301.11 579.33 256.65 551.8 255.42 553.4"/><polygon class="j" points="255.42 540.23 299.88 567.77 301.11 566.16 256.65 538.63 255.42 540.23"/><polygon class="j" points="255.42 528.52 299.88 556.05 301.11 554.45 256.65 526.92 255.42 528.52"/><polygon class="j" points="256.07 559.97 300.53 532.44 301.75 534.04 257.3 561.58 256.07 559.97"/><polygon class="j" points="257.08 574.1 301.54 546.57 302.77 548.17 258.31 575.7 257.08 574.1"/><polygon class="j" points="257.08 587.27 301.54 559.73 302.77 561.34 258.31 588.87 257.08 587.27"/><polygon class="j" points="255.72 515.94 300.19 543.47 301.41 541.87 256.95 514.33 255.72 515.94"/><polygon class="j" points="255.72 505.42 300.19 532.95 301.41 531.34 256.95 503.81 255.72 505.42"/><polygon class="j" points="255.72 491.73 300.19 519.26 301.41 517.66 256.95 490.13 255.72 491.73"/><polygon class="j" points="255.72 478.94 300.19 506.47 301.41 504.87 256.95 477.33 255.72 478.94"/><polygon class="j" points="255.72 465.77 300.19 493.3 301.41 491.7 256.95 464.17 255.72 465.77"/><polygon class="j" points="255.72 454.06 300.19 481.59 301.41 479.98 256.95 452.45 255.72 454.06"/><polygon class="j" points="254.76 439.44 299.22 466.97 300.45 465.37 255.99 437.83 254.76 439.44"/><polygon class="j" points="254.76 426.27 299.22 453.8 300.45 452.2 255.99 424.66 254.76 426.27"/><polygon class="j" points="254.76 414.56 299.22 442.09 300.45 440.49 255.99 412.95 254.76 414.56"/><polygon class="j" points="255.06 401.98 299.52 429.51 300.75 427.9 256.29 400.37 255.06 401.98"/><polygon class="j" points="255.06 391.46 299.52 418.99 300.75 417.38 256.29 389.85 255.06 391.46"/><polygon class="j" points="255.06 377.77 299.52 405.3 300.75 403.7 256.29 376.17 255.06 377.77"/><polygon class="j" points="255.06 364.98 299.52 392.51 300.75 390.9 256.29 363.37 255.06 364.98"/><polygon class="j" points="255.06 351.81 299.52 379.34 300.75 377.74 256.29 350.2 255.06 351.81"/><polygon class="j" points="255.06 340.09 299.52 367.63 300.75 366.02 256.29 338.49 255.06 340.09"/><polygon class="j" points="255.06 326.93 299.52 354.46 300.75 352.86 256.29 325.32 255.06 326.93"/><polygon class="j" points="255.06 312.29 299.52 339.82 300.75 338.21 256.29 310.69 255.06 312.29"/><polygon class="j" points="255.06 296.34 299.52 323.87 300.75 322.27 256.29 294.74 255.06 296.34"/><polygon class="j" points="255.97 282.81 300.43 310.34 301.66 308.74 257.2 281.21 255.97 282.81"/><polygon class="j" points="255.18 310.84 299.64 283.31 300.86 284.91 256.41 312.44 255.18 310.84"/><polygon class="j" points="255.18 321.36 299.64 293.83 300.86 295.44 256.41 322.97 255.18 321.36"/><polygon class="j" points="255.18 335.04 299.64 307.51 300.86 309.12 256.41 336.65 255.18 335.04"/><polygon class="j" points="255.18 347.84 299.64 320.31 300.86 321.91 256.41 349.44 255.18 347.84"/><polygon class="j" points="255.18 361.01 299.64 333.48 300.86 335.08 256.41 362.61 255.18 361.01"/><polygon class="j" points="255.18 372.72 299.64 345.19 300.86 346.79 256.41 374.32 255.18 372.72"/><polygon class="j" points="254.22 387.34 298.68 359.81 299.9 361.41 255.45 388.94 254.22 387.34"/><polygon class="j" points="254.22 400.51 298.68 372.98 299.9 374.58 255.45 402.11 254.22 400.51"/><polygon class="j" points="254.22 412.22 298.68 384.69 299.9 386.29 255.45 413.82 254.22 412.22"/><polygon class="j" points="254.51 424.8 298.98 397.27 300.2 398.88 255.75 426.41 254.51 424.8"/><polygon class="j" points="254.51 435.32 298.98 407.79 300.2 409.39 255.75 436.93 254.51 435.32"/><polygon class="j" points="254.51 449.01 298.98 421.48 300.2 423.08 255.75 450.61 254.51 449.01"/><polygon class="j" points="254.51 461.8 298.98 434.27 300.2 435.88 255.75 463.41 254.51 461.8"/><polygon class="j" points="254.51 474.97 298.98 447.44 300.2 449.04 255.75 476.57 254.51 474.97"/><polygon class="j" points="254.51 486.68 298.98 459.15 300.2 460.76 255.75 488.29 254.51 486.68"/><polygon class="j" points="254.51 499.85 298.98 472.31 300.2 473.92 255.75 501.45 254.51 499.85"/><polygon class="j" points="254.51 514.49 298.98 486.95 300.2 488.56 255.75 516.09 254.51 514.49"/><polygon class="j" points="254.51 530.43 298.98 502.9 300.2 504.51 255.75 532.04 254.51 530.43"/><polygon class="j" points="257.76 541.87 302.23 514.33 303.45 515.94 258.99 543.47 257.76 541.87"/><polygon class="j" points="255.95 849.32 299.77 820.68 298.5 819.1 254.68 847.75 255.95 849.32"/><polygon class="j" points="255.85 866.4 257.09 288.19 254.92 288.18 253.69 866.37 255.85 866.4"/><polygon class="j" points="277.67 866.4 278.91 288.19 276.74 288.18 275.51 866.37 277.67 866.4"/><polygon class="j" points="300.11 866.4 301.34 288.19 299.18 288.18 297.95 866.37 300.11 866.4"/><rect class="j" x="244.39" y="236.48" width="66.92" height="60.25"/><polygon class="j" points="245.28 240.85 651.21 241.74 651.22 240.18 245.3 239.3 245.28 240.85"/><polygon class="j" points="625.84 218.45 646.66 240.99 647.61 239.87 626.78 217.32 625.84 218.45"/><polygon class="j" points="637.42 218.24 651.65 240.97 652.76 240.07 638.54 217.34 637.42 218.24"/><polygon class="j" points="615.19 240.19 632.83 217.51 633.97 218.26 616.33 240.95 615.19 240.19"/><polygon class="j" points="614.54 218.45 635.37 240.99 636.32 239.87 615.49 217.32 614.54 218.45"/><polygon class="j" points="603.9 240.19 621.54 217.51 622.68 218.26 605.04 240.95 603.9 240.19"/><polygon class="j" points="601.58 218.45 622.41 240.99 623.35 239.87 602.52 217.32 601.58 218.45"/><polygon class="j" points="590.93 240.19 608.57 217.51 609.71 218.26 592.08 240.95 590.93 240.19"/><polygon class="j" points="590.29 218.45 611.12 240.99 612.06 239.87 591.23 217.32 590.29 218.45"/><polygon class="j" points="579.64 240.19 597.28 217.51 598.42 218.26 580.78 240.95 579.64 240.19"/><polygon class="j" points="577.83 218.45 598.66 240.99 599.6 239.87 578.77 217.32 577.83 218.45"/><polygon class="j" points="567.18 240.19 584.82 217.51 585.96 218.26 568.32 240.95 567.18 240.19"/><polygon class="j" points="566.54 218.45 587.37 240.99 588.31 239.87 567.48 217.32 566.54 218.45"/><polygon class="j" points="555.89 240.19 573.53 217.51 574.67 218.26 557.03 240.95 555.89 240.19"/><polygon class="j" points="553.57 218.45 574.4 240.99 575.34 239.87 554.51 217.32 553.57 218.45"/><polygon class="j" points="542.92 240.19 560.56 217.51 561.7 218.26 544.06 240.95 542.92 240.19"/><polygon class="j" points="542.28 218.45 563.11 240.99 564.05 239.87 543.22 217.32 542.28 218.45"/><polygon class="j" points="531.63 240.19 549.27 217.51 550.41 218.26 532.77 240.95 531.63 240.19"/><polygon class="j" points="530.53 218.45 551.35 240.99 552.3 239.87 531.47 217.32 530.53 218.45"/><polygon class="j" points="519.88 240.19 537.52 217.51 538.66 218.26 521.02 240.95 519.88 240.19"/><polygon class="j" points="519.24 218.45 540.07 240.99 541.01 239.87 520.18 217.32 519.24 218.45"/><polygon class="j" points="508.59 240.19 526.23 217.51 527.37 218.26 509.73 240.95 508.59 240.19"/><polygon class="j" points="506.27 218.45 527.1 240.99 528.04 239.87 507.21 217.32 506.27 218.45"/><polygon class="j" points="495.62 240.19 513.26 217.51 514.4 218.26 496.76 240.95 495.62 240.19"/><polygon class="j" points="494.98 218.45 515.8 240.99 516.75 239.87 495.92 217.32 494.98 218.45"/><polygon class="j" points="484.33 240.19 501.97 217.51 503.11 218.26 485.47 240.95 484.33 240.19"/><polygon class="j" points="471.87 240.19 489.51 217.51 490.65 218.26 473.01 240.95 471.87 240.19"/><polygon class="j" points="471.23 218.45 492.05 240.99 493 239.87 472.17 217.32 471.23 218.45"/><polygon class="j" points="460.58 240.19 478.21 217.51 479.36 218.26 461.72 240.95 460.58 240.19"/><polygon class="j" points="458.26 218.45 479.09 240.99 480.03 239.87 459.2 217.32 458.26 218.45"/><polygon class="j" points="447.61 240.19 465.25 217.51 466.39 218.26 448.75 240.95 447.61 240.19"/><polygon class="j" points="446.97 218.45 467.8 240.99 468.74 239.87 447.91 217.32 446.97 218.45"/><polygon class="j" points="436.32 240.19 453.96 217.51 455.1 218.26 437.46 240.95 436.32 240.19"/><polygon class="j" points="434.45 218.45 455.27 240.99 456.22 239.87 435.39 217.32 434.45 218.45"/><polygon class="j" points="423.8 240.19 441.44 217.51 442.58 218.26 424.94 240.95 423.8 240.19"/><polygon class="j" points="423.16 218.45 443.99 240.99 444.93 239.87 424.1 217.32 423.16 218.45"/><polygon class="j" points="412.5 240.19 430.15 217.51 431.29 218.26 413.65 240.95 412.5 240.19"/><polygon class="j" points="410.19 218.45 431.02 240.99 431.96 239.87 411.13 217.32 410.19 218.45"/><polygon class="j" points="399.54 240.19 417.18 217.51 418.32 218.26 400.68 240.95 399.54 240.19"/><polygon class="j" points="398.9 218.45 419.73 240.99 420.67 239.87 399.84 217.32 398.9 218.45"/><polygon class="j" points="388.25 240.19 405.89 217.51 407.03 218.26 389.39 240.95 388.25 240.19"/><polygon class="j" points="386.44 218.45 407.26 240.99 408.21 239.87 387.38 217.32 386.44 218.45"/><polygon class="j" points="375.79 240.19 393.43 217.51 394.57 218.26 376.93 240.95 375.79 240.19"/><polygon class="j" points="375.15 218.45 395.98 240.99 396.92 239.87 376.09 217.32 375.15 218.45"/><polygon class="j" points="364.5 240.19 382.14 217.51 383.28 218.26 365.64 240.95 364.5 240.19"/><polygon class="j" points="362.18 218.45 383 240.99 383.95 239.87 363.12 217.32 362.18 218.45"/><polygon class="j" points="351.53 240.19 369.17 217.51 370.31 218.26 352.67 240.95 351.53 240.19"/><polygon class="j" points="350.89 218.45 371.71 240.99 372.66 239.87 351.83 217.32 350.89 218.45"/><polygon class="j" points="340.24 240.19 357.88 217.51 359.02 218.26 341.38 240.95 340.24 240.19"/><polygon class="j" points="339.14 218.45 359.96 240.99 360.91 239.87 340.08 217.32 339.14 218.45"/><polygon class="j" points="328.49 240.19 346.13 217.51 347.27 218.26 329.63 240.95 328.49 240.19"/><polygon class="j" points="327.85 218.45 348.67 240.99 349.62 239.87 328.79 217.32 327.85 218.45"/><polygon class="j" points="317.19 240.19 334.83 217.51 335.98 218.26 318.34 240.95 317.19 240.19"/><polygon class="j" points="314.87 218.45 335.7 240.99 336.65 239.87 315.82 217.32 314.87 218.45"/><polygon class="j" points="304.23 240.19 321.87 217.51 323.01 218.26 305.37 240.95 304.23 240.19"/><polygon class="j" points="303.59 218.45 324.42 240.99 325.36 239.87 304.53 217.32 303.59 218.45"/><polygon class="j" points="292.94 240.19 310.58 217.51 311.72 218.26 294.08 240.95 292.94 240.19"/><polygon class="j" points="280.48 240.19 298.12 217.51 299.26 218.26 281.62 240.95 280.48 240.19"/><polygon class="j" points="279.84 218.45 300.67 240.99 301.61 239.87 280.78 217.32 279.84 218.45"/><polygon class="j" points="269.19 240.19 286.83 217.51 287.97 218.26 270.33 240.95 269.19 240.19"/><polygon class="j" points="266.87 218.45 287.69 240.99 288.64 239.87 267.81 217.32 266.87 218.45"/><polygon class="j" points="256.22 240.19 273.86 217.51 275 218.26 257.36 240.95 256.22 240.19"/><polygon class="j" points="255.58 218.45 276.4 240.99 277.35 239.87 256.52 217.32 255.58 218.45"/><polygon class="j" points="244.93 240.19 262.57 217.51 263.71 218.26 246.07 240.95 244.93 240.19"/><polygon class="j" points="232.49 218.25 638.43 219.13 638.44 217.58 232.51 216.7 232.49 218.25"/><rect class="j" x="151.19" y="204.92" width="20.9" height="55.07"/><rect class="j" x="222.6" y="216.71" width="34.33" height="21.82"/><rect class="j" x="260.17" y="217.45" width="17.17" height="21.07"/><rect class="j" x="171.34" y="215.94" width="34.34" height="22.59"/><rect class="j" x="146.83" y="229.77" width="174.04" height="12.03"/><polyline class="j" points="650.12 240.94 653.31 240.97 652.28 239.29 650.93 239.39 650.12 240.83"/><rect class="j" x="274.66" y="181.56" width="13.68" height="16.72"/><polygon class="j" points="291.88 217.12 293.18 217.03 291.59 197.93 290.29 198.02 291.88 217.12"/><polygon class="j" points="273 196.62 274.29 196.9 270.22 218.84 268.94 218.56 273 196.62"/><polygon class="j" points="278.69 217.02 279.98 216.8 275.91 198 274.63 198.22 278.69 217.02"/><polygon class="j" points="291.7 216.11 292.62 215.26 275.95 197.59 275.02 198.44 291.7 216.11"/><polygon class="j" points="271.62 218.58 270.92 217.3 291.5 199.73 292.2 201.01 271.62 218.58"/><polygon class="j" points="176.84 218.67 174.97 217.96 278.8 182.59 280.68 183.3 176.84 218.67"/><polygon class="j" points="180.18 224.94 178.31 224.23 282.14 188.86 284.02 189.57 180.18 224.94"/><polygon class="j" points="181.34 222.88 179.57 222.04 282.73 193.97 284.5 194.8 181.34 222.88"/><polygon class="j" points="291.16 204.68 291.8 203.67 275.6 196.94 274.96 197.96 291.16 204.68"/><polygon class="j" points="291.59 197.93 274 196.6 272.92 199.46 271.38 206.59 276.58 207.24 277.74 198.2 290.8 199.29 291.59 197.93"/><polygon class="j" points="1249.89 1039.24 1179.96 1075.75 1177.79 1074.13 1247.72 1037.62 1249.89 1039.24"/><polygon class="j" points="1251.56 1020.35 1181.63 1056.86 1179.45 1055.24 1249.38 1018.73 1251.56 1020.35"/><polygon class="j" points="1251.13 1008.59 1181.53 1038.45 1179.61 1036.71 1249.2 1006.86 1251.13 1008.59"/><polygon class="j" points="1251.13 997.19 1181.53 1027.04 1179.61 1025.3 1249.2 995.44 1251.13 997.19"/><polygon class="j" points="1251.13 982.35 1181.53 1012.2 1179.61 1010.46 1249.2 980.61 1251.13 982.35"/><polygon class="j" points="1251.13 968.47 1181.53 998.32 1179.61 996.59 1249.2 966.73 1251.13 968.47"/><polygon class="j" points="1251.13 954.19 1181.53 984.05 1179.61 982.31 1249.2 952.45 1251.13 954.19"/><polygon class="j" points="1251.13 941.49 1181.53 971.34 1179.61 969.61 1249.2 939.75 1251.13 941.49"/><polygon class="j" points="1250.66 927.85 1181.07 957.7 1179.14 955.96 1248.74 926.11 1250.66 927.85"/><polygon class="j" points="1250.66 916.44 1181.07 946.29 1179.14 944.55 1248.74 914.7 1250.66 916.44"/><polygon class="j" points="1250.66 901.6 1181.07 931.45 1179.14 929.72 1248.74 899.86 1250.66 901.6"/><polygon class="j" points="1250.66 887.73 1181.07 917.58 1179.14 915.84 1248.74 885.98 1250.66 887.73"/><polygon class="j" points="1250.66 873.45 1181.07 903.3 1179.14 901.56 1248.74 871.71 1250.66 873.45"/><polygon class="j" points="1250.66 860.75 1181.07 890.6 1179.14 888.86 1248.74 859 1250.66 860.75"/><polygon class="j" points="1251.3 843.6 1181.7 873.45 1179.79 871.71 1249.37 841.86 1251.3 843.6"/><polygon class="j" points="1251.65 875.6 1182.05 845.75 1180.12 847.48 1249.73 877.34 1251.65 875.6"/><polygon class="j" points="1251.65 889.47 1182.05 859.61 1180.12 861.36 1249.73 891.21 1251.65 889.47"/><polygon class="j" points="1251.65 903.75 1182.05 873.9 1180.12 875.64 1249.73 905.49 1251.65 903.75"/><polygon class="j" points="1251.65 916.45 1182.05 886.6 1180.12 888.34 1249.73 918.19 1251.65 916.45"/><polygon class="j" points="1251.18 930.1 1181.58 900.24 1179.66 901.98 1249.25 931.84 1251.18 930.1"/><polygon class="j" points="1251.18 941.5 1181.58 911.65 1179.66 913.39 1249.25 943.24 1251.18 941.5"/><polygon class="j" points="1251.18 956.34 1181.58 926.49 1179.66 928.23 1249.25 958.09 1251.18 956.34"/><polygon class="j" points="1251.18 970.22 1181.58 940.36 1179.66 942.1 1249.25 971.96 1251.18 970.22"/><polygon class="j" points="1251.18 984.49 1181.58 954.64 1179.66 956.38 1249.25 986.24 1251.18 984.49"/><polygon class="j" points="1251.18 997.2 1181.58 967.34 1179.66 969.08 1249.25 998.94 1251.18 997.2"/><polygon class="j" points="1251.82 1014.35 1182.21 984.49 1180.3 986.23 1249.89 1016.08 1251.82 1014.35"/><polygon class="j" points="1251.3 829.32 1181.7 859.17 1179.79 857.43 1249.37 827.58 1251.3 829.32"/><polygon class="j" points="1251.3 816.62 1181.7 846.47 1179.79 844.73 1249.37 814.87 1251.3 816.62"/><polygon class="j" points="1250.83 802.97 1181.23 832.83 1179.31 831.09 1248.9 801.23 1250.83 802.97"/><polygon class="j" points="1250.83 791.57 1181.23 821.42 1179.31 819.68 1248.9 789.82 1250.83 791.57"/><polygon class="j" points="1250.83 776.73 1181.23 806.58 1179.31 804.84 1248.9 774.98 1250.83 776.73"/><polygon class="j" points="1250.83 762.85 1181.23 792.71 1179.31 790.97 1248.9 761.11 1250.83 762.85"/><polygon class="j" points="1250.83 748.57 1181.23 778.43 1179.31 776.69 1248.9 746.83 1250.83 748.57"/><polygon class="j" points="1250.83 735.87 1181.23 765.73 1179.31 763.99 1248.9 734.13 1250.83 735.87"/><polygon class="j" points="1249.84 777.84 1180.24 747.99 1178.33 749.73 1247.92 779.58 1249.84 777.84"/><polygon class="j" points="1249.37 791.48 1179.79 761.63 1177.86 763.37 1247.45 793.23 1249.37 791.48"/><polygon class="j" points="1249.37 802.89 1179.79 773.04 1177.86 774.78 1247.45 804.63 1249.37 802.89"/><polygon class="j" points="1249.37 817.74 1179.79 787.88 1177.86 789.62 1247.45 819.47 1249.37 817.74"/><polygon class="j" points="1249.37 831.61 1179.79 801.75 1177.86 803.49 1247.45 833.35 1249.37 831.61"/><polygon class="j" points="1249.37 845.89 1179.79 816.03 1177.86 817.77 1247.45 847.63 1249.37 845.89"/><polygon class="j" points="1249.37 858.59 1179.79 828.73 1177.86 830.47 1247.45 860.33 1249.37 858.59"/><polygon class="j" points="1249.24 720.55 1179.64 750.4 1177.72 748.66 1247.32 718.81 1249.24 720.55"/><polygon class="j" points="1249.24 706.27 1179.64 736.12 1177.72 734.38 1247.32 704.53 1249.24 706.27"/><polygon class="j" points="1249.24 693.57 1179.64 723.42 1177.72 721.69 1247.32 691.83 1249.24 693.57"/><polygon class="j" points="1248.23 727.67 1178.63 697.81 1176.71 699.56 1246.31 729.41 1248.23 727.67"/><polygon class="j" points="1246.64 742.99 1177.05 713.14 1175.12 714.88 1244.71 744.73 1246.64 742.99"/><polygon class="j" points="1246.64 757.27 1177.05 727.41 1175.12 729.16 1244.71 759.01 1246.64 757.27"/><polygon class="j" points="1248.77 679.92 1179.17 709.78 1177.26 708.04 1246.85 678.18 1248.77 679.92"/><polygon class="j" points="1248.77 668.51 1179.17 698.37 1177.26 696.63 1246.85 666.78 1248.77 668.51"/><polygon class="j" points="1248.77 653.68 1179.17 683.53 1177.26 681.79 1246.85 651.94 1248.77 653.68"/><polygon class="j" points="1248.77 639.8 1179.17 669.66 1177.26 667.92 1246.85 638.06 1248.77 639.8"/><polygon class="j" points="1248.77 625.52 1179.17 655.38 1177.26 653.64 1246.85 623.78 1248.77 625.52"/><polygon class="j" points="1248.77 612.82 1179.17 642.68 1177.26 640.94 1246.85 611.08 1248.77 612.82"/><polygon class="j" points="1250.28 596.97 1180.67 626.83 1178.76 625.09 1248.35 595.23 1250.28 596.97"/><polygon class="j" points="1250.28 582.69 1180.67 612.55 1178.76 610.8 1248.35 580.95 1250.28 582.69"/><polygon class="j" points="1250.28 569.99 1180.67 599.85 1178.76 598.11 1248.35 568.25 1250.28 569.99"/><polygon class="j" points="1249.8 556.35 1180.21 586.2 1178.29 584.46 1247.88 554.61 1249.8 556.35"/><polygon class="j" points="1249.8 544.94 1180.21 574.79 1178.29 573.05 1247.88 543.2 1249.8 544.94"/><polygon class="j" points="1249.8 530.1 1180.21 559.95 1178.29 558.21 1247.88 528.36 1249.8 530.1"/><polygon class="j" points="1249.8 516.23 1180.21 546.08 1178.29 544.34 1247.88 514.49 1249.8 516.23"/><polygon class="j" points="1249.8 501.95 1180.21 531.8 1178.29 530.06 1247.88 500.2 1249.8 501.95"/><polygon class="j" points="1249.8 489.24 1180.21 519.1 1178.29 517.36 1247.88 487.5 1249.8 489.24"/><polygon class="j" points="1249.8 474.97 1180.21 504.82 1178.29 503.08 1247.88 473.23 1249.8 474.97"/><polygon class="j" points="1249.8 459.09 1180.21 488.95 1178.29 487.21 1247.88 457.35 1249.8 459.09"/><polygon class="j" points="1249.8 441.8 1180.21 471.65 1178.29 469.92 1247.88 440.06 1249.8 441.8"/><polygon class="j" points="1248.38 427.13 1178.78 456.98 1176.86 455.24 1246.46 425.39 1248.38 427.13"/><polygon class="j" points="1249.62 457.52 1180.03 427.67 1178.11 429.4 1247.69 459.26 1249.62 457.52"/><polygon class="j" points="1249.62 468.93 1180.03 439.07 1178.11 440.82 1247.69 470.67 1249.62 468.93"/><polygon class="j" points="1249.62 483.77 1180.03 453.91 1178.11 455.66 1247.69 485.51 1249.62 483.77"/><polygon class="j" points="1249.62 497.64 1180.03 467.78 1178.11 469.53 1247.69 499.38 1249.62 497.64"/><polygon class="j" points="1249.62 511.92 1180.03 482.06 1178.11 483.81 1247.69 513.66 1249.62 511.92"/><polygon class="j" points="1249.62 524.62 1180.03 494.77 1178.11 496.51 1247.69 526.36 1249.62 524.62"/><polygon class="j" points="1251.13 540.47 1181.53 510.62 1179.61 512.36 1249.2 542.21 1251.13 540.47"/><polygon class="j" points="1251.13 554.75 1181.53 524.9 1179.61 526.64 1249.2 556.49 1251.13 554.75"/><polygon class="j" points="1251.13 567.46 1181.53 537.6 1179.61 539.34 1249.2 569.19 1251.13 567.46"/><polygon class="j" points="1250.66 581.1 1181.06 551.24 1179.14 552.98 1248.73 582.84 1250.66 581.1"/><polygon class="j" points="1250.66 592.51 1181.06 562.65 1179.14 564.39 1248.73 594.25 1250.66 592.51"/><polygon class="j" points="1250.66 607.35 1181.06 577.49 1179.14 579.23 1248.73 609.09 1250.66 607.35"/><polygon class="j" points="1250.66 621.22 1181.06 591.36 1179.14 593.11 1248.73 622.96 1250.66 621.22"/><polygon class="j" points="1250.66 635.5 1181.06 605.64 1179.14 607.38 1248.73 637.24 1250.66 635.5"/><polygon class="j" points="1250.66 648.2 1181.06 618.34 1179.14 620.09 1248.73 649.94 1250.66 648.2"/><polygon class="j" points="1250.66 662.48 1181.06 632.62 1179.14 634.36 1248.73 664.22 1250.66 662.48"/><polygon class="j" points="1250.66 678.35 1181.06 648.5 1179.14 650.24 1248.73 680.09 1250.66 678.35"/><polygon class="j" points="1250.66 695.64 1181.06 665.79 1179.14 667.53 1248.73 697.39 1250.66 695.64"/><polygon class="j" points="1245.57 708.04 1175.97 678.18 1174.05 679.92 1243.65 709.78 1245.57 708.04"/><polygon class="j" points="1248.41 1041.44 1179.81 1010.37 1181.8 1008.66 1250.4 1039.72 1248.41 1041.44"/><polygon class="j" points="1248.57 1059.96 1246.63 432.95 1250.02 432.95 1251.94 1059.92 1248.57 1059.96"/><polygon class="j" points="1214.41 1059.96 1212.47 432.95 1215.87 432.95 1217.8 1059.92 1214.41 1059.96"/><polygon class="j" points="1179.29 1059.96 1177.36 432.95 1180.75 432.95 1182.67 1059.92 1179.29 1059.96"/><rect class="j" x="1161.75" y="376.89" width="104.75" height="65.33"/><polygon class="j" points="1265.12 381.63 629.68 382.58 629.67 380.9 1265.09 379.94 1265.12 381.63"/><polygon class="j" points="669.4 357.34 636.8 381.78 635.32 380.56 667.92 356.12 669.4 357.34"/><polygon class="j" points="651.27 357.11 629 381.75 627.25 380.78 649.52 356.13 651.27 357.11"/><polygon class="j" points="686.07 380.91 658.46 356.31 656.67 357.14 684.28 381.73 686.07 380.91"/><polygon class="j" points="687.08 357.34 654.48 381.78 653 380.56 685.6 356.12 687.08 357.34"/><polygon class="j" points="703.75 380.91 676.13 356.31 674.34 357.14 701.95 381.73 703.75 380.91"/><polygon class="j" points="707.37 357.34 674.78 381.78 673.3 380.56 705.9 356.12 707.37 357.34"/><polygon class="j" points="724.05 380.91 696.43 356.31 694.65 357.14 722.25 381.73 724.05 380.91"/><polygon class="j" points="725.05 357.34 692.45 381.78 690.97 380.56 723.57 356.12 725.05 357.34"/><polygon class="j" points="741.72 380.91 714.11 356.31 712.32 357.14 739.93 381.73 741.72 380.91"/><polygon class="j" points="744.55 357.34 711.95 381.78 710.47 380.56 743.08 356.12 744.55 357.34"/><polygon class="j" points="761.23 380.91 733.61 356.31 731.82 357.14 759.43 381.73 761.23 380.91"/><polygon class="j" points="762.23 357.34 729.63 381.78 728.14 380.56 760.75 356.12 762.23 357.34"/><polygon class="j" points="778.9 380.91 751.29 356.31 749.5 357.14 777.11 381.73 778.9 380.91"/><polygon class="j" points="782.53 357.34 749.92 381.78 748.45 380.56 781.05 356.12 782.53 357.34"/><polygon class="j" points="799.2 380.91 771.59 356.31 769.8 357.14 797.41 381.73 799.2 380.91"/><polygon class="j" points="800.21 357.34 767.6 381.78 766.12 380.56 798.72 356.12 800.21 357.34"/><polygon class="j" points="816.87 380.91 789.26 356.31 787.47 357.14 815.08 381.73 816.87 380.91"/><polygon class="j" points="818.6 357.34 786 381.78 784.52 380.56 817.12 356.12 818.6 357.34"/><polygon class="j" points="835.27 380.91 807.65 356.31 805.87 357.14 833.48 381.73 835.27 380.91"/><polygon class="j" points="836.27 357.34 803.67 381.78 802.19 380.56 834.79 356.12 836.27 357.34"/><polygon class="j" points="852.94 380.91 825.33 356.31 823.54 357.14 851.15 381.73 852.94 380.91"/><polygon class="j" points="856.57 357.34 823.97 381.78 822.49 380.56 855.1 356.12 856.57 357.34"/><polygon class="j" points="873.25 380.91 845.63 356.31 843.84 357.14 871.45 381.73 873.25 380.91"/><polygon class="j" points="874.24 357.34 841.65 381.78 840.16 380.56 872.77 356.12 874.24 357.34"/><polygon class="j" points="890.92 380.91 863.3 356.31 861.51 357.14 889.13 381.73 890.92 380.91"/><polygon class="j" points="910.42 380.91 882.81 356.31 881.02 357.14 908.63 381.73 910.42 380.91"/><polygon class="j" points="911.42 357.34 878.82 381.78 877.34 380.56 909.95 356.12 911.42 357.34"/><polygon class="j" points="928.09 380.91 900.49 356.31 898.69 357.14 926.3 381.73 928.09 380.91"/><polygon class="j" points="931.73 357.34 899.12 381.78 897.65 380.56 930.25 356.12 931.73 357.34"/><polygon class="j" points="948.4 380.91 920.79 356.31 919 357.14 946.61 381.73 948.4 380.91"/><polygon class="j" points="949.4 357.34 916.79 381.78 915.32 380.56 947.92 356.12 949.4 357.34"/><polygon class="j" points="966.07 380.91 938.46 356.31 936.66 357.14 964.28 381.73 966.07 380.91"/><polygon class="j" points="969 357.34 936.4 381.78 934.92 380.56 967.52 356.12 969 357.34"/><polygon class="j" points="985.66 380.91 958.06 356.31 956.27 357.14 983.88 381.73 985.66 380.91"/><polygon class="j" points="986.67 357.34 954.07 381.78 952.59 380.56 985.2 356.12 986.67 357.34"/><polygon class="j" points="1003.35 380.91 975.73 356.31 973.94 357.14 1001.55 381.73 1003.35 380.91"/><polygon class="j" points="1006.98 357.34 974.37 381.78 972.89 380.56 1005.5 356.12 1006.98 357.34"/><polygon class="j" points="1023.65 380.91 996.03 356.31 994.24 357.14 1021.86 381.73 1023.65 380.91"/><polygon class="j" points="1024.65 357.34 992.04 381.78 990.57 380.56 1023.17 356.12 1024.65 357.34"/><polygon class="j" points="1041.32 380.91 1013.71 356.31 1011.91 357.14 1039.53 381.73 1041.32 380.91"/><polygon class="j" points="1044.15 357.34 1011.55 381.78 1010.08 380.56 1042.68 356.12 1044.15 357.34"/><polygon class="j" points="1060.82 380.91 1033.21 356.31 1031.42 357.14 1059.04 381.73 1060.82 380.91"/><polygon class="j" points="1061.83 357.34 1029.22 381.78 1027.74 380.56 1060.35 356.12 1061.83 357.34"/><polygon class="j" points="1078.5 380.91 1050.88 356.31 1049.1 357.14 1076.71 381.73 1078.5 380.91"/><polygon class="j" points="1082.13 357.34 1049.53 381.78 1048.04 380.56 1080.65 356.12 1082.13 357.34"/><polygon class="j" points="1098.8 380.91 1071.19 356.31 1069.39 357.14 1097 381.73 1098.8 380.91"/><polygon class="j" points="1099.8 357.34 1067.2 381.78 1065.72 380.56 1098.32 356.12 1099.8 357.34"/><polygon class="j" points="1116.47 380.91 1088.86 356.31 1087.07 357.14 1114.68 381.73 1116.47 380.91"/><polygon class="j" points="1118.2 357.34 1085.59 381.78 1084.12 380.56 1116.72 356.12 1118.2 357.34"/><polygon class="j" points="1134.87 380.91 1107.25 356.31 1105.46 357.14 1133.08 381.73 1134.87 380.91"/><polygon class="j" points="1135.87 357.34 1103.27 381.78 1101.79 380.56 1134.39 356.12 1135.87 357.34"/><polygon class="j" points="1152.54 380.91 1124.93 356.31 1123.14 357.14 1150.75 381.73 1152.54 380.91"/><polygon class="j" points="1156.17 357.34 1123.57 381.78 1122.09 380.56 1154.69 356.12 1156.17 357.34"/><polygon class="j" points="1172.84 380.91 1145.23 356.31 1143.44 357.14 1171.05 381.73 1172.84 380.91"/><polygon class="j" points="1173.84 357.34 1141.24 381.78 1139.76 380.56 1172.37 356.12 1173.84 357.34"/><polygon class="j" points="1190.52 380.91 1162.9 356.31 1161.11 357.14 1188.72 381.73 1190.52 380.91"/><polygon class="j" points="1210.02 380.91 1182.4 356.31 1180.62 357.14 1208.23 381.73 1210.02 380.91"/><polygon class="j" points="1211.02 357.34 1178.42 381.78 1176.94 380.56 1209.55 356.12 1211.02 357.34"/><polygon class="j" points="1227.69 380.91 1200.08 356.31 1198.29 357.14 1225.9 381.73 1227.69 380.91"/><polygon class="j" points="1231.32 357.34 1198.72 381.78 1197.24 380.56 1229.85 356.12 1231.32 357.34"/><polygon class="j" points="1247.99 380.91 1220.38 356.31 1218.59 357.14 1246.2 381.73 1247.99 380.91"/><polygon class="j" points="1249 357.34 1216.4 381.78 1214.91 380.56 1247.52 356.12 1249 357.34"/><polygon class="j" points="1265.67 380.91 1238.05 356.31 1236.27 357.14 1263.88 381.73 1265.67 380.91"/><polygon class="j" points="1285.13 357.12 649.69 358.07 649.68 356.39 1285.1 355.44 1285.13 357.12"/><rect class="j" x="1379.69" y="342.67" width="32.72" height="59.71"/><rect class="j" x="1246.88" y="355.45" width="53.74" height="23.66"/><rect class="j" x="1214.94" y="356.25" width="26.88" height="22.85"/><rect class="j" x="1327.11" y="354.61" width="53.75" height="24.5"/><rect class="j" x="1146.78" y="369.61" width="272.45" height="13.05"/><polyline class="j" points="631.4 381.73 626.39 381.75 628.01 379.94 630.12 380.04 631.4 381.6"/><rect class="j" x="1197.7" y="317.34" width="21.42" height="18.13"/><polygon class="j" points="1192.17 355.89 1190.13 355.79 1192.62 335.08 1194.66 335.18 1192.17 355.89"/><polygon class="j" points="1221.72 333.66 1219.71 333.97 1226.08 357.76 1228.08 357.45 1221.72 333.66"/><polygon class="j" points="1212.81 355.79 1210.8 355.54 1217.16 335.16 1219.17 335.4 1212.81 355.79"/><polygon class="j" points="1192.45 354.8 1191.01 353.87 1217.11 334.72 1218.57 335.64 1192.45 354.8"/><polygon class="j" points="1223.88 357.48 1224.97 356.09 1192.76 337.04 1191.67 338.43 1223.88 357.48"/><polygon class="j" points="1372.24 357.57 1375.18 356.81 1212.64 318.45 1209.7 319.22 1372.24 357.57"/><polygon class="j" points="1367.02 364.37 1369.95 363.61 1207.42 325.25 1204.48 326.02 1367.02 364.37"/><polygon class="j" points="1365.2 362.14 1367.98 361.24 1206.49 330.79 1203.72 331.69 1365.2 362.14"/><polygon class="j" points="1193.3 342.4 1192.3 341.31 1217.65 334.01 1218.66 335.11 1193.3 342.4"/><polygon class="j" points="1192.62 335.08 1220.15 333.64 1221.85 336.75 1224.26 344.48 1216.12 345.19 1214.31 335.37 1193.86 336.56 1192.62 335.08"/><polygon class="j" points="1358.42 1056.49 1358.42 1011.22 1429.24 1011.22 1429.24 992.62 1507.85 992.62 1507.85 1051.64 1507.85 1058.1 1358.42 1056.49"/><polygon class="j" points="1483.99 1035.13 1452.32 1062.38 1451.34 1061.17 1483.01 1033.92 1483.99 1035.13"/><polygon class="j" points="1484.75 1021.03 1453.08 1048.28 1452.09 1047.07 1483.76 1019.82 1484.75 1021.03"/><polygon class="j" points="1484.55 1012.26 1453.03 1034.54 1452.16 1033.24 1483.68 1010.96 1484.55 1012.26"/><polygon class="j" points="1484.55 1003.74 1453.03 1026.02 1452.16 1024.72 1483.68 1002.44 1484.55 1003.74"/><polygon class="j" points="1484.55 992.67 1453.03 1014.95 1452.16 1013.65 1483.68 991.37 1484.55 992.67"/><polygon class="j" points="1484.55 982.31 1453.03 1004.59 1452.16 1003.3 1483.68 981.02 1484.55 982.31"/><polygon class="j" points="1484.55 971.66 1453.03 993.94 1452.16 992.64 1483.68 970.36 1484.55 971.66"/><polygon class="j" points="1484.55 962.18 1453.03 984.46 1452.16 983.16 1483.68 960.88 1484.55 962.18"/><polygon class="j" points="1484.34 952 1452.82 974.27 1451.94 972.98 1483.47 950.7 1484.34 952"/><polygon class="j" points="1484.34 943.48 1452.82 965.76 1451.94 964.46 1483.47 942.18 1484.34 943.48"/><polygon class="j" points="1484.34 932.4 1452.82 954.69 1451.94 953.39 1483.47 931.11 1484.34 932.4"/><polygon class="j" points="1484.34 922.05 1452.82 944.33 1451.94 943.03 1483.47 920.75 1484.34 922.05"/><polygon class="j" points="1484.34 911.39 1452.82 933.67 1451.94 932.38 1483.47 910.1 1484.34 911.39"/><polygon class="j" points="1484.34 901.92 1452.82 924.2 1451.94 922.9 1483.47 900.62 1484.34 901.92"/><polygon class="j" points="1484.63 889.12 1453.11 911.4 1452.24 910.1 1483.76 887.82 1484.63 889.12"/><polygon class="j" points="1484.79 913 1453.27 890.72 1452.39 892.02 1483.92 914.3 1484.79 913"/><polygon class="j" points="1484.79 923.35 1453.27 901.07 1452.39 902.37 1483.92 924.65 1484.79 923.35"/><polygon class="j" points="1484.79 934.01 1453.27 911.73 1452.39 913.03 1483.92 935.31 1484.79 934.01"/><polygon class="j" points="1484.79 943.49 1453.27 921.21 1452.39 922.51 1483.92 944.79 1484.79 943.49"/><polygon class="j" points="1484.58 953.67 1453.05 931.39 1452.18 932.69 1483.7 954.97 1484.58 953.67"/><polygon class="j" points="1484.58 962.19 1453.05 939.91 1452.18 941.21 1483.7 963.49 1484.58 962.19"/><polygon class="j" points="1484.58 973.26 1453.05 950.98 1452.18 952.28 1483.7 974.56 1484.58 973.26"/><polygon class="j" points="1484.58 983.62 1453.05 961.33 1452.18 962.63 1483.7 984.91 1484.58 983.62"/><polygon class="j" points="1484.58 994.27 1453.05 971.99 1452.18 973.29 1483.7 995.57 1484.58 994.27"/><polygon class="j" points="1484.58 1003.75 1453.05 981.47 1452.18 982.77 1483.7 1005.05 1484.58 1003.75"/><polygon class="j" points="1484.86 1016.55 1453.34 994.27 1452.47 995.56 1483.99 1017.85 1484.86 1016.55"/><polygon class="j" points="1484.63 878.46 1453.11 900.74 1452.24 899.44 1483.76 877.16 1484.63 878.46"/><polygon class="j" points="1484.63 868.99 1453.11 891.26 1452.24 889.96 1483.76 867.68 1484.63 868.99"/><polygon class="j" points="1484.42 858.8 1452.9 881.08 1452.03 879.78 1483.54 857.5 1484.42 858.8"/><polygon class="j" points="1484.42 850.29 1452.9 872.57 1452.03 871.27 1483.54 848.99 1484.42 850.29"/><polygon class="j" points="1484.42 839.21 1452.9 861.49 1452.03 860.19 1483.54 837.91 1484.42 839.21"/><polygon class="j" points="1484.42 828.86 1452.9 851.14 1452.03 849.84 1483.54 827.56 1484.42 828.86"/><polygon class="j" points="1484.42 818.2 1452.9 840.48 1452.03 839.18 1483.54 816.9 1484.42 818.2"/><polygon class="j" points="1484.42 808.72 1452.9 831 1452.03 829.7 1483.54 807.42 1484.42 808.72"/><polygon class="j" points="1483.97 840.04 1452.45 817.76 1451.58 819.06 1483.1 841.34 1483.97 840.04"/><polygon class="j" points="1483.76 850.23 1452.24 827.94 1451.37 829.25 1482.89 851.53 1483.76 850.23"/><polygon class="j" points="1483.76 858.74 1452.24 836.46 1451.37 837.76 1482.89 860.04 1483.76 858.74"/><polygon class="j" points="1483.76 869.82 1452.24 847.53 1451.37 848.83 1482.89 871.11 1483.76 869.82"/><polygon class="j" points="1483.76 880.17 1452.24 857.89 1451.37 859.19 1482.89 881.47 1483.76 880.17"/><polygon class="j" points="1483.76 890.83 1452.24 868.54 1451.37 869.84 1482.89 892.13 1483.76 890.83"/><polygon class="j" points="1483.76 900.31 1452.24 878.02 1451.37 879.32 1482.89 901.6 1483.76 900.31"/><polygon class="j" points="1483.7 797.28 1452.18 819.57 1451.3 818.27 1482.83 795.99 1483.7 797.28"/><polygon class="j" points="1483.7 786.63 1452.18 808.91 1451.3 807.61 1482.83 785.33 1483.7 786.63"/><polygon class="j" points="1483.7 777.15 1452.18 799.43 1451.3 798.13 1482.83 775.85 1483.7 777.15"/><polygon class="j" points="1483.24 802.6 1451.72 780.32 1450.85 781.62 1482.37 803.9 1483.24 802.6"/><polygon class="j" points="1482.52 814.03 1451 791.75 1450.13 793.05 1481.65 815.33 1482.52 814.03"/><polygon class="j" points="1482.52 824.69 1451 802.41 1450.13 803.71 1481.65 825.99 1482.52 824.69"/><polygon class="j" points="1483.49 766.97 1451.96 789.25 1451.09 787.95 1482.61 765.67 1483.49 766.97"/><polygon class="j" points="1483.49 758.45 1451.96 780.73 1451.09 779.43 1482.61 757.15 1483.49 758.45"/><polygon class="j" points="1483.49 747.38 1451.96 769.66 1451.09 768.36 1482.61 746.08 1483.49 747.38"/><polygon class="j" points="1483.49 737.02 1451.96 759.31 1451.09 758.01 1482.61 735.73 1483.49 737.02"/><polygon class="j" points="1483.49 726.37 1451.96 748.65 1451.09 747.35 1482.61 725.07 1483.49 726.37"/><polygon class="j" points="1483.49 716.89 1451.96 739.17 1451.09 737.87 1482.61 715.59 1483.49 716.89"/><polygon class="j" points="1484.17 705.06 1452.64 727.34 1451.78 726.04 1483.29 703.76 1484.17 705.06"/><polygon class="j" points="1484.17 694.4 1452.64 716.68 1451.78 715.38 1483.29 693.1 1484.17 694.4"/><polygon class="j" points="1484.17 684.92 1452.64 707.2 1451.78 705.9 1483.29 683.63 1484.17 684.92"/><polygon class="j" points="1483.95 674.74 1452.43 697.02 1451.56 695.72 1483.08 673.44 1483.95 674.74"/><polygon class="j" points="1483.95 666.23 1452.43 688.51 1451.56 687.21 1483.08 664.93 1483.95 666.23"/><polygon class="j" points="1483.95 655.15 1452.43 677.43 1451.56 676.13 1483.08 653.85 1483.95 655.15"/><polygon class="j" points="1483.95 644.8 1452.43 667.08 1451.56 665.78 1483.08 643.5 1483.95 644.8"/><polygon class="j" points="1483.95 634.14 1452.43 656.42 1451.56 655.12 1483.08 632.84 1483.95 634.14"/><polygon class="j" points="1483.95 624.66 1452.43 646.94 1451.56 645.64 1483.08 623.36 1483.95 624.66"/><polygon class="j" points="1483.95 614 1452.43 636.29 1451.56 634.99 1483.08 612.71 1483.95 614"/><polygon class="j" points="1483.95 602.16 1452.43 624.44 1451.56 623.14 1483.08 600.86 1483.95 602.16"/><polygon class="j" points="1483.95 589.25 1452.43 611.53 1451.56 610.23 1483.08 587.96 1483.95 589.25"/><polygon class="j" points="1483.31 578.3 1451.79 600.59 1450.92 599.29 1482.43 577 1483.31 578.3"/><polygon class="j" points="1483.87 600.99 1452.35 578.71 1451.48 580 1483 602.28 1483.87 600.99"/><polygon class="j" points="1483.87 609.5 1452.35 587.22 1451.48 588.52 1483 610.8 1483.87 609.5"/><polygon class="j" points="1483.87 620.57 1452.35 598.29 1451.48 599.59 1483 621.87 1483.87 620.57"/><polygon class="j" points="1483.87 630.93 1452.35 608.65 1451.48 609.95 1483 632.23 1483.87 630.93"/><polygon class="j" points="1483.87 641.59 1452.35 619.3 1451.48 620.61 1483 642.89 1483.87 641.59"/><polygon class="j" points="1483.87 651.06 1452.35 628.78 1451.48 630.08 1483 652.36 1483.87 651.06"/><polygon class="j" points="1484.55 662.89 1453.03 640.61 1452.16 641.91 1483.68 664.19 1484.55 662.89"/><polygon class="j" points="1484.55 673.55 1453.03 651.27 1452.16 652.57 1483.68 674.85 1484.55 673.55"/><polygon class="j" points="1484.55 683.03 1453.03 660.75 1452.16 662.05 1483.68 684.33 1484.55 683.03"/><polygon class="j" points="1484.34 693.21 1452.82 670.93 1451.94 672.23 1483.47 694.51 1484.34 693.21"/><polygon class="j" points="1484.34 701.73 1452.82 679.45 1451.94 680.74 1483.47 703.02 1484.34 701.73"/><polygon class="j" points="1484.34 712.8 1452.82 690.52 1451.94 691.82 1483.47 714.1 1484.34 712.8"/><polygon class="j" points="1484.34 723.15 1452.82 700.87 1451.94 702.17 1483.47 724.45 1484.34 723.15"/><polygon class="j" points="1484.34 733.81 1452.82 711.53 1451.94 712.83 1483.47 735.11 1484.34 733.81"/><polygon class="j" points="1484.34 743.29 1452.82 721.01 1451.94 722.31 1483.47 744.59 1484.34 743.29"/><polygon class="j" points="1484.34 753.94 1452.82 731.66 1451.94 732.96 1483.47 755.25 1484.34 753.94"/><polygon class="j" points="1484.34 765.79 1452.82 743.51 1451.94 744.81 1483.47 767.09 1484.34 765.79"/><polygon class="j" points="1484.34 778.7 1452.82 756.42 1451.94 757.72 1483.47 780 1484.34 778.7"/><polygon class="j" points="1482.04 787.95 1450.51 765.67 1449.64 766.97 1481.16 789.25 1482.04 787.95"/><polygon class="j" points="1483.32 1036.77 1452.25 1013.58 1453.15 1012.31 1484.22 1035.49 1483.32 1036.77"/><polygon class="j" points="1483.39 1050.59 1482.52 582.65 1484.05 582.65 1484.92 1050.56 1483.39 1050.59"/><polygon class="j" points="1467.92 1050.59 1467.05 582.65 1468.58 582.65 1469.46 1050.56 1467.92 1050.59"/><polygon class="j" points="1452.02 1050.59 1451.14 582.65 1452.67 582.65 1453.55 1050.56 1452.02 1050.59"/><rect class="j" x="1444.07" y="540.81" width="47.44" height="48.76"/><polygon class="j" points="1560.49 542.66 1055.53 543.92 1055.52 541.71 1560.46 540.46 1560.49 542.66"/><polygon class="j" points="1087.1 510.85 1061.19 542.86 1060.01 541.27 1085.92 509.26 1087.1 510.85"/><polygon class="j" points="1072.69 510.56 1054.99 542.82 1053.6 541.55 1071.3 509.28 1072.69 510.56"/><polygon class="j" points="1100.34 541.72 1078.4 509.52 1076.98 510.59 1098.92 542.8 1100.34 541.72"/><polygon class="j" points="1101.14 510.85 1075.23 542.86 1074.06 541.27 1099.97 509.26 1101.14 510.85"/><polygon class="j" points="1114.39 541.72 1092.44 509.52 1091.02 510.59 1112.96 542.8 1114.39 541.72"/><polygon class="j" points="1117.27 510.85 1091.37 542.86 1090.19 541.27 1116.1 509.26 1117.27 510.85"/><polygon class="j" points="1130.52 541.72 1108.58 509.52 1107.16 510.59 1129.1 542.8 1130.52 541.72"/><polygon class="j" points="1131.32 510.85 1105.41 542.86 1104.24 541.27 1130.14 509.26 1131.32 510.85"/><polygon class="j" points="1144.57 541.72 1122.62 509.52 1121.2 510.59 1143.14 542.8 1144.57 541.72"/><polygon class="j" points="1146.82 510.85 1120.91 542.86 1119.73 541.27 1145.64 509.26 1146.82 510.85"/><polygon class="j" points="1160.07 541.72 1138.12 509.52 1136.7 510.59 1158.64 542.8 1160.07 541.72"/><polygon class="j" points="1160.86 510.85 1134.96 542.86 1133.78 541.27 1159.69 509.26 1160.86 510.85"/><polygon class="j" points="1174.11 541.72 1152.17 509.52 1150.74 510.59 1172.69 542.8 1174.11 541.72"/><polygon class="j" points="1176.99 510.85 1151.08 542.86 1149.91 541.27 1175.82 509.26 1176.99 510.85"/><polygon class="j" points="1190.24 541.72 1168.3 509.52 1166.88 510.59 1188.82 542.8 1190.24 541.72"/><polygon class="j" points="1191.04 510.85 1165.13 542.86 1163.96 541.27 1189.87 509.26 1191.04 510.85"/><polygon class="j" points="1204.29 541.72 1182.35 509.52 1180.92 510.59 1202.86 542.8 1204.29 541.72"/><polygon class="j" points="1205.66 510.85 1179.75 542.86 1178.57 541.27 1204.48 509.26 1205.66 510.85"/><polygon class="j" points="1218.91 541.72 1196.96 509.52 1195.54 510.59 1217.48 542.8 1218.91 541.72"/><polygon class="j" points="1219.7 510.85 1193.79 542.86 1192.62 541.27 1218.53 509.26 1219.7 510.85"/><polygon class="j" points="1232.95 541.72 1211.01 509.52 1209.58 510.59 1231.53 542.8 1232.95 541.72"/><polygon class="j" points="1235.83 510.85 1209.93 542.86 1208.75 541.27 1234.66 509.26 1235.83 510.85"/><polygon class="j" points="1249.09 541.72 1227.14 509.52 1225.72 510.59 1247.66 542.8 1249.09 541.72"/><polygon class="j" points="1249.88 510.85 1223.97 542.86 1222.8 541.27 1248.7 509.26 1249.88 510.85"/><polygon class="j" points="1263.13 541.72 1241.18 509.52 1239.76 510.59 1261.7 542.8 1263.13 541.72"/><polygon class="j" points="1278.63 541.72 1256.68 509.52 1255.26 510.59 1277.2 542.8 1278.63 541.72"/><polygon class="j" points="1279.42 510.85 1253.52 542.86 1252.34 541.27 1278.25 509.26 1279.42 510.85"/><polygon class="j" points="1292.67 541.72 1270.73 509.52 1269.3 510.59 1291.24 542.8 1292.67 541.72"/><polygon class="j" points="1295.56 510.85 1269.65 542.86 1268.47 541.27 1294.38 509.26 1295.56 510.85"/><polygon class="j" points="1308.81 541.72 1286.86 509.52 1285.44 510.59 1307.38 542.8 1308.81 541.72"/><polygon class="j" points="1309.6 510.85 1283.69 542.86 1282.52 541.27 1308.42 509.26 1309.6 510.85"/><polygon class="j" points="1322.85 541.72 1300.9 509.52 1299.48 510.59 1321.42 542.8 1322.85 541.72"/><polygon class="j" points="1325.17 510.85 1299.27 542.86 1298.09 541.27 1324 509.26 1325.17 510.85"/><polygon class="j" points="1338.42 541.72 1316.48 509.52 1315.06 510.59 1337 542.8 1338.42 541.72"/><polygon class="j" points="1339.22 510.85 1313.31 542.86 1312.14 541.27 1338.05 509.26 1339.22 510.85"/><polygon class="j" points="1352.47 541.72 1330.53 509.52 1329.1 510.59 1351.04 542.8 1352.47 541.72"/><polygon class="j" points="1355.36 510.85 1329.44 542.86 1328.27 541.27 1354.18 509.26 1355.36 510.85"/><polygon class="j" points="1368.6 541.72 1346.66 509.52 1345.23 510.59 1367.18 542.8 1368.6 541.72"/><polygon class="j" points="1369.39 510.85 1343.48 542.86 1342.31 541.27 1368.22 509.26 1369.39 510.85"/><polygon class="j" points="1382.65 541.72 1360.7 509.52 1359.28 510.59 1381.22 542.8 1382.65 541.72"/><polygon class="j" points="1384.9 510.85 1358.99 542.86 1357.82 541.27 1383.72 509.26 1384.9 510.85"/><polygon class="j" points="1398.15 541.72 1376.2 509.52 1374.78 510.59 1396.72 542.8 1398.15 541.72"/><polygon class="j" points="1398.94 510.85 1373.03 542.86 1371.86 541.27 1397.77 509.26 1398.94 510.85"/><polygon class="j" points="1412.19 541.72 1390.24 509.52 1388.82 510.59 1410.77 542.8 1412.19 541.72"/><polygon class="j" points="1415.07 510.85 1389.17 542.86 1387.99 541.27 1413.9 509.26 1415.07 510.85"/><polygon class="j" points="1428.32 541.72 1406.38 509.52 1404.95 510.59 1426.9 542.8 1428.32 541.72"/><polygon class="j" points="1429.12 510.85 1403.21 542.86 1402.03 541.27 1427.94 509.26 1429.12 510.85"/><polygon class="j" points="1442.37 541.72 1420.42 509.52 1419 510.59 1440.94 542.8 1442.37 541.72"/><polygon class="j" points="1443.74 510.85 1417.83 542.86 1416.65 541.27 1442.56 509.26 1443.74 510.85"/><polygon class="j" points="1456.99 541.72 1435.04 509.52 1433.62 510.59 1455.56 542.8 1456.99 541.72"/><polygon class="j" points="1457.78 510.85 1431.87 542.86 1430.7 541.27 1456.61 509.26 1457.78 510.85"/><polygon class="j" points="1471.03 541.72 1449.09 509.52 1447.66 510.59 1469.6 542.8 1471.03 541.72"/><polygon class="j" points="1473.92 510.85 1448.01 542.86 1446.83 541.27 1472.74 509.26 1473.92 510.85"/><polygon class="j" points="1487.16 541.72 1465.22 509.52 1463.8 510.59 1485.74 542.8 1487.16 541.72"/><polygon class="j" points="1487.96 510.85 1462.05 542.86 1460.87 541.27 1486.79 509.26 1487.96 510.85"/><polygon class="j" points="1501.21 541.72 1479.26 509.52 1477.84 510.59 1499.78 542.8 1501.21 541.72"/><polygon class="j" points="1516.7 541.72 1494.76 509.52 1493.34 510.59 1515.28 542.8 1516.7 541.72"/><polygon class="j" points="1517.5 510.85 1491.59 542.86 1490.42 541.27 1516.33 509.26 1517.5 510.85"/><polygon class="j" points="1530.75 541.72 1508.81 509.52 1507.38 510.59 1529.33 542.8 1530.75 541.72"/><polygon class="j" points="1533.63 510.85 1507.73 542.86 1506.55 541.27 1532.46 509.26 1533.63 510.85"/><polygon class="j" points="1546.88 541.72 1524.94 509.52 1523.52 510.59 1545.46 542.8 1546.88 541.72"/><polygon class="j" points="1547.68 510.85 1521.77 542.86 1520.6 541.27 1546.5 509.26 1547.68 510.85"/><polygon class="j" points="1560.93 541.72 1538.98 509.52 1537.57 510.59 1559.5 542.8 1560.93 541.72"/><polygon class="j" points="1576.39 510.56 1071.43 511.82 1071.42 509.61 1576.37 508.36 1576.39 510.56"/><rect class="j" x="1651.53" y="491.64" width="26" height="78.19"/><rect class="j" x="1545.99" y="508.38" width="42.71" height="30.98"/><rect class="j" x="1520.61" y="509.44" width="21.36" height="29.92"/><rect class="j" x="1609.75" y="507.28" width="42.71" height="32.08"/><rect class="j" x="1466.45" y="526.93" width="216.5" height="17.09"/><polyline class="j" points="1056.89 542.79 1052.92 542.82 1054.21 540.45 1055.88 540.59 1056.89 542.63"/><rect class="j" x="1454.74" y="441.71" width="22.45" height="31.31"/><polygon class="j" points="1448.95 509.54 1446.81 509.38 1449.41 472.36 1451.55 472.52 1448.95 509.54"/><polygon class="j" points="1479.92 469.9 1477.81 470.44 1484.96 510 1486.59 510.99 1479.92 469.9"/><polygon class="j" points="1470.58 509.8 1468.47 509.38 1475.14 472.49 1477.25 472.9 1470.58 509.8"/><polygon class="j" points="1449.24 506.41 1447.72 504.81 1475.09 471.73 1476.61 473.32 1449.24 506.41"/><polygon class="j" points="1481.65 510.43 1483.33 508.64 1449.56 475.74 1448.42 478.13 1481.65 510.43"/><polygon class="j" points="1637.69 511.2 1640.77 509.88 1470.4 443.63 1467.32 444.96 1637.69 511.2"/><polygon class="j" points="1632.22 522.94 1635.29 521.62 1464.92 455.38 1461.85 456.7 1632.22 522.94"/><polygon class="j" points="1630.32 519.08 1633.22 517.52 1463.96 464.94 1461.05 466.5 1630.32 519.08"/><polygon class="j" points="1450.12 485 1449.08 483.11 1475.66 470.51 1476.71 472.41 1450.12 485"/><polygon class="j" points="1449.41 472.36 1478.27 469.87 1480.05 475.23 1482.58 488.59 1474.05 489.81 1472.14 472.86 1450.71 474.91 1449.41 472.36"/><rect class="i" x="159.61" y="1047.09" width="1501.85" height="65.47"/><path class="k" d="M701.71,923.31a34.42,34.42,0,1,1-30.15-38.23A34.43,34.43,0,0,1,701.71,923.31Z" transform="translate(211.16 97.75)"/><path class="k" d="M581,920.27a39.76,39.76,0,1,1-34.81-44.15A39.75,39.75,0,0,1,581,920.27Z" transform="translate(211.16 97.75)"/><path class="k" d="M769,823.93l-9.14-2.55s-8.74,14.75-13.87,15.45-22.32-30.71-22.32-30.71-.42-.54-7.51,5-.49,17.85-.49,17.85l-8.43,6.65c-8,1.33-10.59-1.25-10.59-1.25l-2.33,1.83c-1.17.92-40.08,7.31-41.21,7.18l-2.4-.29-3.41,2.69,5.07,3.85-18,12.85-17.28-1.07-7.91-33.64c-.64-2.84,2-1.55,2-1.55,3-2.34.93-7.87.93-7.87s-.71-.9-6.59.69-1.71,14.44-1.71,14.44l-1.76-.21-3.69-10.11,1.44.17.18-5.68-18.37-2.17c.72-.57-1.06-1.35-1.06-1.35s-18.55,1.39-21.6,1-1.79,1.41-1.79,1.41l-27.36,3,.3,5.72,1.92.23-5.89,38.85-9.69,2.11-11,8.63L505,863.38s2-1.59,2.14-2.63-3.47-4.4-3.47-4.4-9.38-23.89-11-28.15S490.5,826,490.5,826l-8.17-21,.38-3.29-4.17-5.3-6.85,1.47L448.81,840.1l-4.08,1.47a59,59,0,0,0-2.65,5.87c-.75,2.19-8.76,5.31-10.41,8.21s-1.84,15.56-1.84,15.56l-25.14,46.17-6.6,3.45,6.18,20,1.52-1.2c1.28,1.62,4.78,3.66,4.78,3.66,17.81,2.1,19-3.21,22.15-5.68s6.39-18.28,6.39-18.28l2.34-4.61-15.26,10.73-16,3-2.2-2.79,1.08-.84,29.39-50.47,3.13.37L470,834.63l2.77,1.3s17.45,70.58,18.72,80.49,4.12,7.81,4.12,7.81l9-.4,19-31.6,33.59-6.11,18,32.07L591,929.65l17.51-.86,1.8-1.42,9.16-.38,3.23-2.55,17.27-.23,2.27-12.08L660,894.19l30.63,3.62a110.68,110.68,0,0,0,3.64-15.68c.76-6.41-3.42-8.21-3.42-8.21-11.5-4.61-38.61-9.28-38.61-9.28l11.06-6.83c23.48,6.52,63.44-5.35,63.44-5.35,11.23,8.32,18.41,4,22.53,2.17s3.48-7.4,3.48-7.4C765.13,838.77,769,823.93,769,823.93Zm-276.33,29.6L477,824.24l2-2.69,1.85-10.09L487,826.94c-1,.75-.37,3.1-.37,3.1l10,24.72Zm3.61,53.79.21-29.84,1.22-2.32-.4,28.3Zm3.64-.43.24-34.14,1.4-2.66-.46,32.38Zm45.9-47.84-14.9.84,7.29-35.58,11.73-.08ZM601.6,885.5l-4.87.64-20.31-25.75-25.16-.53,4.21-35.63.06-.48,36.85-.63,7.1,25.73-4.49-.53c-3-.36-1.8,3.7-1.8,3.7a6.43,6.43,0,0,1-2,5.72l-3.89-5.42-.92.73-1.44-2.8,1.53-1.2c3.32-2.43,4.5-4.08,2.65-5.87s-11.72,7.34-12.2,7.29-2.69,2.12-.51,3.41,6.74-2.4,6.74-2.4l2,2.48-1,.78,3.38,4.27.45-.35,1.46,1.85L588,861.6c-2,3.5,14.07,20,14.07,20Zm5.71-24.22-4-24.24,1.86.14,5.16,24.45Zm90.31-17.15s-10.81.59-22.52,1.89-15.42-.35-15.42-.35l37.44-6.32,3.72,2.23Zm15-1-3.31-1.53,1.85-2,6.23.33,2.09,2.65Zm1.88-6.94,3.47-2.74c.18,1,2.67,2.6,2.67,2.6Z" transform="translate(211.16 97.75)"/><path class="l" d="M1454.9,722.37c-2.23-8.79-1.61-12.14-1.61-17s.87-11.27.87-14.49-3.29-3.28-1.86-4.7,3.1-3,.12-8.3-2-4.08-2-7.8a77.11,77.11,0,0,0-.74-12.14c-.75-5.44-.62-13.12-1.24-15.84a105.21,105.21,0,0,0-4.33-12.88c-1.12-2.36-4.71-12.88-4.71-14.37s1.86-7.18,1.86-9.9a48.31,48.31,0,0,0-2.36-16c-2.35-6.81-12.63-8.54-12.63-8.54a5.44,5.44,0,0,0-1.36-3.47c-1.36-1.36-2.85,0-7.06,0s-46.74-11.45-46.74-11.45-1.55-1.55-4.77-10-7.55-5.7-7.55-5.7a19.61,19.61,0,0,1-1.12-5.07v-9.17c0-1.49,3.1-10.52,2.48-13.25s-1-8.91.62-13.12-1.24-13.13-2.72-18.08-2.54-7-6.45-10.9-26-10.53-32.44-9.16-11,5.45-25.76,15-15.41,25.32-13.74,27,7.31,0,7.93.62,0,7.19,1,9.91.74,7.68.74,7.68c-6.32,0-4.09,5.2-4.09,5.2,2.73,9.78,9.29,9.29,9.29,9.29,1.55,1.54,1.24,3.46.62,6.81s3.84,2,3.84,2a9.27,9.27,0,0,0,2.85,8c3.77,3.77,7.18,11.51,7.18,11.51h-28c-4.7,0-9.16,1.24-17.33,4.71S1256.28,591,1253.55,591s-3.22,0-7.43,1.86-6.44,0-9.66-1.11-7.8,1.11-12.63-.25-3-6.44-4.46-7.93,0-6.44,2.73-9.16,5.69-13.87,5.69-20.8,3.91-17.65,4.83-18.58,0-6.31,0-6.31.75-6.2,7.56-10.16,9.53-9.53,10.28-12.75,4.33-19.07,4.33-19.07l4.71-3.09,1,1L1290,468.15l13,1,2.11,2.1,18.2-5.7.25-2.35,7.43-3.34-5.08-13.62,9.53-6.69s-.62-2.72-1.36-3.47-2.23.75-2.23.75-1.24-2.73-3.34-2.73-4.34-2.35-4.34-2.35-13.25-23.53-40.49-20.06-35.54,25.26-35.54,28.48-.86,21.67,2.23,29.72-1,8.79-1,8.79-3.71.13-7.43.13-5.2,2.22-7.43,2.22-5.2,2.23-13.37,6-9.91,18.57-9.91,23-2.1,8.42-2.1,10.27-3.72,3.72-6.32,6.32-11.89,6.19-11.89,8.92,0,12.63-2.22,17.58S1175,596.93,1175,610.3s11.89,14.86,20.31,19.07,39.13,13.13,44.09,13.13,26.25,11.88,26.25,11.88a83.58,83.58,0,0,1-3.47,19.32c-3,8.92-3,36.66-3,48.54v30.22s4.46,27.24-5,53.49,13.49,20.19,13.49,20.19-3.34,12.13-5.2,19.68a130.05,130.05,0,0,0-4,38.39c.74,18.33-2.35,50.77.37,63.65s.87,39.87,4.09,50.64,1.24,29.85,3.46,46.19,1,20.19.38,34.8-3.84,22.66-3,26.25,8.3,5.57,8.3,6.94a4.72,4.72,0,0,1-1.49,4.08c-1.54,1.55-9.1,12.2-11.64,14.74s-2.72,4.46-3.83,5.57l-2.85,2.85c-1,1-4.83,1.73-8.55,1.73s-3.71,1-5,2.23-8.17.62-10.28,1.36-9.66,0-12.75,5.58,11,7,14.61,7,60.92,5.58,70.71,5.58,54.91-.68,55.47-1.24,11.4-3.72,11.4-3.72-2.73-9.29-2.73-13.74.74-4,.74-5.57,1.12-4.71,1.12-8.3,1.85-5.08,1.85-6.56-1.11-2.73-3-6,0-2.1,1.24-3.34,1.11-3.34,3.59-10.16,7.68-18.69,7.68-23.77,2.72-10,4.09-18.7,1.73-14,3.09-20.8,2.48-25.76,2.48-26.63,1.61-26.37,1.61-33.06a124.62,124.62,0,0,1,1.36-21.17c1.24-7.18,1.86-13.25,1.86-13.25l48.17-44.7s-2.73-43.72-2.73-45.33a8.32,8.32,0,0,1,2.11-5.32c1.36-1.36,5.57-8,6.19-10s1.49-3.22,2.35-6.94-1.11-8.42-1.11-8.42,3,0,4-1,0-5.32-1.73-11,.74-15.24,2.6-25,3.59-17.59,3.59-19.44V750C1456.51,743.66,1457.13,731.16,1454.9,722.37ZM1335.53,1075.9c0,4-3.22,10.15-8.42,15.35s-9.42,29.23-9.42,29.23c0-7.43,5-20.29,1-24.27s0-21.3,3.46-31.7,0-49,0-63.4-3.46-12.88-3.46-20.31,10.89-42.1,10.89-42.1v9.41c0,9.41,3,17.33,3,27.24s0,19.32,3,22.29S1335.53,1071.94,1335.53,1075.9Z" transform="translate(211.16 97.75)"/><path class="l" d="M1149.46,520.88s20.2-9.68,11.36-14.09c0,0-8.21-3.16-10.31-3.16,0,0,1.68-5.06-5.9-8,0,0-1.89-21.68-23.36-30.31,0,0-4.42-5.48-15.16-3.38,0,0-4.42-2.73-12.84,1.9,0,0-7,1.05-10.32,4.42,0,0-11.78-2.11-21.26,27.37,0,0-2.52,12-2.52,15.15,0,0-11.16,9.26-3.37,22.11,0,0,7.79,6.31,11.16,7.37,0,0,5.89,11.15,4.84,23.57s-1.06,8.21-1.06,8.21l-10.1.21a6.87,6.87,0,0,0-4.53,4.53c-1.15,3.68-7.89,17.57-7.89,17.57s-1.37,1.58-.21,2.74-5-.21-8.84,3.58-18.1,11.58-23,16.42-4.83,2.32-9.68,9.68-12.63,15.16-15.15,20.42-5.48,12.84-5.48,17.47,1.47,9.05,1.47,11.58,1.9,2.52,1.9,6.74-3,38.94-3,50.09v20c0,9.26,1.27,20.64,4,26.32s11.79,13.47,20.21,14.73,15.79,4.63,23.79,4.63c0,0-1.06,6.32,1.26,8.63s3.16,2.53,2.32,5.48-7.59,19.57-8.43,25-3.36,15.57-3.36,21.05-1.69,11.58-.42,18.31-.22,7.79,2.31,10.32,4,.84,4,6.94,3.58,7.37,1.26,13.47-5.47,8-5.47,12.63.21,13.9,3.79,20.84,3,6.11,3,12.21-7.37,19-6.32,33.05,4,24.42,1,27.37-6.31,12.63-8.2,19.37-4.43,22.94-4.43,38.1.85,55.36,2.75,62.1.62,29.47-1.9,33.89-6.1,4-6.1,7.15,8.2,6.32,9,10.32,2.1,3.16,2.1,7.58-2.1,8.84-1,12.42,4.52,7,4.52,7a5.78,5.78,0,0,1,5.37,3.89c1.48,4,1.16,13.58,6.11,18.53s21.47,14.94,30.94,14.94,22.31-2.94,19.79-10.31-6.21-21.37-12.63-27.79-6.42-9.89-6.42-12.63v-7.16a7.35,7.35,0,0,1,2.68-6c1.37-1.37,3.74-2.79,3.74-5.74s-.64-5.47-6.32-8.42-5.26-7.36-2.73-12.63,3.36-11.58,3.36-23.36-3.79-27.79-1.05-32.63,1.47-19.78,1.47-26.94,1.48-7.37,4.22-16,1.26-10.11,2.73-14.11,9-10.94,9-14.1c0,0-.42,11.16-2.1,25s-3.79,32.42-3.79,46.52-2.11,21.68,0,25.68,6.31,2.11,7.79,9.68-2.32,10.11-2.32,15.16,1.69,5.69.84,8.63-.84,9.9-.84,11.16.21,7.79.21,7.79,11,8.84,32.21,6.31v-2.94s16.63,2.31,23.15,6.31,29.06,11.79,46.11,7.37,13.47-10.31,11.78-12,1.27-5.47-8.1-8.1-28.31-12.11-30.84-14.63-3.47-6.21-5.26-8-1.79-3-1.79-3-3.06-8.84-5.16-10.94-2.52,2.52-3.36-.85,3.78-7.37,4.83-11.15-.2-10.74-1.26-16.21a65.31,65.31,0,0,1-1.05-13c0-3.16,3.16-16.63-1.48-27.79s-3.57-17.26-3.57-24.63v-15.57c0-1.69,7.16-3.37,9.68-22.32s3.79-39.79,5.89-48.63.85-33.05,6.11-42.94,3.37-22.94,3.37-28.63-1.47-25-2.53-32.21-.63-4.21-3.16-12.42-1.05-14.31-2.52-18.31.21-24.42-.63-25.26a2,2,0,0,1,1.68-3.37c2.74,0,19.79,2.32,19.79,2.32s1.68,2.1,8.84-1,100.83-33.69,100.83-33.69,4.21-.84,0-2.52-18.32-3.58-18.32-3.58.42-1.9-1.89-1.9-25.47-5-25.47-5v-4.63c0-1.26,3.16-4.42,1-6.52s-9-6.11-13.26-6.11a26,26,0,0,0-8.42,1.69l-1-16.84h-4.42l1.68,18.52s-6.53,3.15-10.52,3.15-11,.43-15.79-2.1-8.74-7.47-10.53-9.26-3.58-9.26-7.15-12.84a35.5,35.5,0,0,1-8.21-14.1c-1.27-4.64-.63-13.06-4.63-23s-2.32-15-2.32-21.26-3.37-25.89-7.15-31.58-7.8-11.79-11.8-13.68-7.78-4-8.73-6.63-7.9-9.58-10.11-11.79l-5.68-5.68s-.74-8.63,8.63-8.63,11-6.42,11-10,3.58-9.68,6.11-16.84.63-9,.63-15.37,3.16-8.84,3.16-12.63S1148.29,519.73,1149.46,520.88Z" transform="translate(211.16 97.75)"/><path class="l" d="M-31.16,1180.33c3.7,2.09,10.47,3.7,15.14-7.42s51.29-120.39,51.29-120.39L64,979.28s4.47,1.21,5.92-2.41c0,0,3.32,1.75,4.47.6s-3-6.28-3-6.28l1.93-5.32s1.69-1.57-1.57-1.57l103-262.5s4.35.8,5.08.8.2,2.46,2.86,2.46v1.21s-1.63.72-1.63,1.63v5.86s-.61,2.27,2.26,2.27L208,936.82s-4.84,1.61-4.84,5.32l-6.92.81s-3.63.64-3.63,3.62,5.08,3,5.08,3l5.64-1s1.51,5.68,3.14,5.68c0,0,.54,3.51,9.73,3.51l19,177.1,3.43,30,22.57-.32-6.34-55.74,5.8-10.31L258.3,1096h-4.68l-11-104.26h5.81L280,1168.6l14.5-2.58,4.35-4.35-27.45-149.92-5.16-21.91,6.45-1.93v-2.26l7.41-2.26,3.22-6.12-1.77-1.77-7.57,2.09-3.71-3.71h-1.77L222.36,725.24l-6.12-26.1H214l.08-2.18h5.72l1.29-2.82V681.89l-3.22-2.09L208.18,678V674.8l10.64-1.29,1.45-1.45v-6.44l-2.1-.81h-7.9l-1-1V659l3.26-3.26h4.87l1-2.38-4.83-14.82-3.06-6.61v-6.12l-5-3.07v-11.6l14.22,2.66s1.57-3.51,1.57-11.24-1.21-11-1.21-11h-7.73v.73h-3s-.73-14.38-6.29-16.08-5.56-1-5.56-1-.48-10.64-5.31-12.09c0,0-5.44.85-6.05,12.09h-5.68s-8.46,2.29-9.54,17.52c0,.3-.05.57-.07.85h.07s-1.05,13.8-.07,0H166.6l-.36,3h-2.41v1h-2.42v8h2.78v1h2.18v3.26h9.42l.24,16.32h-1.21v-1.57h-4.95v1.81h-1.45v-.6H166.6v6l2.06.24s-3.5,5.8-4.71,8.58-2.54,6.65.72,12.21,6.77,5.56,6.77,5.56v4.47l-4.35,2s-3.87-1.21-3.87,1.33v4.47h-1.93v1.21s-3.39,0-3.39,1.69.12,3.63,3.63,3.63l.72,5.2,1.7.6-.12,8-30.34,75.29L57.67,958.09s-1.29-1.45-2.26,1.29-4.5,11.2-4.5,11.2-1.7,1.94,1.61,3L-31.65,1170.5S-34.87,1178.23-31.16,1180.33ZM214.62,786.48,201,717.67l4.91.8Zm-22.33-70.91h.82l17,88.47h8L235,938.68l-18.85-1.45L192.29,716.4Z" transform="translate(211.16 97.75)"/><path class="l" d="M140.86,577.81S132.4,566,126.11,563.06c0,0,2.06-7.61,0-9.67s-3.86-12.81-6.77-12.81c0,0-17.16-21.75-57.28-12.81,0,0-24.18,6.77-27.56,33.84s-1.21,18.13-1.21,18.13,3.63,1,3.63,3.62v4.11c0,1.69-3.51,5.2-3.51,5.2s-14.62-5-22.84.12S-43.25,627.27-61,648.55s-44.79,48-60.26,71.86-21.92,36.75-23.85,38.68l-3.22,3.22,1.61,1.29s-21.27,48-22.89,62.53S-171.2,848-171.2,848s20.95,4.19,22.24,5.48,6.12,12.89,10.64,22.88,7.25,19.5,12.89,25.14,5.64-.65,5.64,9.34,10.15,22.56,10.15,31.59,4.83,9.67,9.67,18.69,8.38,14.83,8.38,19.34,6.44,5.48,1.29,10.63-27.72,28-31.91,39.33-4.83,12.88-11.28,24.49-29.81,33.68-32.87,36.74-10,7.41-10,14.5,1.61,9.67,0,11.28l-7.09,7.09c-4.51,4.51-5.8,1.94-9.35,9.35a45.35,45.35,0,0,1-10.31,14.18c-3.39,3.38-7.41,3.22-7.41,11.92s-1.46,14.35,0,15.8,23.52,1,37.06,4.51,76.06-4.84,84.11-4.84,15.63-3.87,15.63-7.57-.48-20.14-22.07-17.56-28.68-10-28.68-10l1.61-6.12s17.4-14.18,24.49-21.27,25.46-36.1,31.26-41.9,12.89-17.72,15.47-23.52,7.74-17.08,9.67-19,5.16-7.74,5.16-7.74,1.61,6.13,1.61,9.68,1.61,15.14,1.61,25.13,2.9,25.79,2.9,31.91,2.9,10.31,2.9,15.15S-31,1112-31,1115.54s3.54,11,3.54,12.25-3.38,4.67-6.12,7.41-1.93,9.67-1.93,9.67-1.29,11.6,2.89,15.79,9.67,6.12,16.12,6.12h77c6.77,0,35.13-6.12,35.13-6.12s-.48-14.67-8.7-15.79-18-.65-23.2-2.91-20.79-1.45-23.53-4.19-9.34-19.65-9.34-22.88,5.15-9,5.15-15.14,10-46.41,6.77-63.17-6.45-23.21-6.45-28,2.58-3.87,5.16-13.21,9.67-28.05,8.06-38.68S41.51,937,41.51,934.09s-2.58-12.89-5.8-20.3-18-27.4-20.63-33.84-8.7-21-10.31-22.56-11.28-13.22-14.18-21.6S-9.89,825-9.89,825s4.83,2.9,6.28,1.44,6.44-21.91,7.74-26.74S36,756.19,49.25,743s22.88-43.18,22.88-43.18,14.18,6.12,24.49,4.19,16.11-6.45,19.34-6.45,23.85,7.09,36.1-10.63,7.09-8.06,7.09-8.06,7.73-4.84,11.92-9,5.48-6.13,4.19-13.86-4.19-11.28-4.19-13.54-2.74-5-2.74-5a98.4,98.4,0,0,0,1.45-15.31c0-7.41,2.26-11.28,5.16-18s4.19-27.07,2.9-28.36-1.29-6-1.29-11.81-.48-8.72-2.92-8.72-4.86-.1-4.86,5.34-1.2,7.13-1.2,7.13-1.58.36-1.58-.36.25-3.26-4-3.26-3.39,3.14-3.39,3.14v4.47s-5.2-2.3-7.61,2.3-6.29.84-7.74,2.29a7.24,7.24,0,0,0-2.53,5.32c0,2.3,1.44,13.3,1.44,15.35s1.7,7.37,3,9.79,3,4.59,2.17,5.44-3.62,14.5-6,16.92-7.85,3.5-10.76,5.07-4.1-.36-4.83,3.51a14.28,14.28,0,0,1-4.41,7.55c-1.27,1.27-.55,4.29-.55,5.26s-3.14-4.59-3.14-7.73,1.33-3.15-4.59-3.15-10.76-1.09-14.14-3.38-8.94-1-8.94-1,17.64-4.83,20.9-3.75,10.15,2.42,9-8.46,2.17-6,3.5-8.46,1.33-4,1.33-7.13a36.4,36.4,0,0,0-.72-6.52s7,.48,7-5.56a10,10,0,0,0-4.47-8.58S139.29,586.87,140.86,577.81Z" transform="translate(211.16 97.75)"/><path class="m" d="M621.73,366.85c-13.57-2.77-19.47-7.79-30.52-11.36-12.49-4-23.39-.58-31,1a8.37,8.37,0,0,0-12.79-2.08c-6.86-3.64-16.47-10.6-30.06-10.41-11.62.17-18.72,3.24-32.52,1.91-1.56-.15-2.87-.33-2.87-.33s1.26.44,2.79.92a80.26,80.26,0,0,0,14.61,2.88c5.65.59,11.17.54,16.94,1.64a40.88,40.88,0,0,1,14.53,5.85c5.45,3.41,9.39,6.89,13.85,10.32a10.39,10.39,0,0,0,.65,1.18,2.33,2.33,0,0,0-.38.39c-1.56,1.92-4.87,2.88-7.48,4-1.31,1.09,1.58,2.71,2.65,3.38a37.3,37.3,0,0,0,20.59,3.09c1.22-.34,4.45-1,3.52-2.46-2.17-1.86-5-3.74-6-6a2.44,2.44,0,0,0-.25-.48,10.84,10.84,0,0,0,.85-.81c5-1.93,9.69-4,15.67-5.6a40.79,40.79,0,0,1,15.61-1.33c5.83.64,11.1,2.29,16.67,3.39a80.47,80.47,0,0,0,14.82,1.53c1.6,0,2.94-.07,2.94-.07s-1.31-.21-2.86-.52" transform="translate(211.16 97.75)"/><path class="m" d="M517.78,501.34c5.1,1.89,8.11,1.45,12.54,2.55,5,1.26,7.92,4.67,10.12,6.77a3.29,3.29,0,0,1,4.7,2c3,.21,7.69-.11,12.18,2.77,3.84,2.47,5.57,5,10.45,7.39.55.28,1,.49,1,.49s-.51-.11-1.12-.27a31.48,31.48,0,0,1-5.47-2.08c-2-1-3.83-2.14-6-3a16.11,16.11,0,0,0-6.07-1.07,64.94,64.94,0,0,0-6.76.57,2.94,2.94,0,0,1-.46.25.91.91,0,0,1,.05.21c.12,1,1,2,1.66,2.9.2.63-1.1.57-1.59.58a14.73,14.73,0,0,1-7.51-3.25c-.33-.37-1.26-1.27-.66-1.56a7.94,7.94,0,0,0,3.25-.76.67.67,0,0,1,.18-.11,3.69,3.69,0,0,1-.11-.45,55.79,55.79,0,0,0-4.07-5.12,15.94,15.94,0,0,0-4.92-3.69c-2.08-1-4.18-1.54-6.27-2.33a31.62,31.62,0,0,1-5.25-2.57c-.53-.33-1-.63-1-.63l1.06.42" transform="translate(211.16 97.75)"/><path class="m" d="M532.82,582c4.68-.28,6.89-1.68,10.76-2.35,4.38-.74,7.86.93,10.33,1.82a2.88,2.88,0,0,1,2.2-1.09,2.93,2.93,0,0,1,2.18,1c2.47-.89,6-2.76,10.56-2,3.88.62,6.11,2,10.79,2.2l1,0-1,.18a27.47,27.47,0,0,1-5,.26c-1.91-.07-3.76-.35-5.74-.26a13.9,13.9,0,0,0-5.15,1.27,54,54,0,0,0-5.13,2.79,2.42,2.42,0,0,1-.27.36l.11.15a6.78,6.78,0,0,0,2.31,1.7c.38.43-.66.84-1,1a12.58,12.58,0,0,1-7,0c-.39-.17-1.44-.56-1.06-1a6.9,6.9,0,0,0,2.29-1.74.72.72,0,0,1,.11-.15,1.89,1.89,0,0,1-.25-.31,51,51,0,0,0-5-2.62,13.8,13.8,0,0,0-5.16-1.19c-2-.07-3.83.24-5.74.34a27.75,27.75,0,0,1-5-.2l-1-.16,1,0" transform="translate(211.16 97.75)"/><path class="m" d="M616.89,560.74c3.48-1.08,4.9-2.54,7.7-3.76,3.17-1.37,6.11-.75,8.13-.53a2.21,2.21,0,0,1,3.3-.88c1.7-1.13,4-3.19,7.61-3.49,3-.26,5,.37,8.56-.34l.74-.16s-.32.15-.71.31a20.25,20.25,0,0,1-3.75,1.13c-1.46.3-2.91.43-4.39.87a10.88,10.88,0,0,0-3.66,1.9,41,41,0,0,0-3.35,3.06,3.13,3.13,0,0,1-.15.32.52.52,0,0,1,.11.1,5.43,5.43,0,0,0,2.06.86c.37.25-.34.75-.6,1a9.8,9.8,0,0,1-5.31,1.34c-.33-.06-1.2-.16-1-.56a5.33,5.33,0,0,0,1.41-1.73.31.31,0,0,1,.06-.13,2.43,2.43,0,0,1-.25-.2,41.21,41.21,0,0,0-4.25-1.06,10.76,10.76,0,0,0-4.12,0c-1.51.32-2.84.89-4.27,1.32a21.28,21.28,0,0,1-3.84.78l-.77.06.73-.21" transform="translate(211.16 97.75)"/><path class="m" d="M623.74,460c9.1-4,12.45-8.49,19.66-12.71,8.14-4.76,16.32-4,21.89-4.12a6,6,0,0,1,8.65-3.46c4.25-3.61,9.91-10,19.48-12,8.18-1.69,13.64-.63,23.12-3.71,1.07-.35,2-.68,2-.68s-.82.5-1.82,1.07a57.11,57.11,0,0,1-9.8,4.3c-3.88,1.29-7.76,2.12-11.63,3.79a29.09,29.09,0,0,0-9.29,6.36,115,115,0,0,0-8.11,9.39,7.14,7.14,0,0,1-.28.93,1.85,1.85,0,0,1,.33.21c1.39,1.11,3.86,1.27,5.87,1.66,1.09.56-.69,2.15-1.33,2.79a26.76,26.76,0,0,1-14,5.36c-.91,0-3.28,0-2.85-1.17,1.23-1.64,3-3.41,3.26-5.17a1.34,1.34,0,0,1,.1-.38c-.25-.13-.5-.28-.73-.43a107.22,107.22,0,0,0-11.87-1.5A29.35,29.35,0,0,0,645.23,452c-4,1.36-7.44,3.34-11.18,5a57.3,57.3,0,0,1-10.16,3.37c-1.12.25-2.07.41-2.07.41s.88-.35,1.92-.81" transform="translate(211.16 97.75)"/></g></svg>