<svg xmlns="http://www.w3.org/2000/svg" xmlns:xlink="http://www.w3.org/1999/xlink" viewBox="0 0 1400 980"><defs><style>.a,.f,.g{fill:none;}.b{clip-path:url(#a);}.c{fill:#5cb5ae;}.d{fill:#5bb4a3;}.e,.h{fill:#51977b;}.f,.g{stroke:#51977b;}.f{stroke-width:4px;}.g{stroke-width:6px;}.h,.k,.m{fill-rule:evenodd;}.i,.k{fill:#406a55;}.j,.m{fill:#4a7f61;}.l{fill:#1b231c;}</style><clipPath id="a"><rect class="a" width="1400" height="980"/></clipPath></defs><title>SilhouetteSunsetVector2</title><g class="b"><rect class="c" x="-108.36" y="-97.75" width="1593.58" height="1115.51"/><rect class="d" width="1400" height="47"/><rect class="d" y="50.25" width="1400" height="43.83"/><rect class="d" y="100.5" width="1400" height="40.67"/><rect class="d" y="150.75" width="1400" height="37.5"/><rect class="d" y="201" width="1400" height="34.33"/><rect class="d" y="251.25" width="1400" height="31.17"/><rect class="d" y="301.5" width="1400" height="28"/><rect class="d" y="351.75" width="1400" height="24.83"/><rect class="d" y="402" width="1400" height="21.67"/><rect class="d" y="452.25" width="1400" height="18.5"/><rect class="d" y="502.5" width="1400" height="15.33"/><rect class="d" y="552.75" width="1400" height="12.17"/><rect class="d" y="603" width="1400" height="9"/><rect class="e" x="-83.44" y="914.89" width="1501.85" height="99.91"/><rect class="e" x="97.63" y="719.52" width="143.73" height="221.85"/><rect class="e" x="227.48" y="862.02" width="235.76" height="79.56"/><rect class="e" x="97.63" y="599.94" width="143.73" height="78.76"/><rect class="e" x="97.63" y="517.44" width="143.73" height="39.38"/><path class="e" d="M382.78,918.09c0,11-12.69,19.9-28.34,19.9H338.69c-15.66,0-28.35-8.91-28.35-19.9V469.41c0-11,12.69-19.9,28.35-19.9h15.75c15.65,0,28.34,8.91,28.34,19.9Z"/><rect class="e" x="152.24" y="671.8" width="11.5" height="63.24"/><rect class="e" x="131.98" y="541.87" width="11.5" height="63.24"/><rect class="e" x="114.3" y="671.8" width="11.5" height="63.24"/><rect class="e" x="188.46" y="671.8" width="11.5" height="63.24"/><rect class="e" x="175.53" y="545.46" width="11.5" height="63.24"/><rect class="e" x="226.41" y="429.77" width="52.89" height="508.22" rx="20.7"/><rect class="e" x="98.2" y="695.95" width="131.08" height="2.3"/><rect class="e" x="98.2" y="695.95" width="1.94" height="25.4"/><rect class="e" x="105.03" y="695.95" width="0.97" height="25.4"/><rect class="e" x="111.21" y="695.95" width="0.97" height="25.4"/><rect class="e" x="117.89" y="695.95" width="0.97" height="25.4"/><rect class="e" x="125.3" y="695.95" width="0.97" height="25.4"/><rect class="e" x="131.48" y="695.95" width="0.97" height="25.4"/><rect class="e" x="138.16" y="695.95" width="0.97" height="25.4"/><rect class="e" x="144.34" y="695.95" width="0.97" height="25.4"/><rect class="e" x="150.52" y="695.95" width="0.97" height="25.4"/><rect class="e" x="157.2" y="695.95" width="0.97" height="25.4"/><rect class="e" x="164.61" y="695.95" width="0.97" height="25.4"/><rect class="e" x="170.79" y="695.95" width="0.97" height="25.4"/><rect class="e" x="177.47" y="695.95" width="0.97" height="25.4"/><rect class="e" x="183.88" y="695.95" width="0.97" height="25.4"/><rect class="e" x="190.06" y="695.95" width="0.97" height="25.4"/><rect class="e" x="196.74" y="695.95" width="0.97" height="25.4"/><rect class="e" x="204.15" y="695.95" width="0.97" height="25.4"/><rect class="e" x="210.33" y="695.95" width="0.97" height="25.4"/><rect class="e" x="217.01" y="695.95" width="0.97" height="25.4"/><rect class="e" x="223.19" y="695.95" width="0.97" height="25.4"/><rect class="e" x="98.2" y="576.37" width="131.08" height="2.3"/><rect class="e" x="98.2" y="576.37" width="1.94" height="25.4"/><rect class="e" x="105.03" y="576.37" width="0.97" height="25.4"/><rect class="e" x="111.21" y="576.37" width="0.97" height="25.4"/><rect class="e" x="117.89" y="576.37" width="0.97" height="25.4"/><rect class="e" x="125.3" y="576.37" width="0.97" height="25.4"/><rect class="e" x="131.48" y="576.37" width="0.97" height="25.4"/><rect class="e" x="138.16" y="576.37" width="0.97" height="25.4"/><rect class="e" x="144.34" y="576.37" width="0.97" height="25.4"/><rect class="e" x="150.52" y="576.37" width="0.97" height="25.4"/><rect class="e" x="157.2" y="576.37" width="0.97" height="25.4"/><rect class="e" x="164.61" y="576.37" width="0.97" height="25.4"/><rect class="e" x="170.79" y="576.37" width="0.97" height="25.4"/><rect class="e" x="177.47" y="576.37" width="0.97" height="25.4"/><rect class="e" x="183.88" y="576.37" width="0.97" height="25.4"/><rect class="e" x="190.06" y="576.37" width="0.97" height="25.4"/><rect class="e" x="196.74" y="576.37" width="0.97" height="25.4"/><rect class="e" x="204.15" y="576.37" width="0.97" height="25.4"/><rect class="e" x="210.33" y="576.37" width="0.97" height="25.4"/><rect class="e" x="217.01" y="576.37" width="0.97" height="25.4"/><rect class="e" x="223.19" y="576.37" width="0.97" height="25.4"/><rect class="e" x="98.2" y="494.15" width="131.08" height="2.3"/><rect class="e" x="98.2" y="494.15" width="1.94" height="25.41"/><rect class="e" x="105.03" y="494.15" width="0.97" height="25.41"/><rect class="e" x="111.21" y="494.15" width="0.97" height="25.41"/><rect class="e" x="117.89" y="494.15" width="0.97" height="25.41"/><rect class="e" x="125.3" y="494.15" width="0.97" height="25.41"/><rect class="e" x="131.48" y="494.15" width="0.97" height="25.41"/><rect class="e" x="138.16" y="494.15" width="0.97" height="25.41"/><rect class="e" x="144.34" y="494.15" width="0.97" height="25.41"/><rect class="e" x="150.52" y="494.15" width="0.97" height="25.41"/><rect class="e" x="157.2" y="494.15" width="0.97" height="25.41"/><rect class="e" x="164.61" y="494.15" width="0.97" height="25.41"/><rect class="e" x="170.79" y="494.15" width="0.97" height="25.41"/><rect class="e" x="177.47" y="494.15" width="0.97" height="25.41"/><rect class="e" x="183.88" y="494.15" width="0.97" height="25.41"/><rect class="e" x="190.06" y="494.15" width="0.97" height="25.41"/><rect class="e" x="196.74" y="494.15" width="0.97" height="25.41"/><rect class="e" x="204.15" y="494.15" width="0.97" height="25.41"/><rect class="e" x="210.33" y="494.15" width="0.97" height="25.41"/><rect class="e" x="217.01" y="494.15" width="0.97" height="25.41"/><rect class="e" x="223.19" y="494.15" width="0.97" height="25.41"/><path class="f" d="M345.14,458.81V434.94s-.3-21.27,18.67-21.27h37.73s20.34-3.45,20.34,21.27V739.07s1.72,11.21-11.21,11.21H359.79"/><path class="f" d="M371.86,568.32h51.89s19.4-1.87,19.4,20.7v80.05s.21,14.45-21.27,14.45H372"/><path class="f" d="M258.6,433.79V417.12s-4.38-13.23-15.3-13.23h-47s-16.82-1.07-16.82,18.55V462.1s-.43,16.39,22.64,15.1h32.12"/><rect class="e" x="1099.43" y="814.38" width="15.7" height="86.32"/><rect class="e" x="1087.88" y="762.89" width="111.97" height="1.96"/><rect class="e" x="1087.88" y="762.89" width="1.66" height="21.7"/><rect class="e" x="1093.71" y="762.89" width="0.83" height="21.7"/><rect class="e" x="1098.99" y="762.89" width="0.83" height="21.7"/><rect class="e" x="1104.7" y="762.89" width="0.83" height="21.7"/><rect class="e" x="1111.02" y="762.89" width="0.83" height="21.7"/><rect class="e" x="1116.3" y="762.89" width="0.83" height="21.7"/><rect class="e" x="1122.01" y="762.89" width="0.83" height="21.7"/><rect class="e" x="1127.29" y="762.89" width="0.83" height="21.7"/><rect class="e" x="1132.57" y="762.89" width="0.83" height="21.7"/><rect class="e" x="1138.28" y="762.89" width="0.83" height="21.7"/><rect class="e" x="1144.6" y="762.89" width="0.83" height="21.7"/><rect class="e" x="1149.88" y="762.89" width="0.83" height="21.7"/><rect class="e" x="1155.59" y="762.89" width="0.83" height="21.7"/><rect class="e" x="1161.07" y="762.89" width="0.83" height="21.7"/><rect class="e" x="1166.34" y="762.89" width="0.83" height="21.7"/><rect class="e" x="1172.05" y="762.89" width="0.83" height="21.7"/><rect class="e" x="1178.38" y="762.89" width="0.83" height="21.7"/><rect class="e" x="1183.66" y="762.89" width="0.83" height="21.7"/><rect class="e" x="1189.36" y="762.89" width="0.83" height="21.7"/><rect class="e" x="1194.64" y="762.89" width="0.83" height="21.7"/><rect class="e" x="1066.43" y="870.04" width="111.97" height="1.97"/><rect class="e" x="1066.43" y="870.04" width="1.66" height="21.7"/><rect class="e" x="1072.26" y="870.04" width="0.83" height="21.7"/><rect class="e" x="1077.54" y="870.04" width="0.83" height="21.7"/><rect class="e" x="1083.25" y="870.04" width="0.83" height="21.7"/><rect class="e" x="1089.57" y="870.04" width="0.83" height="21.7"/><rect class="e" x="1094.85" y="870.04" width="0.83" height="21.7"/><rect class="e" x="1100.56" y="870.04" width="0.83" height="21.7"/><rect class="e" x="1105.84" y="870.04" width="0.83" height="21.7"/><rect class="e" x="1111.12" y="870.04" width="0.83" height="21.7"/><rect class="e" x="1116.83" y="870.04" width="0.83" height="21.7"/><rect class="e" x="1123.15" y="870.04" width="0.83" height="21.7"/><rect class="e" x="1128.43" y="870.04" width="0.83" height="21.7"/><rect class="e" x="1134.14" y="870.04" width="0.83" height="21.7"/><rect class="e" x="1139.62" y="870.04" width="0.83" height="21.7"/><rect class="e" x="1144.9" y="870.04" width="0.83" height="21.7"/><rect class="e" x="1150.6" y="870.04" width="0.83" height="21.7"/><rect class="e" x="1156.93" y="870.04" width="0.83" height="21.7"/><rect class="e" x="1162.21" y="870.04" width="0.83" height="21.7"/><rect class="e" x="1167.92" y="870.04" width="0.83" height="21.7"/><rect class="e" x="1173.19" y="870.04" width="0.83" height="21.7"/><path class="g" d="M1239.59,562.23V507.56s.41-25.78-25.48-25.78h-51.5s-27.76-.72-27.76,28.27V687.72s-3.76,31.09,15.3,32.5c17.61,1.3,69.45,0,69.45,0"/><path class="g" d="M1361.19,551V528.24s6-18.05,20.89-18.05h64.16s23-1.47,23,25.31v54.14s.59,22.37-30.9,20.6h-43.84"/><rect class="e" x="1334.08" y="544.01" width="63.78" height="354.5" rx="14.91"/><rect class="e" x="1262.87" y="654.17" width="43.05" height="279.05" rx="14.91"/><rect class="e" x="1199.18" y="553.95" width="68.63" height="382.22" rx="14.91"/><polygon class="e" points="1487.31 814.86 1433.47 814.86 1428.5 750.25 1379.63 750.25 1355.61 698.07 1296.81 698.07 1284.39 782.55 1088.22 782.55 1088.22 823.97 1167.15 823.97 1167.15 890.23 1066.52 890.23 1066.52 940.76 1487.1 943.03 1487.31 814.86"/><path class="h" d="M831.05,890.92a23.45,23.45,0,1,1-27-19.27A23.45,23.45,0,0,1,831.05,890.92Z"/><path class="h" d="M943.7,889a23.45,23.45,0,1,1-27-19.28A23.46,23.46,0,0,1,943.7,889Z"/><path class="h" d="M959.07,823.44l-6.8.21a7.47,7.47,0,0,0-7.9-6.25c.19-1.58,2.82-1.85,2.82-1.85l-.61-3.67c-6.25,1-7.28,5.7-7.28,5.7s-9.39-.28-15.08.1-6.67,6.55-6.67,6.55l-30.45.4c-.22-1.29-4.85-20.74-4.85-20.74l1.29-.22V801l-2.86.22a8,8,0,0,0-3.46-2.62c-2-.62-6.27-.33-6.27-.33s0,.57-.34-2.3-1.31-2.75-1.31-2.75-.34-.25-2.67.14-1.44,4.94-1.44,4.94l-5.83.24a1.31,1.31,0,0,0-1.6-1.15l-10.23.18a1.15,1.15,0,0,0-1.14,1.35l-3.89.25-.22-1.29a43,43,0,0,0-5-7.05s-16.15-12.89-20.15-16.28a17.72,17.72,0,0,0-8.81-3.85l-12-.75a1.7,1.7,0,0,0-1.53-1.64s-38.88-8.13-40.88-8.51a2.31,2.31,0,0,0-2.68,1l-31-6.51c-2.8-4.22-5.2-5.43-5.87-5.32s-1.54,1.32-1.54,1.32c-6.06,7.31-5.47,29.8-5.43,33s1.34,3.66,1.34,3.66,2.53,30.54,2.74,32.82,1.33,2.05,1.33,2.05l.63,5.72a2.25,2.25,0,0,0-3,.8c-1.18,2.49,1.68,3.29,1.68,3.29l2.7,9s-3,3.42-4.21,5.14a1.89,1.89,0,0,0,.08,2.74c3.59,3.19,2.77,8,4.63,14.14s5.14,7.81,5.14,7.81c.51,3.07,8.59,8.71,16.11,11.59s13.17-2.74,13.17-2.74L756,870.4l8.93-14s1.72-1.81-.75-1.84-4.77,5.32-4.77,5.32c-5.64,7.19-18,3.94-20.66,2.46s-3.93-1.08-4.64-.09-1.41.24-1.83-.06-1.69-8.63.32-10.49,1.85-5.14,1.85-5.14l-5.61-74s64.89,18.06,72.14,20,13.63,7.77,13.63,7.77,6,11,8.47,14.53a10.84,10.84,0,0,1,1.95,7,2.72,2.72,0,0,0-1.65,2.3s7,35.32,7.18,36.65,2.22,1.59,2.22,1.59l3-.5,23-.21-.06,3.63-14.15,0-1.3-.93-25.62.43-.9,1.26-13.48.17.26,6.9,15.88,4.44L826.72,888l6-5.51,11.44-.06.12,6,21.6-.2.21,4.39-2.43,0,.13,3.89,22.78-.69-.05-3.83-2.16.36,0-4.72,6.95.09-.17-6,3.44-.57,6.58,5.77,19.68-2.84,26-1.42a14.54,14.54,0,0,0,.61,7L943,888.26l-.55,4.16,7.38,3.08,1.63,4.8,9.78-.54c-7.93-8.63-8.1-20.56-8.1-20.56s1.43-1,1.57-1.68a6.41,6.41,0,0,0-.93-3.54c-1.5-1.49-7.26.07-7.26.07l.19,4.35-24.29,1,.41-9.6-.16-5.8-8.74.4a2,2,0,0,0-2.21-1.28s-10.89.24-13,.27-2.21,1.21-2.21,1.21l-5.62.1-.19-3.64s64.41.12,69.75-1.5,5.5-6.2,5.5-6.2l-.5-22.73C964.23,823.87,959.07,823.44,959.07,823.44Zm-244.19-1.8a1.26,1.26,0,0,0,1.26-1.31l-2.25-27.65L722,830.91l-6.41-2.81Zm8.38,20.8a4.18,4.18,0,0,1-3-.58L718,833.93l5.68,2.16,1.17,4.82S725.05,842.14,723.26,842.44Zm1.87-78.19-3.55-6.79.13-.17,29,6.19c.28,1.68,1.24,1.86,1.24,1.86l7.15,1.52ZM883.42,892.54l-16.07.17-.12-4.49,15.94-.51Zm-1.95-58.45-23.23,1.06-13-30.69,31.24-.4Z"/><polygon class="i" points="3.1 936.2 3.1 803.19 -18.55 803.19 -18.55 767.1 152.62 767.1 152.62 803.19 134.06 803.19 138.18 924.86 175.3 924.86 175.3 835.15 256.76 835.15 256.76 791.85 356.78 791.85 356.78 832.06 379.47 832.06 379.47 959.92 3.1 959.92 3.1 936.2"/><polygon class="j" points="43.84 749.54 88.52 783.21 89.91 781.72 45.23 748.05 43.84 749.54"/><polygon class="j" points="42.78 732.13 87.45 765.8 88.84 764.3 44.17 730.63 42.78 732.13"/><polygon class="j" points="43.06 721.28 87.52 748.81 88.74 747.21 44.29 719.68 43.06 721.28"/><polygon class="j" points="43.06 710.76 87.52 738.29 88.74 736.69 44.29 709.15 43.06 710.76"/><polygon class="j" points="43.06 697.07 87.52 724.61 88.74 723 44.29 695.47 43.06 697.07"/><polygon class="j" points="43.06 684.28 87.52 711.81 88.74 710.21 44.29 682.68 43.06 684.28"/><polygon class="j" points="43.06 671.12 87.52 698.65 88.74 697.04 44.29 669.51 43.06 671.12"/><polygon class="j" points="43.06 659.4 87.52 686.93 88.74 685.33 44.29 657.79 43.06 659.4"/><polygon class="j" points="43.35 646.82 87.81 674.35 89.05 672.75 44.58 645.21 43.35 646.82"/><polygon class="j" points="43.35 636.3 87.81 663.83 89.05 662.22 44.58 634.69 43.35 636.3"/><polygon class="j" points="43.35 622.61 87.81 650.14 89.05 648.54 44.58 621.01 43.35 622.61"/><polygon class="j" points="43.35 609.82 87.81 637.35 89.05 635.75 44.58 608.21 43.35 609.82"/><polygon class="j" points="43.35 596.65 87.81 624.18 89.05 622.58 44.58 595.04 43.35 596.65"/><polygon class="j" points="43.35 584.94 87.81 612.47 89.05 610.87 44.58 583.33 43.35 584.94"/><polygon class="j" points="42.95 569.13 87.41 596.66 88.63 595.05 44.18 567.52 42.95 569.13"/><polygon class="j" points="42.72 598.64 87.19 571.1 88.42 572.71 43.95 600.24 42.72 598.64"/><polygon class="j" points="42.72 611.43 87.19 583.89 88.42 585.5 43.95 613.03 42.72 611.43"/><polygon class="j" points="42.72 624.6 87.19 597.07 88.42 598.67 43.95 626.2 42.72 624.6"/><polygon class="j" points="42.72 636.31 87.19 608.77 88.42 610.38 43.95 637.92 42.72 636.31"/><polygon class="j" points="43.02 648.89 87.48 621.36 88.71 622.96 44.25 650.5 43.02 648.89"/><polygon class="j" points="43.02 659.41 87.48 631.88 88.71 633.49 44.25 661.02 43.02 659.41"/><polygon class="j" points="43.02 673.1 87.48 645.57 88.71 647.17 44.25 674.7 43.02 673.1"/><polygon class="j" points="43.02 685.89 87.48 658.36 88.71 659.96 44.25 687.49 43.02 685.89"/><polygon class="j" points="43.02 699.06 87.48 671.52 88.71 673.13 44.25 700.67 43.02 699.06"/><polygon class="j" points="43.02 710.77 87.48 683.24 88.71 684.85 44.25 712.38 43.02 710.77"/><polygon class="j" points="42.62 726.59 87.08 699.05 88.31 700.66 43.84 728.19 42.62 726.59"/><polygon class="j" points="42.95 555.96 87.41 583.49 88.63 581.88 44.18 554.35 42.95 555.96"/><polygon class="j" points="42.95 544.25 87.41 571.77 88.63 570.17 44.18 542.64 42.95 544.25"/><polygon class="j" points="43.24 531.66 87.71 559.19 88.94 557.59 44.48 530.05 43.24 531.66"/><polygon class="j" points="43.24 521.14 87.71 548.67 88.94 547.07 44.48 519.53 43.24 521.14"/><polygon class="j" points="43.24 507.46 87.71 534.99 88.94 533.38 44.48 505.85 43.24 507.46"/><polygon class="j" points="43.24 494.66 87.71 522.19 88.94 520.59 44.48 493.06 43.24 494.66"/><polygon class="j" points="43.24 481.49 87.71 509.02 88.94 507.42 44.48 479.89 43.24 481.49"/><polygon class="j" points="43.24 469.78 87.71 497.31 88.94 495.7 44.48 468.18 43.24 469.78"/><polygon class="j" points="43.88 508.48 88.34 480.95 89.56 482.56 45.1 510.09 43.88 508.48"/><polygon class="j" points="44.18 521.07 88.63 493.53 89.86 495.14 45.41 522.67 44.18 521.07"/><polygon class="j" points="44.18 531.58 88.63 504.05 89.86 505.66 45.41 533.19 44.18 531.58"/><polygon class="j" points="44.18 545.27 88.63 517.74 89.86 519.35 45.41 546.88 44.18 545.27"/><polygon class="j" points="44.18 558.07 88.63 530.53 89.86 532.14 45.41 559.67 44.18 558.07"/><polygon class="j" points="44.18 571.23 88.63 543.7 89.86 545.31 45.41 572.84 44.18 571.23"/><polygon class="j" points="44.18 582.95 88.63 555.42 89.86 557.02 45.41 584.55 44.18 582.95"/><polygon class="j" points="44.26 455.65 88.72 483.18 89.95 481.58 45.49 454.04 44.26 455.65"/><polygon class="j" points="44.26 442.48 88.72 470.01 89.95 468.41 45.49 440.88 44.26 442.48"/><polygon class="j" points="44.26 430.77 88.72 458.3 89.95 456.7 45.49 429.16 44.26 430.77"/><polygon class="j" points="44.91 462.21 89.37 434.68 90.6 436.29 46.14 463.82 44.91 462.21"/><polygon class="j" points="45.92 476.35 90.38 448.81 91.61 450.42 47.15 477.95 45.92 476.35"/><polygon class="j" points="45.92 489.51 90.38 461.98 91.61 463.59 47.15 491.12 45.92 489.51"/><polygon class="j" points="44.56 418.19 89.03 445.72 90.25 444.11 45.79 416.58 44.56 418.19"/><polygon class="j" points="44.56 407.66 89.03 435.2 90.25 433.59 45.79 406.06 44.56 407.66"/><polygon class="j" points="44.56 393.98 89.03 421.51 90.25 419.91 45.79 392.38 44.56 393.98"/><polygon class="j" points="44.56 381.19 89.03 408.72 90.25 407.11 45.79 379.58 44.56 381.19"/><polygon class="j" points="44.56 368.02 89.03 395.55 90.25 393.94 45.79 366.41 44.56 368.02"/><polygon class="j" points="44.56 356.3 89.03 383.83 90.25 382.23 45.79 354.7 44.56 356.3"/><polygon class="j" points="43.6 341.69 88.06 369.22 89.29 367.61 44.83 340.08 43.6 341.69"/><polygon class="j" points="43.6 328.52 88.06 356.05 89.29 354.44 44.83 326.91 43.6 328.52"/><polygon class="j" points="43.6 316.8 88.06 344.34 89.29 342.73 44.83 315.2 43.6 316.8"/><polygon class="j" points="43.9 304.22 88.36 331.76 89.59 330.15 45.13 302.62 43.9 304.22"/><polygon class="j" points="43.9 293.7 88.36 321.24 89.59 319.63 45.13 292.1 43.9 293.7"/><polygon class="j" points="43.9 280.02 88.36 307.55 89.59 305.94 45.13 278.41 43.9 280.02"/><polygon class="j" points="43.9 267.22 88.36 294.75 89.59 293.15 45.13 265.62 43.9 267.22"/><polygon class="j" points="43.9 254.06 88.36 281.59 89.59 279.98 45.13 252.45 43.9 254.06"/><polygon class="j" points="43.9 242.34 88.36 269.87 89.59 268.27 45.13 240.74 43.9 242.34"/><polygon class="j" points="43.9 229.18 88.36 256.71 89.59 255.1 45.13 227.57 43.9 229.18"/><polygon class="j" points="43.9 214.53 88.36 242.07 89.59 240.46 45.13 212.93 43.9 214.53"/><polygon class="j" points="43.9 198.59 88.36 226.12 89.59 224.51 45.13 196.98 43.9 198.59"/><polygon class="j" points="44.81 185.06 89.27 212.59 90.5 210.99 46.04 183.45 44.81 185.06"/><polygon class="j" points="44.02 213.09 88.48 185.56 89.7 187.16 45.25 214.69 44.02 213.09"/><polygon class="j" points="44.02 223.61 88.48 196.07 89.7 197.68 45.25 225.21 44.02 223.61"/><polygon class="j" points="44.02 237.29 88.48 209.76 89.7 211.37 45.25 238.9 44.02 237.29"/><polygon class="j" points="44.02 250.08 88.48 222.55 89.7 224.16 45.25 251.69 44.02 250.08"/><polygon class="j" points="44.02 263.25 88.48 235.72 89.7 237.33 45.25 264.86 44.02 263.25"/><polygon class="j" points="44.02 274.96 88.48 247.44 89.7 249.04 45.25 276.57 44.02 274.96"/><polygon class="j" points="43.06 289.58 87.52 262.05 88.74 263.66 44.29 291.19 43.06 289.58"/><polygon class="j" points="43.06 302.75 87.52 275.22 88.74 276.82 44.29 304.36 43.06 302.75"/><polygon class="j" points="43.06 314.47 87.52 286.93 88.74 288.54 44.29 316.07 43.06 314.47"/><polygon class="j" points="43.35 327.05 87.82 299.52 89.05 301.12 44.59 328.65 43.35 327.05"/><polygon class="j" points="43.35 337.57 87.82 310.04 89.05 311.64 44.59 339.17 43.35 337.57"/><polygon class="j" points="43.35 351.25 87.82 323.72 89.05 325.33 44.59 352.86 43.35 351.25"/><polygon class="j" points="43.35 364.05 87.82 336.51 89.05 338.12 44.59 365.65 43.35 364.05"/><polygon class="j" points="43.35 377.21 87.82 349.68 89.05 351.29 44.59 378.82 43.35 377.21"/><polygon class="j" points="43.35 388.93 87.82 361.4 89.05 363 44.59 390.53 43.35 388.93"/><polygon class="j" points="43.35 402.09 87.82 374.56 89.05 376.17 44.59 403.7 43.35 402.09"/><polygon class="j" points="43.35 416.73 87.82 389.2 89.05 390.81 44.59 418.34 43.35 416.73"/><polygon class="j" points="43.35 432.68 87.82 405.15 89.05 406.76 44.59 434.29 43.35 432.68"/><polygon class="j" points="46.6 444.11 91.07 416.58 92.29 418.19 47.83 445.72 46.6 444.11"/><polygon class="j" points="44.79 751.57 88.61 722.92 87.34 721.35 43.52 749.99 44.79 751.57"/><polygon class="j" points="44.69 768.65 45.93 190.43 43.76 190.43 42.53 768.62 44.69 768.65"/><polygon class="j" points="66.51 768.65 67.75 190.43 65.58 190.43 64.35 768.62 66.51 768.65"/><polygon class="j" points="88.95 768.65 90.18 190.43 88.02 190.43 86.79 768.62 88.95 768.65"/><rect class="j" x="33.23" y="138.73" width="66.92" height="60.25"/><polygon class="j" points="34.12 143.1 440.06 143.98 440.06 142.43 34.14 141.55 34.12 143.1"/><polygon class="j" points="414.68 120.7 435.51 143.24 436.45 142.11 415.62 119.57 414.68 120.7"/><polygon class="j" points="426.26 120.49 440.49 143.21 441.6 142.31 427.38 119.59 426.26 120.49"/><polygon class="j" points="404.03 142.44 421.67 119.76 422.81 120.51 405.17 143.19 404.03 142.44"/><polygon class="j" points="403.39 120.7 424.21 143.24 425.16 142.11 404.33 119.57 403.39 120.7"/><polygon class="j" points="392.74 142.44 410.38 119.76 411.52 120.51 393.88 143.19 392.74 142.44"/><polygon class="j" points="390.42 120.7 411.25 143.24 412.19 142.11 391.37 119.57 390.42 120.7"/><polygon class="j" points="379.77 142.44 397.41 119.76 398.55 120.51 380.92 143.19 379.77 142.44"/><polygon class="j" points="379.13 120.7 399.96 143.24 400.9 142.11 380.07 119.57 379.13 120.7"/><polygon class="j" points="368.48 142.44 386.12 119.76 387.26 120.51 369.63 143.19 368.48 142.44"/><polygon class="j" points="366.67 120.7 387.5 143.24 388.44 142.11 367.61 119.57 366.67 120.7"/><polygon class="j" points="356.02 142.44 373.66 119.76 374.8 120.51 357.16 143.19 356.02 142.44"/><polygon class="j" points="355.38 120.7 376.2 143.24 377.15 142.11 356.32 119.57 355.38 120.7"/><polygon class="j" points="344.73 142.44 362.37 119.76 363.51 120.51 345.87 143.19 344.73 142.44"/><polygon class="j" points="342.41 120.7 363.24 143.24 364.18 142.11 343.35 119.57 342.41 120.7"/><polygon class="j" points="331.76 142.44 349.4 119.76 350.54 120.51 332.9 143.19 331.76 142.44"/><polygon class="j" points="331.12 120.7 351.95 143.24 352.89 142.11 332.06 119.57 331.12 120.7"/><polygon class="j" points="320.47 142.44 338.11 119.76 339.25 120.51 321.61 143.19 320.47 142.44"/><polygon class="j" points="319.37 120.7 340.19 143.24 341.14 142.11 320.31 119.57 319.37 120.7"/><polygon class="j" points="308.72 142.44 326.36 119.76 327.5 120.51 309.86 143.19 308.72 142.44"/><polygon class="j" points="308.08 120.7 328.91 143.24 329.85 142.11 309.02 119.57 308.08 120.7"/><polygon class="j" points="297.43 142.44 315.07 119.76 316.21 120.51 298.57 143.19 297.43 142.44"/><polygon class="j" points="295.11 120.7 315.94 143.24 316.88 142.11 296.05 119.57 295.11 120.7"/><polygon class="j" points="284.46 142.44 302.1 119.76 303.24 120.51 285.6 143.19 284.46 142.44"/><polygon class="j" points="283.82 120.7 304.64 143.24 305.59 142.11 284.76 119.57 283.82 120.7"/><polygon class="j" points="273.17 142.44 290.81 119.76 291.95 120.51 274.31 143.19 273.17 142.44"/><polygon class="j" points="260.71 142.44 278.35 119.76 279.49 120.51 261.85 143.19 260.71 142.44"/><polygon class="j" points="260.07 120.7 280.89 143.24 281.84 142.11 261.01 119.57 260.07 120.7"/><polygon class="j" points="249.42 142.44 267.06 119.76 268.2 120.51 250.56 143.19 249.42 142.44"/><polygon class="j" points="247.1 120.7 267.93 143.24 268.87 142.11 248.04 119.57 247.1 120.7"/><polygon class="j" points="236.45 142.44 254.09 119.76 255.23 120.51 237.59 143.19 236.45 142.44"/><polygon class="j" points="235.81 120.7 256.64 143.24 257.58 142.11 236.75 119.57 235.81 120.7"/><polygon class="j" points="225.16 142.44 242.8 119.76 243.94 120.51 226.3 143.19 225.16 142.44"/><polygon class="j" points="223.29 120.7 244.11 143.24 245.06 142.11 224.23 119.57 223.29 120.7"/><polygon class="j" points="212.64 142.44 230.28 119.76 231.42 120.51 213.78 143.19 212.64 142.44"/><polygon class="j" points="212 120.7 232.82 143.24 233.77 142.11 212.94 119.57 212 120.7"/><polygon class="j" points="201.35 142.44 218.99 119.76 220.13 120.51 202.49 143.19 201.35 142.44"/><polygon class="j" points="199.03 120.7 219.86 143.24 220.8 142.11 199.97 119.57 199.03 120.7"/><polygon class="j" points="188.38 142.44 206.02 119.76 207.16 120.51 189.52 143.19 188.38 142.44"/><polygon class="j" points="187.74 120.7 208.57 143.24 209.51 142.11 188.68 119.57 187.74 120.7"/><polygon class="j" points="177.09 142.44 194.73 119.76 195.87 120.51 178.23 143.19 177.09 142.44"/><polygon class="j" points="175.28 120.7 196.1 143.24 197.05 142.11 176.22 119.57 175.28 120.7"/><polygon class="j" points="164.63 142.44 182.27 119.76 183.41 120.51 165.77 143.19 164.63 142.44"/><polygon class="j" points="163.99 120.7 184.81 143.24 185.76 142.11 164.93 119.57 163.99 120.7"/><polygon class="j" points="153.34 142.44 170.98 119.76 172.12 120.51 154.48 143.19 153.34 142.44"/><polygon class="j" points="151.02 120.7 171.84 143.24 172.79 142.11 151.96 119.57 151.02 120.7"/><polygon class="j" points="140.37 142.44 158.01 119.76 159.15 120.51 141.51 143.19 140.37 142.44"/><polygon class="j" points="139.73 120.7 160.56 143.24 161.5 142.11 140.67 119.57 139.73 120.7"/><polygon class="j" points="129.08 142.44 146.72 119.76 147.86 120.51 130.22 143.19 129.08 142.44"/><polygon class="j" points="127.98 120.7 148.81 143.24 149.75 142.11 128.92 119.57 127.98 120.7"/><polygon class="j" points="117.33 142.44 134.97 119.76 136.11 120.51 118.47 143.19 117.33 142.44"/><polygon class="j" points="116.69 120.7 137.51 143.24 138.46 142.11 117.63 119.57 116.69 120.7"/><polygon class="j" points="106.03 142.44 123.68 119.76 124.82 120.51 107.18 143.19 106.03 142.44"/><polygon class="j" points="103.72 120.7 124.54 143.24 125.49 142.11 104.66 119.57 103.72 120.7"/><polygon class="j" points="93.07 142.44 110.71 119.76 111.85 120.51 94.21 143.19 93.07 142.44"/><polygon class="j" points="92.43 120.7 113.26 143.24 114.2 142.11 93.37 119.57 92.43 120.7"/><polygon class="j" points="81.78 142.44 99.42 119.76 100.56 120.51 82.92 143.19 81.78 142.44"/><polygon class="j" points="69.32 142.44 86.96 119.76 88.1 120.51 70.46 143.19 69.32 142.44"/><polygon class="j" points="68.68 120.7 89.51 143.24 90.45 142.11 69.62 119.57 68.68 120.7"/><polygon class="j" points="58.03 142.44 75.67 119.76 76.81 120.51 59.17 143.19 58.03 142.44"/><polygon class="j" points="55.71 120.7 76.53 143.24 77.48 142.11 56.65 119.57 55.71 120.7"/><polygon class="j" points="45.06 142.44 62.7 119.76 63.84 120.51 46.2 143.19 45.06 142.44"/><polygon class="j" points="44.42 120.7 65.24 143.24 66.19 142.11 45.36 119.57 44.42 120.7"/><polygon class="j" points="33.77 142.44 51.41 119.76 52.55 120.51 34.91 143.19 33.77 142.44"/><polygon class="j" points="21.33 120.49 427.27 121.38 427.28 119.82 21.36 118.94 21.33 120.49"/><rect class="j" x="11.44" y="118.96" width="34.33" height="21.82"/><rect class="j" x="49.01" y="119.7" width="17.17" height="21.07"/><rect class="j" x="-64.33" y="132.02" width="174.04" height="12.03"/><polyline class="j" points="438.96 143.19 442.15 143.21 441.12 141.54 439.77 141.64 438.96 143.07"/><rect class="j" x="63.5" y="83.81" width="13.68" height="16.72"/><polygon class="j" points="80.72 119.36 82.02 119.27 80.43 100.17 79.13 100.26 80.72 119.36"/><polygon class="j" points="61.84 98.86 63.13 99.15 59.06 121.09 57.78 120.8 61.84 98.86"/><polygon class="j" points="67.53 119.27 68.82 119.04 64.75 100.24 63.47 100.47 67.53 119.27"/><polygon class="j" points="80.54 118.36 81.46 117.5 64.79 99.84 63.86 100.69 80.54 118.36"/><polygon class="j" points="60.46 120.83 59.76 119.55 80.34 101.98 81.04 103.26 60.46 120.83"/><polygon class="j" points="-34.32 120.92 -36.19 120.21 67.64 84.84 69.52 85.55 -34.32 120.92"/><polygon class="j" points="-30.98 127.18 -32.85 126.48 70.98 91.11 72.86 91.81 -30.98 127.18"/><polygon class="j" points="-29.82 125.12 -31.59 124.29 71.57 96.21 73.34 97.05 -29.82 125.12"/><polygon class="j" points="80 106.92 80.64 105.92 64.44 99.19 63.8 100.2 80 106.92"/><polygon class="j" points="80.43 100.17 62.85 98.85 61.76 101.71 60.22 108.84 65.42 109.49 66.58 100.44 79.64 101.53 80.43 100.17"/><polygon class="j" points="1038.73 941.49 968.8 978 966.63 976.38 1036.56 939.86 1038.73 941.49"/><polygon class="j" points="1040.4 922.6 970.47 959.11 968.29 957.49 1038.22 920.98 1040.4 922.6"/><polygon class="j" points="1039.97 910.84 970.37 940.69 968.45 938.95 1038.04 909.1 1039.97 910.84"/><polygon class="j" points="1039.97 899.43 970.37 929.29 968.45 927.54 1038.04 897.69 1039.97 899.43"/><polygon class="j" points="1039.97 884.59 970.37 914.44 968.45 912.71 1038.04 882.85 1039.97 884.59"/><polygon class="j" points="1039.97 870.72 970.37 900.57 968.45 898.83 1038.04 868.98 1039.97 870.72"/><polygon class="j" points="1039.97 856.44 970.37 886.29 968.45 884.55 1038.04 854.7 1039.97 856.44"/><polygon class="j" points="1039.97 843.73 970.37 873.59 968.45 871.85 1038.04 842 1039.97 843.73"/><polygon class="j" points="1039.5 830.1 969.91 859.95 967.98 858.21 1037.58 828.35 1039.5 830.1"/><polygon class="j" points="1039.5 818.68 969.91 848.54 967.98 846.8 1037.58 816.94 1039.5 818.68"/><polygon class="j" points="1039.5 803.84 969.91 833.7 967.98 831.96 1037.58 802.11 1039.5 803.84"/><polygon class="j" points="1039.5 789.97 969.91 819.83 967.98 818.09 1037.58 788.23 1039.5 789.97"/><polygon class="j" points="1039.5 775.69 969.91 805.55 967.98 803.81 1037.58 773.95 1039.5 775.69"/><polygon class="j" points="1039.5 762.99 969.91 792.85 967.98 791.11 1037.58 761.25 1039.5 762.99"/><polygon class="j" points="1040.14 745.85 970.54 775.7 968.63 773.96 1038.21 744.1 1040.14 745.85"/><polygon class="j" points="1040.49 777.85 970.89 747.99 968.97 749.73 1038.57 779.58 1040.49 777.85"/><polygon class="j" points="1040.49 791.72 970.89 761.86 968.97 763.6 1038.57 793.46 1040.49 791.72"/><polygon class="j" points="1040.49 806 970.89 776.14 968.97 777.88 1038.57 807.73 1040.49 806"/><polygon class="j" points="1040.49 818.7 970.89 788.84 968.97 790.59 1038.57 820.44 1040.49 818.7"/><polygon class="j" points="1040.02 832.35 970.42 802.49 968.5 804.23 1038.09 834.08 1040.02 832.35"/><polygon class="j" points="1040.02 843.75 970.42 813.9 968.5 815.64 1038.09 845.49 1040.02 843.75"/><polygon class="j" points="1040.02 858.59 970.42 828.73 968.5 830.48 1038.09 860.33 1040.02 858.59"/><polygon class="j" points="1040.02 872.46 970.42 842.61 968.5 844.35 1038.09 874.2 1040.02 872.46"/><polygon class="j" points="1040.02 886.74 970.42 856.89 968.5 858.63 1038.09 888.48 1040.02 886.74"/><polygon class="j" points="1040.02 899.44 970.42 869.59 968.5 871.33 1038.09 901.18 1040.02 899.44"/><polygon class="j" points="1040.66 916.59 971.05 886.74 969.14 888.47 1038.73 918.33 1040.66 916.59"/><polygon class="j" points="1040.14 731.56 970.54 761.42 968.63 759.68 1038.21 729.82 1040.14 731.56"/><polygon class="j" points="1040.14 718.87 970.54 748.72 968.63 746.98 1038.21 717.12 1040.14 718.87"/><polygon class="j" points="1039.67 705.22 970.07 735.07 968.15 733.34 1037.74 703.48 1039.67 705.22"/><polygon class="j" points="1039.67 693.81 970.07 723.67 968.15 721.92 1037.74 692.07 1039.67 693.81"/><polygon class="j" points="1039.67 678.97 970.07 708.83 968.15 707.08 1037.74 677.23 1039.67 678.97"/><polygon class="j" points="1039.67 665.1 970.07 694.95 968.15 693.21 1037.74 663.36 1039.67 665.1"/><polygon class="j" points="1039.67 650.82 970.07 680.67 968.15 678.93 1037.74 649.08 1039.67 650.82"/><polygon class="j" points="1039.67 638.12 970.07 667.97 968.15 666.23 1037.74 636.38 1039.67 638.12"/><polygon class="j" points="1038.68 680.09 969.09 650.23 967.17 651.97 1036.76 681.83 1038.68 680.09"/><polygon class="j" points="1038.21 693.73 968.63 663.87 966.7 665.62 1036.29 695.47 1038.21 693.73"/><polygon class="j" points="1038.21 705.14 968.63 675.28 966.7 677.02 1036.29 706.88 1038.21 705.14"/><polygon class="j" points="1038.21 719.98 968.63 690.13 966.7 691.86 1036.29 721.72 1038.21 719.98"/><polygon class="j" points="1038.21 733.85 968.63 704 966.7 705.74 1036.29 735.59 1038.21 733.85"/><polygon class="j" points="1038.21 748.13 968.63 718.28 966.7 720.02 1036.29 749.87 1038.21 748.13"/><polygon class="j" points="1038.21 760.84 968.63 730.98 966.7 732.72 1036.29 762.57 1038.21 760.84"/><polygon class="j" points="1038.09 622.79 968.49 652.65 966.56 650.91 1036.16 621.05 1038.09 622.79"/><polygon class="j" points="1038.09 608.51 968.49 638.37 966.56 636.63 1036.16 606.78 1038.09 608.51"/><polygon class="j" points="1038.09 595.81 968.49 625.67 966.56 623.93 1036.16 594.08 1038.09 595.81"/><polygon class="j" points="1037.07 629.91 967.47 600.06 965.55 601.8 1035.15 631.66 1037.07 629.91"/><polygon class="j" points="1035.48 645.24 965.89 615.38 963.96 617.12 1033.55 646.98 1035.48 645.24"/><polygon class="j" points="1035.48 659.52 965.89 629.66 963.96 631.4 1033.55 661.26 1035.48 659.52"/><polygon class="j" points="1037.61 582.17 968.01 612.03 966.1 610.28 1035.69 580.43 1037.61 582.17"/><polygon class="j" points="1037.61 570.76 968.01 600.62 966.1 598.87 1035.69 569.02 1037.61 570.76"/><polygon class="j" points="1037.61 555.92 968.01 585.78 966.1 584.04 1035.69 554.18 1037.61 555.92"/><polygon class="j" points="1037.61 542.05 968.01 571.9 966.1 570.16 1035.69 540.31 1037.61 542.05"/><polygon class="j" points="1037.61 527.77 968.01 557.62 966.1 555.89 1035.69 526.03 1037.61 527.77"/><polygon class="j" points="1037.61 515.07 968.01 544.92 966.1 543.18 1035.69 513.33 1037.61 515.07"/><polygon class="j" points="1039.12 499.22 969.52 529.07 967.6 527.33 1037.19 497.48 1039.12 499.22"/><polygon class="j" points="1039.12 484.94 969.52 514.79 967.6 513.05 1037.19 483.19 1039.12 484.94"/><polygon class="j" points="1039.12 472.24 969.52 502.09 967.6 500.35 1037.19 470.5 1039.12 472.24"/><polygon class="j" points="1038.64 458.59 969.05 488.45 967.13 486.71 1036.72 456.85 1038.64 458.59"/><polygon class="j" points="1038.64 447.19 969.05 477.04 967.13 475.3 1036.72 445.44 1038.64 447.19"/><polygon class="j" points="1038.64 432.34 969.05 462.2 967.13 460.46 1036.72 430.61 1038.64 432.34"/><polygon class="j" points="1038.64 418.47 969.05 448.32 967.13 446.59 1036.72 416.73 1038.64 418.47"/><polygon class="j" points="1038.64 404.19 969.05 434.05 967.13 432.31 1036.72 402.45 1038.64 404.19"/><polygon class="j" points="1038.64 391.49 969.05 421.34 967.13 419.61 1036.72 389.75 1038.64 391.49"/><polygon class="j" points="1038.64 377.21 969.05 407.07 967.13 405.33 1036.72 375.48 1038.64 377.21"/><polygon class="j" points="1038.64 361.34 969.05 391.19 967.13 389.45 1036.72 359.6 1038.64 361.34"/><polygon class="j" points="1038.64 344.04 969.05 373.9 967.13 372.16 1036.72 342.31 1038.64 344.04"/><polygon class="j" points="1037.22 329.37 967.62 359.23 965.7 357.49 1035.3 327.63 1037.22 329.37"/><polygon class="j" points="1038.46 359.77 968.87 329.91 966.95 331.65 1036.54 361.51 1038.46 359.77"/><polygon class="j" points="1038.46 371.18 968.87 341.32 966.95 343.06 1036.54 372.92 1038.46 371.18"/><polygon class="j" points="1038.46 386.01 968.87 356.16 966.95 357.9 1036.54 387.76 1038.46 386.01"/><polygon class="j" points="1038.46 399.89 968.87 370.03 966.95 371.77 1036.54 401.63 1038.46 399.89"/><polygon class="j" points="1038.46 414.17 968.87 384.31 966.95 386.06 1036.54 415.91 1038.46 414.17"/><polygon class="j" points="1038.46 426.87 968.87 397.01 966.95 398.75 1036.54 428.61 1038.46 426.87"/><polygon class="j" points="1039.97 442.72 970.37 412.87 968.45 414.61 1038.04 444.46 1039.97 442.72"/><polygon class="j" points="1039.97 457 970.37 427.14 968.45 428.88 1038.04 458.74 1039.97 457"/><polygon class="j" points="1039.97 469.7 970.37 439.85 968.45 441.58 1038.04 471.44 1039.97 469.7"/><polygon class="j" points="1039.5 483.34 969.9 453.49 967.98 455.23 1037.57 485.08 1039.5 483.34"/><polygon class="j" points="1039.5 494.75 969.9 464.9 967.98 466.63 1037.57 496.49 1039.5 494.75"/><polygon class="j" points="1039.5 509.59 969.9 479.74 967.98 481.48 1037.57 511.33 1039.5 509.59"/><polygon class="j" points="1039.5 523.46 969.9 493.61 967.98 495.35 1037.57 525.2 1039.5 523.46"/><polygon class="j" points="1039.5 537.74 969.9 507.89 967.98 509.63 1037.57 539.49 1039.5 537.74"/><polygon class="j" points="1039.5 550.45 969.9 520.59 967.98 522.33 1037.57 552.19 1039.5 550.45"/><polygon class="j" points="1039.5 564.72 969.9 534.87 967.98 536.61 1037.57 566.46 1039.5 564.72"/><polygon class="j" points="1039.5 580.6 969.9 550.74 967.98 552.48 1037.57 582.34 1039.5 580.6"/><polygon class="j" points="1039.5 597.89 969.9 568.04 967.98 569.78 1037.57 599.63 1039.5 597.89"/><polygon class="j" points="1034.41 610.28 964.81 580.43 962.89 582.17 1032.49 612.03 1034.41 610.28"/><polygon class="j" points="1037.25 943.68 968.65 912.62 970.64 910.91 1039.24 941.97 1037.25 943.68"/><polygon class="j" points="1037.4 962.2 1035.47 335.2 1038.86 335.19 1040.79 962.17 1037.4 962.2"/><polygon class="j" points="1003.25 962.2 1001.32 335.2 1004.71 335.19 1006.64 962.17 1003.25 962.2"/><polygon class="j" points="968.13 962.2 966.2 335.2 969.59 335.19 971.52 962.17 968.13 962.2"/><rect class="j" x="950.59" y="279.14" width="104.75" height="65.33"/><polygon class="j" points="1053.96 283.88 418.52 284.83 418.51 283.15 1053.93 282.19 1053.96 283.88"/><polygon class="j" points="458.24 259.58 425.64 284.02 424.16 282.81 456.77 258.36 458.24 259.58"/><polygon class="j" points="440.11 259.36 417.84 284 416.1 283.02 438.36 258.38 440.11 259.36"/><polygon class="j" points="474.91 283.16 447.3 258.56 445.51 259.38 473.12 283.98 474.91 283.16"/><polygon class="j" points="475.92 259.58 443.32 284.02 441.84 282.81 474.44 258.36 475.92 259.58"/><polygon class="j" points="492.59 283.16 464.97 258.56 463.18 259.38 490.8 283.98 492.59 283.16"/><polygon class="j" points="496.21 259.58 463.62 284.02 462.14 282.81 494.74 258.36 496.21 259.58"/><polygon class="j" points="512.89 283.16 485.27 258.56 483.49 259.38 511.1 283.98 512.89 283.16"/><polygon class="j" points="513.89 259.58 481.29 284.02 479.81 282.81 512.41 258.36 513.89 259.58"/><polygon class="j" points="530.56 283.16 502.95 258.56 501.16 259.38 528.77 283.98 530.56 283.16"/><polygon class="j" points="533.39 259.58 500.79 284.02 499.31 282.81 531.92 258.36 533.39 259.58"/><polygon class="j" points="550.07 283.16 522.45 258.56 520.66 259.38 548.27 283.98 550.07 283.16"/><polygon class="j" points="551.07 259.58 518.47 284.02 516.99 282.81 549.59 258.36 551.07 259.58"/><polygon class="j" points="567.74 283.16 540.13 258.56 538.34 259.38 565.95 283.98 567.74 283.16"/><polygon class="j" points="571.37 259.58 538.76 284.02 537.29 282.81 569.89 258.36 571.37 259.58"/><polygon class="j" points="588.04 283.16 560.43 258.56 558.64 259.38 586.25 283.98 588.04 283.16"/><polygon class="j" points="589.05 259.58 556.44 284.02 554.96 282.81 587.56 258.36 589.05 259.58"/><polygon class="j" points="605.71 283.16 578.1 258.56 576.31 259.38 603.92 283.98 605.71 283.16"/><polygon class="j" points="607.44 259.58 574.84 284.02 573.36 282.81 605.96 258.36 607.44 259.58"/><polygon class="j" points="624.11 283.16 596.5 258.56 594.71 259.38 622.32 283.98 624.11 283.16"/><polygon class="j" points="625.11 259.58 592.51 284.02 591.03 282.81 623.63 258.36 625.11 259.58"/><polygon class="j" points="641.78 283.16 614.17 258.56 612.38 259.38 639.99 283.98 641.78 283.16"/><polygon class="j" points="645.41 259.58 612.81 284.02 611.33 282.81 643.94 258.36 645.41 259.58"/><polygon class="j" points="662.09 283.16 634.47 258.56 632.68 259.38 660.29 283.98 662.09 283.16"/><polygon class="j" points="663.08 259.58 630.49 284.02 629.01 282.81 661.61 258.36 663.08 259.58"/><polygon class="j" points="679.76 283.16 652.14 258.56 650.36 259.38 677.97 283.98 679.76 283.16"/><polygon class="j" points="699.26 283.16 671.65 258.56 669.86 259.38 697.47 283.98 699.26 283.16"/><polygon class="j" points="700.26 259.58 667.66 284.02 666.18 282.81 698.79 258.36 700.26 259.58"/><polygon class="j" points="716.93 283.16 689.33 258.56 687.53 259.38 715.14 283.98 716.93 283.16"/><polygon class="j" points="720.57 259.58 687.96 284.02 686.49 282.81 719.09 258.36 720.57 259.58"/><polygon class="j" points="737.24 283.16 709.63 258.56 707.84 259.38 735.45 283.98 737.24 283.16"/><polygon class="j" points="738.24 259.58 705.63 284.02 704.16 282.81 736.76 258.36 738.24 259.58"/><polygon class="j" points="754.91 283.16 727.3 258.56 725.51 259.38 753.12 283.98 754.91 283.16"/><polygon class="j" points="757.84 259.58 725.24 284.02 723.76 282.81 756.36 258.36 757.84 259.58"/><polygon class="j" points="774.51 283.16 746.9 258.56 745.11 259.38 772.72 283.98 774.51 283.16"/><polygon class="j" points="775.51 259.58 742.91 284.02 741.43 282.81 774.04 258.36 775.51 259.58"/><polygon class="j" points="792.19 283.16 764.57 258.56 762.78 259.38 790.39 283.98 792.19 283.16"/><polygon class="j" points="795.82 259.58 763.21 284.02 761.73 282.81 794.34 258.36 795.82 259.58"/><polygon class="j" points="812.49 283.16 784.87 258.56 783.08 259.38 810.7 283.98 812.49 283.16"/><polygon class="j" points="813.49 259.58 780.88 284.02 779.41 282.81 812.01 258.36 813.49 259.58"/><polygon class="j" points="830.16 283.16 802.55 258.56 800.75 259.38 828.37 283.98 830.16 283.16"/><polygon class="j" points="832.99 259.58 800.39 284.02 798.91 282.81 831.52 258.36 832.99 259.58"/><polygon class="j" points="849.66 283.16 822.05 258.56 820.26 259.38 847.88 283.98 849.66 283.16"/><polygon class="j" points="850.67 259.58 818.06 284.02 816.59 282.81 849.19 258.36 850.67 259.58"/><polygon class="j" points="867.34 283.16 839.72 258.56 837.93 259.38 865.55 283.98 867.34 283.16"/><polygon class="j" points="870.97 259.58 838.37 284.02 836.88 282.81 869.49 258.36 870.97 259.58"/><polygon class="j" points="887.64 283.16 860.03 258.56 858.23 259.38 885.84 283.98 887.64 283.16"/><polygon class="j" points="888.64 259.58 856.04 284.02 854.56 282.81 887.16 258.36 888.64 259.58"/><polygon class="j" points="905.31 283.16 877.7 258.56 875.91 259.38 903.52 283.98 905.31 283.16"/><polygon class="j" points="907.04 259.58 874.43 284.02 872.96 282.81 905.56 258.36 907.04 259.58"/><polygon class="j" points="923.71 283.16 896.09 258.56 894.3 259.38 921.92 283.98 923.71 283.16"/><polygon class="j" points="924.71 259.58 892.11 284.02 890.63 282.81 923.23 258.36 924.71 259.58"/><polygon class="j" points="941.38 283.16 913.77 258.56 911.98 259.38 939.59 283.98 941.38 283.16"/><polygon class="j" points="945.02 259.58 912.41 284.02 910.93 282.81 943.53 258.36 945.02 259.58"/><polygon class="j" points="961.68 283.16 934.07 258.56 932.28 259.38 959.89 283.98 961.68 283.16"/><polygon class="j" points="962.68 259.58 930.08 284.02 928.6 282.81 961.21 258.36 962.68 259.58"/><polygon class="j" points="979.36 283.16 951.74 258.56 949.95 259.38 977.56 283.98 979.36 283.16"/><polygon class="j" points="998.86 283.16 971.24 258.56 969.46 259.38 997.07 283.98 998.86 283.16"/><polygon class="j" points="999.86 259.58 967.26 284.02 965.78 282.81 998.39 258.36 999.86 259.58"/><polygon class="j" points="1016.53 283.16 988.92 258.56 987.13 259.38 1014.74 283.98 1016.53 283.16"/><polygon class="j" points="1020.16 259.58 987.56 284.02 986.08 282.81 1018.69 258.36 1020.16 259.58"/><polygon class="j" points="1036.83 283.16 1009.22 258.56 1007.43 259.38 1035.04 283.98 1036.83 283.16"/><polygon class="j" points="1037.84 259.58 1005.24 284.02 1003.75 282.81 1036.36 258.36 1037.84 259.58"/><polygon class="j" points="1054.51 283.16 1026.89 258.56 1025.11 259.38 1052.72 283.98 1054.51 283.16"/><polygon class="j" points="1073.97 259.36 438.53 260.32 438.52 258.64 1073.94 257.68 1073.97 259.36"/><rect class="j" x="1168.53" y="244.91" width="32.72" height="59.71"/><rect class="j" x="1035.72" y="257.7" width="53.74" height="23.66"/><rect class="j" x="1003.78" y="258.5" width="26.88" height="22.85"/><rect class="j" x="1115.95" y="256.86" width="53.75" height="24.5"/><rect class="j" x="935.62" y="271.86" width="272.45" height="13.05"/><polyline class="j" points="420.24 283.97 415.23 284 416.86 282.18 418.96 282.29 420.24 283.85"/><rect class="j" x="986.54" y="219.59" width="21.42" height="18.13"/><polygon class="j" points="981.01 258.14 978.97 258.04 981.46 237.33 983.5 237.42 981.01 258.14"/><polygon class="j" points="1010.56 235.91 1008.55 236.22 1014.91 260 1016.92 259.7 1010.56 235.91"/><polygon class="j" points="1001.65 258.03 999.64 257.79 1006.01 237.41 1008.01 237.65 1001.65 258.03"/><polygon class="j" points="981.29 257.04 979.85 256.12 1005.95 236.97 1007.41 237.89 981.29 257.04"/><polygon class="j" points="1012.73 259.72 1013.82 258.34 981.6 239.29 980.51 240.67 1012.73 259.72"/><polygon class="j" points="1161.08 259.82 1164.02 259.06 1001.48 220.7 998.54 221.47 1161.08 259.82"/><polygon class="j" points="1155.86 266.62 1158.8 265.85 996.26 227.5 993.32 228.26 1155.86 266.62"/><polygon class="j" points="1154.05 264.38 1156.82 263.48 995.34 233.03 992.56 233.94 1154.05 264.38"/><polygon class="j" points="982.14 244.65 981.14 243.55 1006.5 236.26 1007.5 237.36 982.14 244.65"/><polygon class="j" points="981.46 237.33 1008.99 235.89 1010.69 238.99 1013.1 246.73 1004.96 247.43 1003.15 237.62 982.7 238.81 981.46 237.33"/><polygon class="j" points="1147.26 958.73 1147.26 913.46 1218.08 913.46 1218.08 894.87 1296.69 894.87 1296.69 953.88 1296.69 960.35 1147.26 958.73"/><polygon class="j" points="1272.84 937.37 1241.16 964.62 1240.18 963.41 1271.85 936.16 1272.84 937.37"/><polygon class="j" points="1273.59 923.28 1241.92 950.53 1240.93 949.32 1272.6 922.07 1273.59 923.28"/><polygon class="j" points="1273.39 914.5 1241.87 936.78 1241 935.48 1272.52 913.2 1273.39 914.5"/><polygon class="j" points="1273.39 905.99 1241.87 928.27 1241 926.97 1272.52 904.69 1273.39 905.99"/><polygon class="j" points="1273.39 894.91 1241.87 917.19 1241 915.89 1272.52 893.62 1273.39 894.91"/><polygon class="j" points="1273.39 884.56 1241.87 906.84 1241 905.54 1272.52 883.26 1273.39 884.56"/><polygon class="j" points="1273.39 873.9 1241.87 896.18 1241 894.88 1272.52 872.61 1273.39 873.9"/><polygon class="j" points="1273.39 864.42 1241.87 886.7 1241 885.41 1272.52 863.12 1273.39 864.42"/><polygon class="j" points="1273.18 854.24 1241.66 876.52 1240.79 875.22 1272.31 852.94 1273.18 854.24"/><polygon class="j" points="1273.18 845.73 1241.66 868.01 1240.79 866.71 1272.31 844.43 1273.18 845.73"/><polygon class="j" points="1273.18 834.65 1241.66 856.93 1240.79 855.63 1272.31 833.35 1273.18 834.65"/><polygon class="j" points="1273.18 824.3 1241.66 846.58 1240.79 845.28 1272.31 823 1273.18 824.3"/><polygon class="j" points="1273.18 813.64 1241.66 835.92 1240.79 834.62 1272.31 812.34 1273.18 813.64"/><polygon class="j" points="1273.18 804.16 1241.66 826.44 1240.79 825.15 1272.31 802.86 1273.18 804.16"/><polygon class="j" points="1273.47 791.37 1241.95 813.65 1241.08 812.35 1272.6 790.07 1273.47 791.37"/><polygon class="j" points="1273.63 815.25 1242.11 792.97 1241.23 794.27 1272.76 816.55 1273.63 815.25"/><polygon class="j" points="1273.63 825.6 1242.11 803.32 1241.23 804.62 1272.76 826.9 1273.63 825.6"/><polygon class="j" points="1273.63 836.26 1242.11 813.98 1241.23 815.27 1272.76 837.55 1273.63 836.26"/><polygon class="j" points="1273.63 845.74 1242.11 823.45 1241.23 824.76 1272.76 847.03 1273.63 845.74"/><polygon class="j" points="1273.42 855.92 1241.89 833.64 1241.02 834.94 1272.55 857.22 1273.42 855.92"/><polygon class="j" points="1273.42 864.43 1241.89 842.15 1241.02 843.45 1272.55 865.73 1273.42 864.43"/><polygon class="j" points="1273.42 875.51 1241.89 853.23 1241.02 854.53 1272.55 876.81 1273.42 875.51"/><polygon class="j" points="1273.42 885.86 1241.89 863.58 1241.02 864.88 1272.55 887.16 1273.42 885.86"/><polygon class="j" points="1273.42 896.52 1241.89 874.24 1241.02 875.54 1272.55 897.82 1273.42 896.52"/><polygon class="j" points="1273.42 906 1241.89 883.72 1241.02 885.02 1272.55 907.29 1273.42 906"/><polygon class="j" points="1273.7 918.8 1242.18 896.51 1241.31 897.81 1272.84 920.09 1273.7 918.8"/><polygon class="j" points="1273.47 780.71 1241.95 802.99 1241.08 801.69 1272.6 779.41 1273.47 780.71"/><polygon class="j" points="1273.47 771.23 1241.95 793.51 1241.08 792.21 1272.6 769.93 1273.47 771.23"/><polygon class="j" points="1273.26 761.05 1241.74 783.33 1240.87 782.03 1272.38 759.75 1273.26 761.05"/><polygon class="j" points="1273.26 752.53 1241.74 774.82 1240.87 773.51 1272.38 751.23 1273.26 752.53"/><polygon class="j" points="1273.26 741.46 1241.74 763.74 1240.87 762.44 1272.38 740.16 1273.26 741.46"/><polygon class="j" points="1273.26 731.1 1241.74 753.38 1240.87 752.08 1272.38 729.8 1273.26 731.1"/><polygon class="j" points="1273.26 720.45 1241.74 742.73 1240.87 741.43 1272.38 719.15 1273.26 720.45"/><polygon class="j" points="1273.26 710.97 1241.74 733.25 1240.87 731.95 1272.38 709.67 1273.26 710.97"/><polygon class="j" points="1272.81 742.29 1241.29 720.01 1240.42 721.31 1271.94 743.59 1272.81 742.29"/><polygon class="j" points="1272.6 752.47 1241.08 730.19 1240.21 731.49 1271.73 753.77 1272.6 752.47"/><polygon class="j" points="1272.6 760.98 1241.08 738.7 1240.21 740 1271.73 762.29 1272.6 760.98"/><polygon class="j" points="1272.6 772.06 1241.08 749.78 1240.21 751.08 1271.73 773.36 1272.6 772.06"/><polygon class="j" points="1272.6 782.42 1241.08 760.13 1240.21 761.43 1271.73 783.72 1272.6 782.42"/><polygon class="j" points="1272.6 793.07 1241.08 770.79 1240.21 772.09 1271.73 794.37 1272.6 793.07"/><polygon class="j" points="1272.6 802.55 1241.08 780.27 1240.21 781.57 1271.73 803.85 1272.6 802.55"/><polygon class="j" points="1272.54 699.53 1241.02 721.81 1240.14 720.51 1271.67 698.23 1272.54 699.53"/><polygon class="j" points="1272.54 688.88 1241.02 711.15 1240.14 709.86 1271.67 687.58 1272.54 688.88"/><polygon class="j" points="1272.54 679.4 1241.02 701.68 1240.14 700.38 1271.67 678.1 1272.54 679.4"/><polygon class="j" points="1272.08 704.84 1240.56 682.56 1239.69 683.87 1271.21 706.15 1272.08 704.84"/><polygon class="j" points="1271.36 716.28 1239.84 694 1238.97 695.3 1270.49 717.58 1271.36 716.28"/><polygon class="j" points="1271.36 726.94 1239.84 704.66 1238.97 705.96 1270.49 728.24 1271.36 726.94"/><polygon class="j" points="1272.33 669.21 1240.8 691.5 1239.93 690.2 1271.45 667.91 1272.33 669.21"/><polygon class="j" points="1272.33 660.7 1240.8 682.98 1239.93 681.68 1271.45 659.4 1272.33 660.7"/><polygon class="j" points="1272.33 649.62 1240.8 671.91 1239.93 670.61 1271.45 648.33 1272.33 649.62"/><polygon class="j" points="1272.33 639.27 1240.8 661.55 1239.93 660.25 1271.45 637.97 1272.33 639.27"/><polygon class="j" points="1272.33 628.61 1240.8 650.89 1239.93 649.6 1271.45 627.32 1272.33 628.61"/><polygon class="j" points="1272.33 619.13 1240.8 641.41 1239.93 640.12 1271.45 617.84 1272.33 619.13"/><polygon class="j" points="1273.01 607.31 1241.48 629.59 1240.62 628.29 1272.13 606.01 1273.01 607.31"/><polygon class="j" points="1273.01 596.65 1241.48 618.93 1240.62 617.63 1272.13 595.35 1273.01 596.65"/><polygon class="j" points="1273.01 587.17 1241.48 609.45 1240.62 608.15 1272.13 585.87 1273.01 587.17"/><polygon class="j" points="1272.79 576.99 1241.27 599.27 1240.4 597.97 1271.92 575.69 1272.79 576.99"/><polygon class="j" points="1272.79 568.48 1241.27 590.75 1240.4 589.46 1271.92 567.17 1272.79 568.48"/><polygon class="j" points="1272.79 557.4 1241.27 579.68 1240.4 578.38 1271.92 556.1 1272.79 557.4"/><polygon class="j" points="1272.79 547.04 1241.27 569.32 1240.4 568.03 1271.92 545.75 1272.79 547.04"/><polygon class="j" points="1272.79 536.39 1241.27 558.67 1240.4 557.37 1271.92 535.09 1272.79 536.39"/><polygon class="j" points="1272.79 526.91 1241.27 549.19 1240.4 547.89 1271.92 525.61 1272.79 526.91"/><polygon class="j" points="1272.79 516.25 1241.27 538.53 1240.4 537.24 1271.92 514.96 1272.79 516.25"/><polygon class="j" points="1272.79 504.4 1241.27 526.69 1240.4 525.39 1271.92 503.11 1272.79 504.4"/><polygon class="j" points="1272.79 491.5 1241.27 513.78 1240.4 512.48 1271.92 490.2 1272.79 491.5"/><polygon class="j" points="1272.15 480.55 1240.63 502.83 1239.76 501.53 1271.28 479.25 1272.15 480.55"/><polygon class="j" points="1272.71 503.23 1241.19 480.95 1240.32 482.25 1271.84 504.53 1272.71 503.23"/><polygon class="j" points="1272.71 511.75 1241.19 489.46 1240.32 490.76 1271.84 513.04 1272.71 511.75"/><polygon class="j" points="1272.71 522.82 1241.19 500.54 1240.32 501.84 1271.84 524.12 1272.71 522.82"/><polygon class="j" points="1272.71 533.17 1241.19 510.89 1240.32 512.19 1271.84 534.47 1272.71 533.17"/><polygon class="j" points="1272.71 543.83 1241.19 521.55 1240.32 522.85 1271.84 545.13 1272.71 543.83"/><polygon class="j" points="1272.71 553.31 1241.19 531.03 1240.32 532.33 1271.84 554.61 1272.71 553.31"/><polygon class="j" points="1273.39 565.14 1241.87 542.86 1241 544.16 1272.52 566.44 1273.39 565.14"/><polygon class="j" points="1273.39 575.8 1241.87 553.52 1241 554.81 1272.52 577.09 1273.39 575.8"/><polygon class="j" points="1273.39 585.27 1241.87 563 1241 564.29 1272.52 586.57 1273.39 585.27"/><polygon class="j" points="1273.18 595.46 1241.66 573.18 1240.79 574.48 1272.31 596.76 1273.18 595.46"/><polygon class="j" points="1273.18 603.97 1241.66 581.69 1240.79 582.99 1272.31 605.27 1273.18 603.97"/><polygon class="j" points="1273.18 615.05 1241.66 592.77 1240.79 594.07 1272.31 616.35 1273.18 615.05"/><polygon class="j" points="1273.18 625.4 1241.66 603.12 1240.79 604.42 1272.31 626.7 1273.18 625.4"/><polygon class="j" points="1273.18 636.06 1241.66 613.78 1240.79 615.08 1272.31 637.36 1273.18 636.06"/><polygon class="j" points="1273.18 645.54 1241.66 623.26 1240.79 624.56 1272.31 646.84 1273.18 645.54"/><polygon class="j" points="1273.18 656.19 1241.66 633.91 1240.79 635.21 1272.31 657.49 1273.18 656.19"/><polygon class="j" points="1273.18 668.04 1241.66 645.76 1240.79 647.06 1272.31 669.34 1273.18 668.04"/><polygon class="j" points="1273.18 680.94 1241.66 658.66 1240.79 659.96 1272.31 682.25 1273.18 680.94"/><polygon class="j" points="1270.88 690.2 1239.35 667.91 1238.48 669.21 1270.01 691.5 1270.88 690.2"/><polygon class="j" points="1272.16 939.01 1241.09 915.83 1241.99 914.55 1273.06 937.74 1272.16 939.01"/><polygon class="j" points="1272.23 952.84 1271.36 484.9 1272.89 484.89 1273.76 952.81 1272.23 952.84"/><polygon class="j" points="1256.76 952.84 1255.89 484.9 1257.42 484.89 1258.3 952.81 1256.76 952.84"/><polygon class="j" points="1240.86 952.84 1239.98 484.9 1241.52 484.89 1242.39 952.81 1240.86 952.84"/><rect class="j" x="1232.91" y="443.06" width="47.44" height="48.76"/><polygon class="j" points="1349.33 444.91 844.37 446.16 844.36 443.96 1349.31 442.7 1349.33 444.91"/><polygon class="j" points="875.94 413.1 850.03 445.1 848.85 443.51 874.76 411.5 875.94 413.1"/><polygon class="j" points="861.53 412.8 843.83 445.07 842.44 443.79 860.14 411.53 861.53 412.8"/><polygon class="j" points="889.18 443.97 867.24 411.76 865.82 412.84 887.76 445.05 889.18 443.97"/><polygon class="j" points="889.98 413.1 864.07 445.1 862.9 443.51 888.81 411.5 889.98 413.1"/><polygon class="j" points="903.23 443.97 881.28 411.76 879.86 412.84 901.8 445.05 903.23 443.97"/><polygon class="j" points="906.11 413.1 880.21 445.1 879.03 443.51 904.94 411.5 906.11 413.1"/><polygon class="j" points="919.36 443.97 897.41 411.76 896 412.84 917.94 445.05 919.36 443.97"/><polygon class="j" points="920.16 413.1 894.25 445.1 893.08 443.51 918.98 411.5 920.16 413.1"/><polygon class="j" points="933.41 443.97 911.47 411.76 910.04 412.84 931.98 445.05 933.41 443.97"/><polygon class="j" points="935.65 413.1 909.75 445.1 908.57 443.51 934.49 411.5 935.65 413.1"/><polygon class="j" points="948.91 443.97 926.96 411.76 925.54 412.84 947.48 445.05 948.91 443.97"/><polygon class="j" points="949.7 413.1 923.8 445.1 922.62 443.51 948.53 411.5 949.7 413.1"/><polygon class="j" points="962.95 443.97 941.01 411.76 939.59 412.84 961.53 445.05 962.95 443.97"/><polygon class="j" points="965.84 413.1 939.92 445.1 938.75 443.51 964.66 411.5 965.84 413.1"/><polygon class="j" points="979.08 443.97 957.14 411.76 955.72 412.84 977.66 445.05 979.08 443.97"/><polygon class="j" points="979.88 413.1 953.97 445.1 952.8 443.51 978.71 411.5 979.88 413.1"/><polygon class="j" points="993.13 443.97 971.18 411.76 969.76 412.84 991.7 445.05 993.13 443.97"/><polygon class="j" points="994.5 413.1 968.59 445.1 967.41 443.51 993.32 411.5 994.5 413.1"/><polygon class="j" points="1007.75 443.97 985.8 411.76 984.38 412.84 1006.32 445.05 1007.75 443.97"/><polygon class="j" points="1008.54 413.1 982.63 445.1 981.46 443.51 1007.37 411.5 1008.54 413.1"/><polygon class="j" points="1021.79 443.97 999.85 411.76 998.42 412.84 1020.37 445.05 1021.79 443.97"/><polygon class="j" points="1024.67 413.1 998.77 445.1 997.59 443.51 1023.5 411.5 1024.67 413.1"/><polygon class="j" points="1037.93 443.97 1015.98 411.76 1014.56 412.84 1036.5 445.05 1037.93 443.97"/><polygon class="j" points="1038.72 413.1 1012.81 445.1 1011.64 443.51 1037.54 411.5 1038.72 413.1"/><polygon class="j" points="1051.97 443.97 1030.02 411.76 1028.6 412.84 1050.55 445.05 1051.97 443.97"/><polygon class="j" points="1067.47 443.97 1045.52 411.76 1044.1 412.84 1066.04 445.05 1067.47 443.97"/><polygon class="j" points="1068.26 413.1 1042.36 445.1 1041.18 443.51 1067.09 411.5 1068.26 413.1"/><polygon class="j" points="1081.51 443.97 1059.57 411.76 1058.14 412.84 1080.09 445.05 1081.51 443.97"/><polygon class="j" points="1084.4 413.1 1058.49 445.1 1057.32 443.51 1083.22 411.5 1084.4 413.1"/><polygon class="j" points="1097.65 443.97 1075.7 411.76 1074.28 412.84 1096.22 445.05 1097.65 443.97"/><polygon class="j" points="1098.44 413.1 1072.53 445.1 1071.36 443.51 1097.27 411.5 1098.44 413.1"/><polygon class="j" points="1111.69 443.97 1089.74 411.76 1088.32 412.84 1110.27 445.05 1111.69 443.97"/><polygon class="j" points="1114.02 413.1 1088.11 445.1 1086.93 443.51 1112.84 411.5 1114.02 413.1"/><polygon class="j" points="1127.26 443.97 1105.32 411.76 1103.9 412.84 1125.84 445.05 1127.26 443.97"/><polygon class="j" points="1128.06 413.1 1102.15 445.1 1100.98 443.51 1126.89 411.5 1128.06 413.1"/><polygon class="j" points="1141.31 443.97 1119.37 411.76 1117.94 412.84 1139.88 445.05 1141.31 443.97"/><polygon class="j" points="1144.19 413.1 1118.28 445.1 1117.11 443.51 1143.02 411.5 1144.19 413.1"/><polygon class="j" points="1157.44 443.97 1135.5 411.76 1134.08 412.84 1156.02 445.05 1157.44 443.97"/><polygon class="j" points="1158.23 413.1 1132.33 445.1 1131.15 443.51 1157.06 411.5 1158.23 413.1"/><polygon class="j" points="1171.49 443.97 1149.54 411.76 1148.12 412.84 1170.06 445.05 1171.49 443.97"/><polygon class="j" points="1173.74 413.1 1147.83 445.1 1146.66 443.51 1172.57 411.5 1173.74 413.1"/><polygon class="j" points="1186.99 443.97 1165.04 411.76 1163.62 412.84 1185.56 445.05 1186.99 443.97"/><polygon class="j" points="1187.78 413.1 1161.87 445.1 1160.7 443.51 1186.61 411.5 1187.78 413.1"/><polygon class="j" points="1201.03 443.97 1179.09 411.76 1177.66 412.84 1199.61 445.05 1201.03 443.97"/><polygon class="j" points="1203.91 413.1 1178.01 445.1 1176.83 443.51 1202.74 411.5 1203.91 413.1"/><polygon class="j" points="1217.16 443.97 1195.22 411.76 1193.8 412.84 1215.74 445.05 1217.16 443.97"/><polygon class="j" points="1217.96 413.1 1192.05 445.1 1190.87 443.51 1216.78 411.5 1217.96 413.1"/><polygon class="j" points="1231.21 443.97 1209.27 411.76 1207.84 412.84 1229.78 445.05 1231.21 443.97"/><polygon class="j" points="1232.58 413.1 1206.67 445.1 1205.49 443.51 1231.4 411.5 1232.58 413.1"/><polygon class="j" points="1245.83 443.97 1223.88 411.76 1222.46 412.84 1244.4 445.05 1245.83 443.97"/><polygon class="j" points="1246.62 413.1 1220.71 445.1 1219.54 443.51 1245.45 411.5 1246.62 413.1"/><polygon class="j" points="1259.87 443.97 1237.93 411.76 1236.51 412.84 1258.44 445.05 1259.87 443.97"/><polygon class="j" points="1262.76 413.1 1236.85 445.1 1235.67 443.51 1261.58 411.5 1262.76 413.1"/><polygon class="j" points="1276 443.97 1254.06 411.76 1252.64 412.84 1274.58 445.05 1276 443.97"/><polygon class="j" points="1276.8 413.1 1250.89 445.1 1249.71 443.51 1275.63 411.5 1276.8 413.1"/><polygon class="j" points="1290.05 443.97 1268.1 411.76 1266.68 412.84 1288.62 445.05 1290.05 443.97"/><polygon class="j" points="1305.55 443.97 1283.6 411.76 1282.18 412.84 1304.12 445.05 1305.55 443.97"/><polygon class="j" points="1306.34 413.1 1280.43 445.1 1279.26 443.51 1305.17 411.5 1306.34 413.1"/><polygon class="j" points="1319.59 443.97 1297.65 411.76 1296.22 412.84 1318.17 445.05 1319.59 443.97"/><polygon class="j" points="1322.47 413.1 1296.57 445.1 1295.39 443.51 1321.3 411.5 1322.47 413.1"/><polygon class="j" points="1335.72 443.97 1313.78 411.76 1312.36 412.84 1334.3 445.05 1335.72 443.97"/><polygon class="j" points="1336.52 413.1 1310.61 445.1 1309.43 443.51 1335.34 411.5 1336.52 413.1"/><polygon class="j" points="1349.77 443.97 1327.82 411.76 1326.41 412.84 1348.35 445.05 1349.77 443.97"/><polygon class="j" points="1365.23 412.81 860.27 414.06 860.26 411.86 1365.21 410.61 1365.23 412.81"/><rect class="j" x="1334.83" y="410.63" width="42.71" height="30.98"/><rect class="j" x="1309.45" y="411.68" width="21.36" height="29.92"/><rect class="j" x="1398.59" y="409.53" width="42.71" height="32.08"/><rect class="j" x="1255.29" y="429.17" width="216.5" height="17.09"/><polyline class="j" points="845.74 445.04 841.76 445.07 843.05 442.69 844.72 442.83 845.74 444.88"/><rect class="j" x="1243.58" y="343.96" width="22.45" height="31.31"/><polygon class="j" points="1237.79 411.79 1235.65 411.63 1238.25 374.6 1240.39 374.77 1237.79 411.79"/><polygon class="j" points="1268.76 372.15 1266.65 372.68 1273.8 412.25 1275.43 413.24 1268.76 372.15"/><polygon class="j" points="1259.42 412.04 1257.32 411.63 1263.98 374.73 1266.09 375.15 1259.42 412.04"/><polygon class="j" points="1238.08 408.65 1236.56 407.06 1263.93 373.98 1265.45 375.57 1238.08 408.65"/><polygon class="j" points="1270.49 412.67 1272.17 410.89 1238.4 377.98 1237.26 380.38 1270.49 412.67"/><polygon class="j" points="1426.53 413.45 1429.61 412.13 1259.24 345.88 1256.16 347.21 1426.53 413.45"/><polygon class="j" points="1421.06 425.19 1424.13 423.86 1253.76 357.62 1250.69 358.95 1421.06 425.19"/><polygon class="j" points="1419.15 421.33 1422.06 419.77 1252.8 367.18 1249.89 368.75 1419.15 421.33"/><polygon class="j" points="1238.96 387.25 1237.92 385.36 1264.5 372.76 1265.55 374.65 1238.96 387.25"/><polygon class="j" points="1238.25 374.6 1267.11 372.11 1268.89 377.48 1271.42 390.83 1262.89 392.05 1260.98 375.11 1239.55 377.15 1238.25 374.6"/><rect class="i" x="-51.55" y="949.34" width="1501.85" height="65.47"/><path class="k" d="M701.71,923.31a34.42,34.42,0,1,1-30.15-38.23A34.43,34.43,0,0,1,701.71,923.31Z"/><path class="k" d="M581,920.27a39.76,39.76,0,1,1-34.81-44.15A39.75,39.75,0,0,1,581,920.27Z"/><path class="k" d="M769,823.93l-9.14-2.55s-8.74,14.75-13.87,15.45-22.32-30.71-22.32-30.71-.42-.54-7.51,5-.49,17.85-.49,17.85l-8.43,6.65c-8,1.33-10.59-1.25-10.59-1.25l-2.33,1.83c-1.17.92-40.08,7.31-41.21,7.18l-2.4-.29-3.41,2.69,5.07,3.85-18,12.85-17.28-1.07-7.91-33.64c-.64-2.84,2-1.55,2-1.55,3-2.34.93-7.87.93-7.87s-.71-.9-6.59.69-1.71,14.44-1.71,14.44l-1.76-.21-3.69-10.11,1.44.17.18-5.68-18.37-2.17c.72-.57-1.06-1.35-1.06-1.35s-18.55,1.39-21.6,1-1.79,1.41-1.79,1.41l-27.36,3,.3,5.72,1.92.23-5.89,38.85-9.69,2.11-11,8.63L505,863.38s2-1.59,2.14-2.63-3.47-4.4-3.47-4.4-9.38-23.89-11-28.15S490.5,826,490.5,826l-8.17-21,.38-3.29-4.17-5.3-6.85,1.47L448.81,840.1l-4.08,1.47a59,59,0,0,0-2.65,5.87c-.75,2.19-8.76,5.31-10.41,8.21s-1.84,15.56-1.84,15.56l-25.14,46.17-6.6,3.45,6.18,20,1.52-1.2c1.28,1.62,4.78,3.66,4.78,3.66,17.81,2.1,19-3.21,22.15-5.68s6.39-18.28,6.39-18.28l2.34-4.61-15.26,10.73-16,3-2.2-2.79,1.08-.84,29.39-50.47,3.13.37L470,834.63l2.77,1.3s17.45,70.58,18.72,80.49,4.12,7.81,4.12,7.81l9-.4,19-31.6,33.59-6.11,18,32.07L591,929.65l17.51-.86,1.8-1.42,9.16-.38,3.23-2.55,17.27-.23,2.27-12.08L660,894.19l30.63,3.62a110.68,110.68,0,0,0,3.64-15.68c.76-6.41-3.42-8.21-3.42-8.21-11.5-4.61-38.61-9.28-38.61-9.28l11.06-6.83c23.48,6.52,63.44-5.35,63.44-5.35,11.23,8.32,18.41,4,22.53,2.17s3.48-7.4,3.48-7.4C765.13,838.77,769,823.93,769,823.93Zm-276.33,29.6L477,824.24l2-2.69,1.85-10.09L487,826.94c-1,.75-.37,3.1-.37,3.1l10,24.72Zm3.61,53.79.21-29.84,1.22-2.32-.4,28.3Zm3.64-.43.24-34.14,1.4-2.66-.46,32.38Zm45.9-47.84-14.9.84,7.29-35.58,11.73-.08ZM601.6,885.5l-4.87.64-20.31-25.75-25.16-.53,4.21-35.63.06-.48,36.85-.63,7.1,25.73-4.49-.53c-3-.36-1.8,3.7-1.8,3.7a6.43,6.43,0,0,1-2,5.72l-3.89-5.42-.92.73-1.44-2.8,1.53-1.2c3.32-2.43,4.5-4.08,2.65-5.87s-11.72,7.34-12.2,7.29-2.69,2.12-.51,3.41,6.74-2.4,6.74-2.4l2,2.48-1,.78,3.38,4.27.45-.35,1.46,1.85L588,861.6c-2,3.5,14.07,20,14.07,20Zm5.71-24.22-4-24.24,1.86.14,5.16,24.45Zm90.31-17.15s-10.81.59-22.52,1.89-15.42-.35-15.42-.35l37.44-6.32,3.72,2.23Zm15-1-3.31-1.53,1.85-2,6.23.33,2.09,2.65Zm1.88-6.94,3.47-2.74c.18,1,2.67,2.6,2.67,2.6Z"/><path class="l" d="M1454.9,722.37c-2.23-8.79-1.61-12.14-1.61-17s.87-11.27.87-14.49-3.29-3.28-1.86-4.7,3.1-3,.12-8.3-2-4.08-2-7.8a77.11,77.11,0,0,0-.74-12.14c-.75-5.44-.62-13.12-1.24-15.84a105.21,105.21,0,0,0-4.33-12.88c-1.12-2.36-4.71-12.88-4.71-14.37s1.86-7.18,1.86-9.9a48.31,48.31,0,0,0-2.36-16c-2.35-6.81-12.63-8.54-12.63-8.54a5.44,5.44,0,0,0-1.36-3.47c-1.36-1.36-2.85,0-7.06,0s-46.74-11.45-46.74-11.45-1.55-1.55-4.77-10-7.55-5.7-7.55-5.7a19.61,19.61,0,0,1-1.12-5.07v-9.17c0-1.49,3.1-10.52,2.48-13.25s-1-8.91.62-13.12-1.24-13.13-2.72-18.08-2.54-7-6.45-10.9-26-10.53-32.44-9.16-11,5.45-25.76,15-15.41,25.32-13.74,27,7.31,0,7.93.62,0,7.19,1,9.91.74,7.68.74,7.68c-6.32,0-4.09,5.2-4.09,5.2,2.73,9.78,9.29,9.29,9.29,9.29,1.55,1.54,1.24,3.46.62,6.81s3.84,2,3.84,2a9.27,9.27,0,0,0,2.85,8c3.77,3.77,7.18,11.51,7.18,11.51h-28c-4.7,0-9.16,1.24-17.33,4.71S1256.28,591,1253.55,591s-3.22,0-7.43,1.86-6.44,0-9.66-1.11-7.8,1.11-12.63-.25-3-6.44-4.46-7.93,0-6.44,2.73-9.16,5.69-13.87,5.69-20.8,3.91-17.65,4.83-18.58,0-6.31,0-6.31.75-6.2,7.56-10.16,9.53-9.53,10.28-12.75,4.33-19.07,4.33-19.07l4.71-3.09,1,1L1290,468.15l13,1,2.11,2.1,18.2-5.7.25-2.35,7.43-3.34-5.08-13.62,9.53-6.69s-.62-2.72-1.36-3.47-2.23.75-2.23.75-1.24-2.73-3.34-2.73-4.34-2.35-4.34-2.35-13.25-23.53-40.49-20.06-35.54,25.26-35.54,28.48-.86,21.67,2.23,29.72-1,8.79-1,8.79-3.71.13-7.43.13-5.2,2.22-7.43,2.22-5.2,2.23-13.37,6-9.91,18.57-9.91,23-2.1,8.42-2.1,10.27-3.72,3.72-6.32,6.32-11.89,6.19-11.89,8.92,0,12.63-2.22,17.58S1175,596.93,1175,610.3s11.89,14.86,20.31,19.07,39.13,13.13,44.09,13.13,26.25,11.88,26.25,11.88a83.58,83.58,0,0,1-3.47,19.32c-3,8.92-3,36.66-3,48.54v30.22s4.46,27.24-5,53.49,13.49,20.19,13.49,20.19-3.34,12.13-5.2,19.68a130.05,130.05,0,0,0-4,38.39c.74,18.33-2.35,50.77.37,63.65s.87,39.87,4.09,50.64,1.24,29.85,3.46,46.19,1,20.19.38,34.8-3.84,22.66-3,26.25,8.3,5.57,8.3,6.94a4.72,4.72,0,0,1-1.49,4.08c-1.54,1.55-9.1,12.2-11.64,14.74s-2.72,4.46-3.83,5.57l-2.85,2.85c-1,1-4.83,1.73-8.55,1.73s-3.71,1-5,2.23-8.17.62-10.28,1.36-9.66,0-12.75,5.58,11,7,14.61,7,60.92,5.58,70.71,5.58,54.91-.68,55.47-1.24,11.4-3.72,11.4-3.72-2.73-9.29-2.73-13.74.74-4,.74-5.57,1.12-4.71,1.12-8.3,1.85-5.08,1.85-6.56-1.11-2.73-3-6,0-2.1,1.24-3.34,1.11-3.34,3.59-10.16,7.68-18.69,7.68-23.77,2.72-10,4.09-18.7,1.73-14,3.09-20.8,2.48-25.76,2.48-26.63,1.61-26.37,1.61-33.06a124.62,124.62,0,0,1,1.36-21.17c1.24-7.18,1.86-13.25,1.86-13.25l48.17-44.7s-2.73-43.72-2.73-45.33a8.32,8.32,0,0,1,2.11-5.32c1.36-1.36,5.57-8,6.19-10s1.49-3.22,2.35-6.94-1.11-8.42-1.11-8.42,3,0,4-1,0-5.32-1.73-11,.74-15.24,2.6-25,3.59-17.59,3.59-19.44V750C1456.51,743.66,1457.13,731.16,1454.9,722.37ZM1335.53,1075.9c0,4-3.22,10.15-8.42,15.35s-9.42,29.23-9.42,29.23c0-7.43,5-20.29,1-24.27s0-21.3,3.46-31.7,0-49,0-63.4-3.46-12.88-3.46-20.31,10.89-42.1,10.89-42.1v9.41c0,9.41,3,17.33,3,27.24s0,19.32,3,22.29S1335.53,1071.94,1335.53,1075.9Z"/><path class="l" d="M1149.46,520.88s20.2-9.68,11.36-14.09c0,0-8.21-3.16-10.31-3.16,0,0,1.68-5.06-5.9-8,0,0-1.89-21.68-23.36-30.31,0,0-4.42-5.48-15.16-3.38,0,0-4.42-2.73-12.84,1.9,0,0-7,1.05-10.32,4.42,0,0-11.78-2.11-21.26,27.37,0,0-2.52,12-2.52,15.15,0,0-11.16,9.26-3.37,22.11,0,0,7.79,6.31,11.16,7.37,0,0,5.89,11.15,4.84,23.57s-1.06,8.21-1.06,8.21l-10.1.21a6.87,6.87,0,0,0-4.53,4.53c-1.15,3.68-7.89,17.57-7.89,17.57s-1.37,1.58-.21,2.74-5-.21-8.84,3.58-18.1,11.58-23,16.42-4.83,2.32-9.68,9.68-12.63,15.16-15.15,20.42-5.48,12.84-5.48,17.47,1.47,9.05,1.47,11.58,1.9,2.52,1.9,6.74-3,38.94-3,50.09v20c0,9.26,1.27,20.64,4,26.32s11.79,13.47,20.21,14.73,15.79,4.63,23.79,4.63c0,0-1.06,6.32,1.26,8.63s3.16,2.53,2.32,5.48-7.59,19.57-8.43,25-3.36,15.57-3.36,21.05-1.69,11.58-.42,18.31-.22,7.79,2.31,10.32,4,.84,4,6.94,3.58,7.37,1.26,13.47-5.47,8-5.47,12.63.21,13.9,3.79,20.84,3,6.11,3,12.21-7.37,19-6.32,33.05,4,24.42,1,27.37-6.31,12.63-8.2,19.37-4.43,22.94-4.43,38.1.85,55.36,2.75,62.1.62,29.47-1.9,33.89-6.1,4-6.1,7.15,8.2,6.32,9,10.32,2.1,3.16,2.1,7.58-2.1,8.84-1,12.42,4.52,7,4.52,7a5.78,5.78,0,0,1,5.37,3.89c1.48,4,1.16,13.58,6.11,18.53s21.47,14.94,30.94,14.94,22.31-2.94,19.79-10.31-6.21-21.37-12.63-27.79-6.42-9.89-6.42-12.63v-7.16a7.35,7.35,0,0,1,2.68-6c1.37-1.37,3.74-2.79,3.74-5.74s-.64-5.47-6.32-8.42-5.26-7.36-2.73-12.63,3.36-11.58,3.36-23.36-3.79-27.79-1.05-32.63,1.47-19.78,1.47-26.94,1.48-7.37,4.22-16,1.26-10.11,2.73-14.11,9-10.94,9-14.1c0,0-.42,11.16-2.1,25s-3.79,32.42-3.79,46.52-2.11,21.68,0,25.68,6.31,2.11,7.79,9.68-2.32,10.11-2.32,15.16,1.69,5.69.84,8.63-.84,9.9-.84,11.16.21,7.79.21,7.79,11,8.84,32.21,6.31v-2.94s16.63,2.31,23.15,6.31,29.06,11.79,46.11,7.37,13.47-10.31,11.78-12,1.27-5.47-8.1-8.1-28.31-12.11-30.84-14.63-3.47-6.21-5.26-8-1.79-3-1.79-3-3.06-8.84-5.16-10.94-2.52,2.52-3.36-.85,3.78-7.37,4.83-11.15-.2-10.74-1.26-16.21a65.31,65.31,0,0,1-1.05-13c0-3.16,3.16-16.63-1.48-27.79s-3.57-17.26-3.57-24.63v-15.57c0-1.69,7.16-3.37,9.68-22.32s3.79-39.79,5.89-48.63.85-33.05,6.11-42.94,3.37-22.94,3.37-28.63-1.47-25-2.53-32.21-.63-4.21-3.16-12.42-1.05-14.31-2.52-18.31.21-24.42-.63-25.26a2,2,0,0,1,1.68-3.37c2.74,0,19.79,2.32,19.79,2.32s1.68,2.1,8.84-1,100.83-33.69,100.83-33.69,4.21-.84,0-2.52-18.32-3.58-18.32-3.58.42-1.9-1.89-1.9-25.47-5-25.47-5v-4.63c0-1.26,3.16-4.42,1-6.52s-9-6.11-13.26-6.11a26,26,0,0,0-8.42,1.69l-1-16.84h-4.42l1.68,18.52s-6.53,3.15-10.52,3.15-11,.43-15.79-2.1-8.74-7.47-10.53-9.26-3.58-9.26-7.15-12.84a35.5,35.5,0,0,1-8.21-14.1c-1.27-4.64-.63-13.06-4.63-23s-2.32-15-2.32-21.26-3.37-25.89-7.15-31.58-7.8-11.79-11.8-13.68-7.78-4-8.73-6.63-7.9-9.58-10.11-11.79l-5.68-5.68s-.74-8.63,8.63-8.63,11-6.42,11-10,3.58-9.68,6.11-16.84.63-9,.63-15.37,3.16-8.84,3.16-12.63S1148.29,519.73,1149.46,520.88Z"/><path class="l" d="M-31.16,1180.33c3.7,2.09,10.47,3.7,15.14-7.42s51.29-120.39,51.29-120.39L64,979.28s4.47,1.21,5.92-2.41c0,0,3.32,1.75,4.47.6s-3-6.28-3-6.28l1.93-5.32s1.69-1.57-1.57-1.57l103-262.5s4.35.8,5.08.8.2,2.46,2.86,2.46v1.21s-1.63.72-1.63,1.63v5.86s-.61,2.27,2.26,2.27L208,936.82s-4.84,1.61-4.84,5.32l-6.92.81s-3.63.64-3.63,3.62,5.08,3,5.08,3l5.64-1s1.51,5.68,3.14,5.68c0,0,.54,3.51,9.73,3.51l19,177.1,3.43,30,22.57-.32-6.34-55.74,5.8-10.31L258.3,1096h-4.68l-11-104.26h5.81L280,1168.6l14.5-2.58,4.35-4.35-27.45-149.92-5.16-21.91,6.45-1.93v-2.26l7.41-2.26,3.22-6.12-1.77-1.77-7.57,2.09-3.71-3.71h-1.77L222.36,725.24l-6.12-26.1H214l.08-2.18h5.72l1.29-2.82V681.89l-3.22-2.09L208.18,678V674.8l10.64-1.29,1.45-1.45v-6.44l-2.1-.81h-7.9l-1-1V659l3.26-3.26h4.87l1-2.38-4.83-14.82-3.06-6.61v-6.12l-5-3.07v-11.6l14.22,2.66s1.57-3.51,1.57-11.24-1.21-11-1.21-11h-7.73v.73h-3s-.73-14.38-6.29-16.08-5.56-1-5.56-1-.48-10.64-5.31-12.09c0,0-5.44.85-6.05,12.09h-5.68s-8.46,2.29-9.54,17.52c0,.3-.05.57-.07.85h.07s-1.05,13.8-.07,0H166.6l-.36,3h-2.41v1h-2.42v8h2.78v1h2.18v3.26h9.42l.24,16.32h-1.21v-1.57h-4.95v1.81h-1.45v-.6H166.6v6l2.06.24s-3.5,5.8-4.71,8.58-2.54,6.65.72,12.21,6.77,5.56,6.77,5.56v4.47l-4.35,2s-3.87-1.21-3.87,1.33v4.47h-1.93v1.21s-3.39,0-3.39,1.69.12,3.63,3.63,3.63l.72,5.2,1.7.6-.12,8-30.34,75.29L57.67,958.09s-1.29-1.45-2.26,1.29-4.5,11.2-4.5,11.2-1.7,1.94,1.61,3L-31.65,1170.5S-34.87,1178.23-31.16,1180.33ZM214.62,786.48,201,717.67l4.91.8Zm-22.33-70.91h.82l17,88.47h8L235,938.68l-18.85-1.45L192.29,716.4Z"/><path class="l" d="M140.86,577.81S132.4,566,126.11,563.06c0,0,2.06-7.61,0-9.67s-3.86-12.81-6.77-12.81c0,0-17.16-21.75-57.28-12.81,0,0-24.18,6.77-27.56,33.84s-1.21,18.13-1.21,18.13,3.63,1,3.63,3.62v4.11c0,1.69-3.51,5.2-3.51,5.2s-14.62-5-22.84.12S-43.25,627.27-61,648.55s-44.79,48-60.26,71.86-21.92,36.75-23.85,38.68l-3.22,3.22,1.61,1.29s-21.27,48-22.89,62.53S-171.2,848-171.2,848s20.95,4.19,22.24,5.48,6.12,12.89,10.64,22.88,7.25,19.5,12.89,25.14,5.64-.65,5.64,9.34,10.15,22.56,10.15,31.59,4.83,9.67,9.67,18.69,8.38,14.83,8.38,19.34,6.44,5.48,1.29,10.63-27.72,28-31.91,39.33-4.83,12.88-11.28,24.49-29.81,33.68-32.87,36.74-10,7.41-10,14.5,1.61,9.67,0,11.28l-7.09,7.09c-4.51,4.51-5.8,1.94-9.35,9.35a45.35,45.35,0,0,1-10.31,14.18c-3.39,3.38-7.41,3.22-7.41,11.92s-1.46,14.35,0,15.8,23.52,1,37.06,4.51,76.06-4.84,84.11-4.84,15.63-3.87,15.63-7.57-.48-20.14-22.07-17.56-28.68-10-28.68-10l1.61-6.12s17.4-14.18,24.49-21.27,25.46-36.1,31.26-41.9,12.89-17.72,15.47-23.52,7.74-17.08,9.67-19,5.16-7.74,5.16-7.74,1.61,6.13,1.61,9.68,1.61,15.14,1.61,25.13,2.9,25.79,2.9,31.91,2.9,10.31,2.9,15.15S-31,1112-31,1115.54s3.54,11,3.54,12.25-3.38,4.67-6.12,7.41-1.93,9.67-1.93,9.67-1.29,11.6,2.89,15.79,9.67,6.12,16.12,6.12h77c6.77,0,35.13-6.12,35.13-6.12s-.48-14.67-8.7-15.79-18-.65-23.2-2.91-20.79-1.45-23.53-4.19-9.34-19.65-9.34-22.88,5.15-9,5.15-15.14,10-46.41,6.77-63.17-6.45-23.21-6.45-28,2.58-3.87,5.16-13.21,9.67-28.05,8.06-38.68S41.51,937,41.51,934.09s-2.58-12.89-5.8-20.3-18-27.4-20.63-33.84-8.7-21-10.31-22.56-11.28-13.22-14.18-21.6S-9.89,825-9.89,825s4.83,2.9,6.28,1.44,6.44-21.91,7.74-26.74S36,756.19,49.25,743s22.88-43.18,22.88-43.18,14.18,6.12,24.49,4.19,16.11-6.45,19.34-6.45,23.85,7.09,36.1-10.63,7.09-8.06,7.09-8.06,7.73-4.84,11.92-9,5.48-6.13,4.19-13.86-4.19-11.28-4.19-13.54-2.74-5-2.74-5a98.4,98.4,0,0,0,1.45-15.31c0-7.41,2.26-11.28,5.16-18s4.19-27.07,2.9-28.36-1.29-6-1.29-11.81-.48-8.72-2.92-8.72-4.86-.1-4.86,5.34-1.2,7.13-1.2,7.13-1.58.36-1.58-.36.25-3.26-4-3.26-3.39,3.14-3.39,3.14v4.47s-5.2-2.3-7.61,2.3-6.29.84-7.74,2.29a7.24,7.24,0,0,0-2.53,5.32c0,2.3,1.44,13.3,1.44,15.35s1.7,7.37,3,9.79,3,4.59,2.17,5.44-3.62,14.5-6,16.92-7.85,3.5-10.76,5.07-4.1-.36-4.83,3.51a14.28,14.28,0,0,1-4.41,7.55c-1.27,1.27-.55,4.29-.55,5.26s-3.14-4.59-3.14-7.73,1.33-3.15-4.59-3.15-10.76-1.09-14.14-3.38-8.94-1-8.94-1,17.64-4.83,20.9-3.75,10.15,2.42,9-8.46,2.17-6,3.5-8.46,1.33-4,1.33-7.13a36.4,36.4,0,0,0-.72-6.52s7,.48,7-5.56a10,10,0,0,0-4.47-8.58S139.29,586.87,140.86,577.81Z"/><path class="m" d="M621.73,366.85c-13.57-2.77-19.47-7.79-30.52-11.36-12.49-4-23.39-.58-31,1a8.37,8.37,0,0,0-12.79-2.08c-6.86-3.64-16.47-10.6-30.06-10.41-11.62.17-18.72,3.24-32.52,1.91-1.56-.15-2.87-.33-2.87-.33s1.26.44,2.79.92a80.26,80.26,0,0,0,14.61,2.88c5.65.59,11.17.54,16.94,1.64a40.88,40.88,0,0,1,14.53,5.85c5.45,3.41,9.39,6.89,13.85,10.32a10.39,10.39,0,0,0,.65,1.18,2.33,2.33,0,0,0-.38.39c-1.56,1.92-4.87,2.88-7.48,4-1.31,1.09,1.58,2.71,2.65,3.38a37.3,37.3,0,0,0,20.59,3.09c1.22-.34,4.45-1,3.52-2.46-2.17-1.86-5-3.74-6-6a2.44,2.44,0,0,0-.25-.48,10.84,10.84,0,0,0,.85-.81c5-1.93,9.69-4,15.67-5.6a40.79,40.79,0,0,1,15.61-1.33c5.83.64,11.1,2.29,16.67,3.39a80.47,80.47,0,0,0,14.82,1.53c1.6,0,2.94-.07,2.94-.07s-1.31-.21-2.86-.52"/><path class="m" d="M517.78,501.34c5.1,1.89,8.11,1.45,12.54,2.55,5,1.26,7.92,4.67,10.12,6.77a3.29,3.29,0,0,1,4.7,2c3,.21,7.69-.11,12.18,2.77,3.84,2.47,5.57,5,10.45,7.39.55.28,1,.49,1,.49s-.51-.11-1.12-.27a31.48,31.48,0,0,1-5.47-2.08c-2-1-3.83-2.14-6-3a16.11,16.11,0,0,0-6.07-1.07,64.94,64.94,0,0,0-6.76.57,2.94,2.94,0,0,1-.46.25.91.91,0,0,1,.05.21c.12,1,1,2,1.66,2.9.2.63-1.1.57-1.59.58a14.73,14.73,0,0,1-7.51-3.25c-.33-.37-1.26-1.27-.66-1.56a7.94,7.94,0,0,0,3.25-.76.67.67,0,0,1,.18-.11,3.69,3.69,0,0,1-.11-.45,55.79,55.79,0,0,0-4.07-5.12,15.94,15.94,0,0,0-4.92-3.69c-2.08-1-4.18-1.54-6.27-2.33a31.62,31.62,0,0,1-5.25-2.57c-.53-.33-1-.63-1-.63l1.06.42"/><path class="m" d="M532.82,582c4.68-.28,6.89-1.68,10.76-2.35,4.38-.74,7.86.93,10.33,1.82a2.88,2.88,0,0,1,2.2-1.09,2.93,2.93,0,0,1,2.18,1c2.47-.89,6-2.76,10.56-2,3.88.62,6.11,2,10.79,2.2l1,0-1,.18a27.47,27.47,0,0,1-5,.26c-1.91-.07-3.76-.35-5.74-.26a13.9,13.9,0,0,0-5.15,1.27,54,54,0,0,0-5.13,2.79,2.42,2.42,0,0,1-.27.36l.11.15a6.78,6.78,0,0,0,2.31,1.7c.38.43-.66.84-1,1a12.58,12.58,0,0,1-7,0c-.39-.17-1.44-.56-1.06-1a6.9,6.9,0,0,0,2.29-1.74.72.72,0,0,1,.11-.15,1.89,1.89,0,0,1-.25-.31,51,51,0,0,0-5-2.62,13.8,13.8,0,0,0-5.16-1.19c-2-.07-3.83.24-5.74.34a27.75,27.75,0,0,1-5-.2l-1-.16,1,0"/><path class="m" d="M616.89,560.74c3.48-1.08,4.9-2.54,7.7-3.76,3.17-1.37,6.11-.75,8.13-.53a2.21,2.21,0,0,1,3.3-.88c1.7-1.13,4-3.19,7.61-3.49,3-.26,5,.37,8.56-.34l.74-.16s-.32.15-.71.31a20.25,20.25,0,0,1-3.75,1.13c-1.46.3-2.91.43-4.39.87a10.88,10.88,0,0,0-3.66,1.9,41,41,0,0,0-3.35,3.06,3.13,3.13,0,0,1-.15.32.52.52,0,0,1,.11.1,5.43,5.43,0,0,0,2.06.86c.37.25-.34.75-.6,1a9.8,9.8,0,0,1-5.31,1.34c-.33-.06-1.2-.16-1-.56a5.33,5.33,0,0,0,1.41-1.73.31.31,0,0,1,.06-.13,2.43,2.43,0,0,1-.25-.2,41.21,41.21,0,0,0-4.25-1.06,10.76,10.76,0,0,0-4.12,0c-1.51.32-2.84.89-4.27,1.32a21.28,21.28,0,0,1-3.84.78l-.77.06.73-.21"/><path class="m" d="M623.74,460c9.1-4,12.45-8.49,19.66-12.71,8.14-4.76,16.32-4,21.89-4.12a6,6,0,0,1,8.65-3.46c4.25-3.61,9.91-10,19.48-12,8.18-1.69,13.64-.63,23.12-3.71,1.07-.35,2-.68,2-.68s-.82.5-1.82,1.07a57.11,57.11,0,0,1-9.8,4.3c-3.88,1.29-7.76,2.12-11.63,3.79a29.09,29.09,0,0,0-9.29,6.36,115,115,0,0,0-8.11,9.39,7.14,7.14,0,0,1-.28.93,1.85,1.85,0,0,1,.33.21c1.39,1.11,3.86,1.27,5.87,1.66,1.09.56-.69,2.15-1.33,2.79a26.76,26.76,0,0,1-14,5.36c-.91,0-3.28,0-2.85-1.17,1.23-1.64,3-3.41,3.26-5.17a1.34,1.34,0,0,1,.1-.38c-.25-.13-.5-.28-.73-.43a107.22,107.22,0,0,0-11.87-1.5A29.35,29.35,0,0,0,645.23,452c-4,1.36-7.44,3.34-11.18,5a57.3,57.3,0,0,1-10.16,3.37c-1.12.25-2.07.41-2.07.41s.88-.35,1.92-.81"/></g></svg>