<svg xmlns="http://www.w3.org/2000/svg" viewBox="0 0 71.71 105.08"><defs><style>.a{fill:#fff;}</style></defs><title>logo3</title><path class="a" d="M2915.8-89.82c4.4-1.27,8.54-2.29,12.54-3.71a5,5,0,0,0,3.18-4.72c.12-2.21.1-4.43.11-6.64q0-12.54,0-25.07c0-5-1.18-6.53-6.05-7.87-3.15-.88-6.3-1.74-9.75-2.69-.09,1-.22,1.72-.23,2.46,0,4.71,0,9.42,0,14.14,0,1.5-.43,2-2,1.91-4.55-.42-9.11-.8-13.67-1.07-1.7-.1-2.14-.85-2.13-2.43.07-5.93,0-11.86.06-17.79a2.3,2.3,0,0,0-2.1-2.63c-4.84-1.2-9.66-2.52-14.49-3.81-2.59-.68-3.77-2.18-3.81-4.94s0-5.43,0-8.15c0-3.74,2.44-5.61,6.11-4.67,4.91,1.26,9.78,2.63,14.68,3.93,12.82,3.4,25.62,6.88,38.48,10.15,7.69,2,12.41,7.64,12.41,15.53q0,22.81,0,45.64A14.84,14.84,0,0,1,2938-77.58q-27,7.35-54.12,14.62c-3.94,1.06-6.32-.74-6.36-4.78q0-3.86,0-7.71c0-3.15,1.15-4.51,4.19-5.29,4.83-1.25,9.63-2.59,14.47-3.82,1.41-.36,1.71-1.18,1.71-2.49-.05-6.15,0-12.29,0-18.43,0-2,.67-2.74,2.71-2.73,4.36,0,8.72-.14,13.07-.34,1.52-.08,2,.42,2,1.92-.06,4.71,0,9.42,0,14.14C2915.61-91.74,2915.71-91,2915.8-89.82Z" transform="translate(-2877.51 167.74)"/></svg>