<svg xmlns="http://www.w3.org/2000/svg" viewBox="0 0 57.85 95.79"><defs><style>.a{fill:#fff;}</style></defs><title>logo2</title><path class="a" d="M1444.66-292.87c0-10.08,0-20.15,0-30.22,0-2-.54-2.89-2.68-2.73a56.58,56.58,0,0,1-6.64,0c-2-.1-2.81.55-2.78,2.68.11,6.72.05,13.43,0,20.14,0,3.56,0,3.56-3.48,3.56h-10.5c-3.31,0-3.42-.11-3.43-3.52,0-6.57-.1-13.15,0-19.72,0-2.23-1-2.93-2.9-3-2.07-.08-4.14-.09-6.21-.07s-2.88-.87-2.84-2.86c0-3.07,0-6.14,0-9.21,0-1.84.74-2.71,2.7-2.7,10.64.05,21.31-.43,31.92.18,8.46.49,15,4.77,18.79,12.85,2.52,5.41,3.15,11.08,3.69,16.91a192.48,192.48,0,0,1-.63,38.7,40.66,40.66,0,0,1-4.3,14.33c-2.31,4.47-5.38,8-9.85,10a25.39,25.39,0,0,1-9.37,2.46c-9.92.31-19.86.12-29.79.1-2.64,0-3.08-.45-3.14-3.14s0-5.57-.06-8.36c-.08-2.13,1-3,3-3s3.85,0,5.78,0c2.45-.08,3.15-.79,3.16-3.24q0-12,0-24c0-3.09.42-3.5,3.43-3.51,3.64,0,7.29,0,10.93,0,2.51,0,3,.47,3,3,0,8.22,0,16.43,0,24.65,0,3,.24,3.23,3.34,3.2,2,0,4-.11,6,0s2.74-.63,2.71-2.58c-.07-4.43,0-8.86,0-13.28v-17.57Z" transform="translate(-1403.29 340.68)"/></svg>