<svg xmlns="http://www.w3.org/2000/svg" viewBox="0 0 61.74 63.29"><defs><style>.a{fill:#fff;}</style></defs><title>logo4</title><path class="a" d="M3145.94-140.18c1.44-3.61,2.64-6.79,4-9.92s3.79-8.11,4.36-9.4c0,0-1,0-1.29-.07-10.4-.92-16.73-8.81-15.8-19.23.93-10.59,8.24-19.51,19.23-22.79,11.92-3.56,23-1.79,32.27,6.91s12.14,19.46,8.84,31.5c-3.2,11.72-11.15,19.18-23,22.24a33.49,33.49,0,0,1-7.63.85c-6.06.12-12.13,0-18.2,0C3148-140.06,3147.2-140.13,3145.94-140.18Zm17.22-11.6c1.64,0,2.7,0,3.75,0,11.77-.3,20.92-10,20-21-1.22-14.86-16.89-23.44-30.65-15.84-4.52,2.5-7.24,6.41-7.31,11.78-.05,4.16,3.39,6.45,7.14,4.59a8.27,8.27,0,0,0,3.66-3.4c1.17-2.39,5.2-2.7,5.2-2.79s7.89.14,8.78.21Z" transform="translate(-3137.1 203.32)"/></svg>