<svg xmlns="http://www.w3.org/2000/svg" viewBox="0 0 59.2 63.5"><defs><style>.a{fill:#fff;}</style></defs><title>logo1</title><path class="a" d="M151.44,63.14c-2.35,0-4.71,0-7.07,0-2.51-.07-3.94-1.67-3.32-4.1,1.2-4.69,2.69-9.3,4-14,.16-.6-.08-1.79-.49-2-8.88-4.5-10.41-14.2-8.61-21.94C138.78,8.84,149.64.37,162.82,0s24,6.21,29.05,17.65,2.55,25.9-6.08,34.67c-5.55,5.64-12.57,8.61-20.28,9.8-4.64.72-9.35.93-14,1.37Zm-2.52-6.87c8.13.93,19.28-.32,26.53-4.37,10.22-5.71,13.89-16.29,11.78-26.67-3-14.62-17.34-22.18-31.71-17.12-8.89,3.14-14,10.73-13.53,20.1a10,10,0,0,0,5.09,8.6,25,25,0,0,1,.77-2.64c1.51-3.67,2.61-7.61,4.71-10.91,3-4.72,8-6.11,13.34-5.46a11.76,11.76,0,0,1,9.91,7.52c2.46,5.82-.1,13.37-5.77,17.09-5.11,3.35-10.79,3.86-16.67,3.2-1.25-.15-2.31-.25-2.61,1.33C150.16,50,149.56,53.05,148.92,56.27Zm8-17v.13c1.48-.18,3-.26,4.45-.55,3.33-.67,6.25-2.09,7.92-5.24a6.18,6.18,0,0,0-.36-7c-1.64-2.17-3.93-2.63-6.5-2.21a7,7,0,0,0-5.5,4.28c-1.22,2.86-2.09,5.88-3.09,8.84-.42,1.23.24,1.72,1.36,1.79C155.74,39.32,156.31,39.29,156.88,39.29Z" transform="translate(-135.24 0)"/></svg>