<svg xmlns="http://www.w3.org/2000/svg" width="23.276" height="23.727" viewBox="0 0 23.276 23.727">
  <path id="Icon_map-gas-station" data-name="Icon map-gas-station" d="M22.136,5.32c.264-.264.635-.55,1.014-.9l.35-.293L22.545,3.06l-.312.291c-1.319,1.2-2.112,1.922-2.5,3.406a15.41,15.41,0,0,0-.36,4.366,9.88,9.88,0,0,0,.5,3.449l.152.39A11.252,11.252,0,0,1,21,19.288c0,2.28-.924,3.437-2.746,3.437-1.658,0-2.552-1.106-2.656-3.292a13.962,13.962,0,0,1,.51-3.427,28.293,28.293,0,0,0,.613-3.341,3.549,3.549,0,0,0-.53-2.768,3.154,3.154,0,0,0-2.48-.774h-.263V2.467a.988.988,0,0,0-.991-1.027H2.542a1.084,1.084,0,0,0-1.1,1.027v21.06h12V10.563h.263a2.258,2.258,0,0,1,1.41.3c.111.125.282.529.169,1.62a27.352,27.352,0,0,1-.587,3.186,14.926,14.926,0,0,0-.542,3.828c.142,2.967,1.634,4.672,4.093,4.672,2.62,0,4.185-1.824,4.185-4.882a12.7,12.7,0,0,0-1.072-4.863l-.145-.368a7.866,7.866,0,0,1-.394-2.7c.462-.011,1.022-.022,1.274-.022.576,0,.865-.338.989-.922a13.441,13.441,0,0,0-.039-1.6V8.591C23.047,6.447,22.719,5.834,22.136,5.32ZM12,9.6H2.88V3.361H12Zm9.6-.794c0,.419.11.82.1,1.075-.287,0-.617.012-.954.02A11.665,11.665,0,0,1,21.1,7.126a3.636,3.636,0,0,1,.142-.654c.256.246.363.616.363,2.12v.216Z" transform="translate(-0.94 -0.94)" fill="none" stroke="#1dbf73" stroke-width="1"/>
</svg>
