<svg xmlns="http://www.w3.org/2000/svg" width="22" height="19" viewBox="0 0 22 19"><path d="M12,3A10.5,10.5,0,0,0,4.139,20.456c.052.056.1.112.15.164a1.181,1.181,0,0,0,1.739,0,8.115,8.115,0,0,1,11.944,0,1.181,1.181,0,0,0,1.739,0l.15-.164A10.5,10.5,0,0,0,12,3Zm-.656,2.152a.656.656,0,0,1,1.313,0V6.839a.656.656,0,0,1-1.312,0Zm-6,9H3.656a.656.656,0,0,1,0-1.312H5.344a.656.656,0,0,1,0,1.313Zm2.414-4.9h0a.662.662,0,0,1-.928,0l-1.2-1.191a.662.662,0,0,1,0-.928h0a.662.662,0,0,1,.928,0l1.2,1.2A.656.656,0,0,1,7.758,9.253Zm7.528,1.617-2.227,3.539a1.453,1.453,0,0,1-.328.328,1.411,1.411,0,0,1-1.641-2.3l3.539-2.227a.48.48,0,0,1,.548,0A.471.471,0,0,1,15.286,10.87ZM17.17,9.253a.662.662,0,0,1-.928,0h0a.662.662,0,0,1,0-.928l1.2-1.2a.662.662,0,0,1,.928,0h0a.662.662,0,0,1,0,.928Zm3.173,4.9H18.656a.656.656,0,0,1,0-1.312h1.688a.656.656,0,0,1,0,1.313Z" transform="translate(-1 -2.5)" fill="none" stroke="#1dbf73" stroke-width="1"/></svg>