<svg xmlns="http://www.w3.org/2000/svg" width="19.5" height="18" viewBox="0 0 19.5 18"><path d="M16.388,3A5.768,5.768,0,0,0,12,5.058,5.768,5.768,0,0,0,7.613,3,5.3,5.3,0,0,0,2.25,8.4c0,3.727,3.314,6.717,8.334,11.33L12,21l1.416-1.275c5.02-4.613,8.334-7.6,8.334-11.33A5.3,5.3,0,0,0,16.388,3ZM12.6,18.436l-.2.183-.4.366-.4-.366-.2-.183a59.581,59.581,0,0,1-5.752-5.719A6.878,6.878,0,0,1,3.755,8.4a3.9,3.9,0,0,1,1.111-2.78A3.815,3.815,0,0,1,7.613,4.5a4.3,4.3,0,0,1,3.239,1.523L12,7.387l1.148-1.364A4.283,4.283,0,0,1,16.388,4.5a3.834,3.834,0,0,1,2.752,1.116A3.907,3.907,0,0,1,20.25,8.4a6.914,6.914,0,0,1-1.894,4.322A59.7,59.7,0,0,1,12.6,18.436Z" transform="translate(-2.25 -3)" fill="#fff"/></svg>